<svg width="64" height="48" viewBox="0 0 64 48" fill="none" xmlns="http://www.w3.org/2000/svg">
<rect x="1" y="0.998779" width="62" height="46" rx="7" fill="#EEF2F5" stroke="#FB6E4F" stroke-width="2"/>
<path d="M30.547 6.39724C29.1924 6.14292 27.8078 6.09125 26.4384 6.24391C26.274 6.2077 26.1095 6.17148 25.942 6.13857C22.1994 5.44832 18.1488 5.87562 14.7549 7.64808C11.6314 9.27723 9.29917 12.1607 8.50312 15.6084C8.41086 16.0051 8.34152 16.417 8.29446 16.8251C6.4429 18.8702 4.91342 22.6844 5.02359 25.859C5.15596 29.6923 6.63375 33.5583 10.1936 35.57C11.6848 36.4141 13.4419 36.6957 15.1474 36.6814C16.7513 39.4454 20.6191 40.8101 22.8396 40.8813C25.4799 40.9676 27.7164 39.8956 29.2802 38.7145C30.1761 39.1812 31.1905 39.3624 32.3264 39.1619C34.3246 38.8083 36.1226 37.5491 37.5747 36.1892C39.1326 34.7362 40.4917 32.9921 41.5498 31.1458C42.3539 29.7431 43.1286 27.6565 43.3115 26.1494C43.5649 24.0766 43.3563 21.9678 42.3217 20.0461C42.103 19.6372 41.8432 19.2392 41.5425 18.865C41.4369 16.3015 40.6504 13.7636 39.124 11.6852C37.0776 8.89726 33.9291 7.02889 30.547 6.39724ZM40.2019 19.3571C40.2201 23.2197 38.4943 27.0979 35.2167 29.2826C34.5912 29.2423 33.9938 29.0859 33.4527 28.7964C32.8104 28.4493 32.411 27.9951 32.0195 27.3935C31.3883 26.4251 30.8485 25.3194 30.8124 24.1523C31.8074 23.0955 32.7256 21.9419 33.2807 20.6531C33.4411 20.2829 33.5655 19.8916 33.6512 19.4887C34.8612 18.6392 36.4639 17.9465 37.9182 18.0749C38.8074 18.1513 39.5835 18.6732 40.2019 19.3571ZM29.1717 37.0153C28.7105 36.6271 28.3067 36.1379 27.9462 35.6024C26.9961 34.1932 26.109 32.5643 26.0345 30.8288C27.7452 31.8225 29.6531 32.2081 31.5226 32.0251C31.5019 33.8822 30.7165 35.2715 29.1717 37.0153ZM10.6976 22.2194C9.80085 20.7797 9.48445 19.0841 9.60417 17.4126C10.8338 16.0984 13.04 15.0787 14.5306 14.6713C15.1903 14.4897 16.01 14.3092 16.8124 14.2796C16.6409 15.2711 16.6529 16.2917 16.8982 17.3015C16.5285 17.8225 16.1913 18.3617 15.9089 18.9086C15.1969 20.2923 14.7589 21.9198 15.0816 23.4231C14.6535 23.8277 14.2911 24.2812 13.9814 24.7779C12.8606 24.4786 11.4249 23.383 10.6976 22.2194ZM27.4024 14.4285C24.5764 15.3885 22.5168 17.9078 21.7708 20.752C21.6121 20.6964 21.4563 20.6311 21.3035 20.5625C21.6233 19.6046 21.7877 18.5942 21.7158 17.598C21.6508 16.7135 21.3999 15.8224 20.9582 15.0623C22.8239 13.532 25.1413 13.5328 27.4024 14.4285ZM24.8757 27.6885C24.7755 27.7558 24.6753 27.8231 24.5688 27.8906C23.6621 26.8252 23.0756 25.5249 22.8772 24.1405C23.9555 24.9821 24.7143 26.2247 24.8757 27.6885ZM17.392 25.5911C18.476 24.989 19.3752 24.0345 20.0739 23.0162C20.5554 23.058 21.0203 23.1772 21.4645 23.345C21.517 25.2829 22.2086 27.0943 23.3915 28.5726C21.4427 29.251 18.5348 27.7812 17.392 25.5911ZM16.6099 23.9427C17.082 23.6104 17.6173 23.3496 18.2168 23.1859C17.8433 23.6911 17.2739 24.081 16.765 24.3665C16.7058 24.2245 16.6563 24.0853 16.6099 23.9427ZM19.3301 21.6515C18.4799 21.6857 17.0494 21.8831 16.3404 22.5017C16.2991 21.274 16.7808 19.8979 17.4983 18.8661C18.0015 19.8386 18.7222 20.612 19.5834 21.1887C19.4991 21.3451 19.4147 21.5015 19.3301 21.6515ZM20.1015 19.8466C19.349 19.2663 18.7503 18.5018 18.3954 17.5628C18.8527 16.9813 19.3689 16.4363 19.9152 15.9319C20.4096 16.9271 20.4703 18.631 20.1015 19.8466ZM18.0443 15.8844C18.0145 15.3797 18.0524 14.8887 18.1388 14.4122C18.4747 14.5036 18.7901 14.6501 19.0566 14.8622C18.7057 15.1842 18.3683 15.5249 18.0443 15.8844ZM16.1224 26.1C17.2404 28.7871 21.505 31.291 24.3611 29.6098C24.4602 29.7026 24.5561 29.7923 24.6614 29.8784C23.8928 32.3362 21.4296 34.0877 18.9727 34.7924C17.9665 35.0838 16.9317 35.2658 15.8863 35.3353C14.9895 33.8956 14.2793 32.2897 14.0621 30.5941C13.8754 29.1375 14.1044 27.5745 14.7316 26.2416C15.1195 26.2577 15.8104 26.1486 16.1224 26.1ZM26.2022 29.3446C26.3528 28.7795 26.6231 28.2522 26.9599 27.7994C27.4254 27.176 28.0504 27.0115 28.2665 26.966C29.801 26.6244 30.7745 28.6313 31.172 29.7898C31.2716 30.0873 31.3488 30.3825 31.4101 30.6813C29.7384 30.845 27.8685 30.6374 26.2022 29.3446ZM29.7791 25.8794C29.6103 25.8081 29.4355 25.7498 29.2644 25.7074L29.6364 25.3495C29.6744 25.5275 29.7252 25.7051 29.7791 25.8794ZM32.6232 29.8286C32.8619 29.9776 33.1066 30.1136 33.3631 30.2236C33.164 30.2974 32.9613 30.3616 32.752 30.4197C32.7197 30.2223 32.6747 30.0253 32.6232 29.8286ZM32.4221 18.7288C31.0133 19.8568 29.5891 21.9488 29.4967 23.5778C28.8073 24.3013 26.1734 26.6858 26.0798 26.7593C25.9941 26.4004 25.8862 26.0455 25.7365 25.6887C25.1288 24.2779 24.087 23.1854 22.8378 22.4934C22.8402 22.471 22.8444 22.4068 22.8473 22.3971C24.2914 22.6026 25.807 22.4601 27.1512 21.9839C29.3654 21.2007 31.2583 19.6215 32.3749 17.6133C32.4513 17.9821 32.4607 18.3563 32.4221 18.7288ZM25.2513 21.0732C24.5284 21.1833 23.7953 21.1786 23.0812 21.074C23.7037 18.7458 25.3322 16.6344 27.6178 15.7881C28.8823 15.3177 30.5109 15.2995 31.5372 16.2165C30.4808 18.7765 28.012 20.6466 25.2513 21.0732ZM31.955 14.8425C31.1304 14.3062 30.137 14.0827 29.1456 14.1088C27.8132 12.3729 23.5797 11.2667 20.1026 13.9893C19.6613 13.5839 19.1303 13.2887 18.5532 13.1279C18.5402 13.1219 18.5274 13.1224 18.5113 13.1197C19.3093 11.1539 21.0159 9.55521 22.9715 8.60449C24.036 8.08948 25.6088 7.5546 26.9669 7.77251C28.6854 8.04903 30.3065 9.13851 31.2598 10.6436C32.0539 11.8882 32.2333 13.4123 31.955 14.8425ZM22.8816 7.17033C21.938 7.56935 21.0399 8.08531 20.2263 8.72972C18.8264 9.83505 17.7494 11.3107 17.164 12.9366C15.8601 12.8994 14.4976 13.2161 13.3269 13.6194C12.1531 14.0259 11.0068 14.582 9.98772 15.3068C10.1197 14.8544 10.281 14.417 10.4716 13.9947C12.6195 9.24803 17.8401 7.0668 22.8816 7.17033ZM9.42764 33.2618C7.04318 30.7955 6.14577 27.4354 6.51066 24.1107C6.70409 22.3472 7.62508 19.8524 8.29378 19.0848C8.51935 21.3146 9.46514 23.4505 11.2736 24.8763C11.9016 25.371 12.6093 25.7607 13.3566 25.9954C12.6143 27.809 12.4872 29.9256 12.919 31.8158C13.2005 33.0453 13.6915 34.223 14.308 35.3262C12.4793 35.2006 10.7244 34.6052 9.42764 33.2618ZM22.339 39.515C20.7311 39.3853 18.042 38.4237 16.7448 36.5906C18.4383 36.4103 20.1137 35.9776 21.6239 35.1984C22.9325 34.5198 24.056 33.5327 24.8974 32.3224C25.3068 34.0246 26.2292 35.6555 27.299 37.0095C27.5497 37.3245 27.8123 37.6136 28.093 37.87C26.4133 39.0293 24.39 39.6814 22.339 39.515ZM40.102 30.9244C39.1374 32.5052 37.9392 33.9912 36.583 35.2551C35.3262 36.4262 33.7505 37.5405 32.0225 37.8372C31.4242 37.94 30.8911 37.8871 30.4024 37.7271C30.9101 37.2175 31.365 36.6585 31.7417 36.0572C32.5375 34.7892 32.9158 33.2853 32.8942 31.7913C33.8273 31.5559 34.7363 31.174 35.5863 30.6564C37.7306 30.6501 39.6964 29.6222 41.377 28.2964C41.0429 29.21 40.6054 30.0949 40.102 30.9244ZM41.977 25.9659C40.8086 27.102 39.4188 28.223 37.8614 28.8342C39.7764 26.867 41.1522 23.9061 41.433 21.3139C42.076 22.826 42.2 24.4158 41.977 25.9659ZM38.5024 13.1843C39.3083 14.4957 39.8187 15.9641 40.0585 17.4766C39.4071 17.0466 38.6742 16.7634 37.8789 16.7191C36.4905 16.6462 35.0181 17.1201 33.7585 17.8304C33.6878 17.1574 33.4738 16.505 33.08 15.9322C33.3106 15.1757 33.4404 14.3745 33.4415 13.5519C33.4408 11.7243 32.7321 9.97756 31.4214 8.69546C31.0341 8.31448 30.6004 7.98303 30.1458 7.69387C33.527 8.29994 36.6973 10.2444 38.5024 13.1843Z" fill="#19184A"/>
<path d="M46.547 6.39773C45.1924 6.14341 43.8078 6.09173 42.4384 6.2444C42.274 6.20819 42.1095 6.17197 41.942 6.13905C38.1994 5.44881 34.1488 5.87611 30.7549 7.64857C27.6314 9.27772 25.2992 12.1612 24.5031 15.6088C24.4109 16.0056 24.3415 16.4175 24.2945 16.8255C22.4429 18.8707 20.9134 22.6848 21.0236 25.8595C21.156 29.6928 22.6337 33.5588 26.1936 35.5705C27.6848 36.4146 29.4419 36.6962 31.1474 36.6819C32.7513 39.4459 36.6191 40.8106 38.8396 40.8818C41.4799 40.9681 43.7164 39.8961 45.2802 38.715C46.1761 39.1817 47.1905 39.3629 48.3264 39.1624C50.3246 38.8088 52.1226 37.5496 53.5747 36.1897C55.1326 34.7367 56.4917 32.9926 57.5498 31.1463C58.3539 29.7436 59.1286 27.657 59.3115 26.1498C59.5649 24.0771 59.3563 21.9683 58.3217 20.0466C58.103 19.6377 57.8432 19.2397 57.5425 18.8655C57.4369 16.302 56.6504 13.764 55.124 11.6856C53.0776 8.89774 49.9291 7.02938 46.547 6.39773ZM56.2019 19.3575C56.2201 23.2202 54.4943 27.0984 51.2167 29.2831C50.5912 29.2428 49.9938 29.0864 49.4527 28.7969C48.8104 28.4498 48.411 27.9956 48.0195 27.3939C47.3883 26.4256 46.8485 25.3199 46.8124 24.1528C47.8074 23.096 48.7256 21.9424 49.2807 20.6535C49.4411 20.2834 49.5655 19.892 49.6512 19.4892C50.8612 18.6397 52.4639 17.947 53.9182 18.0753C54.8074 18.1518 55.5835 18.6737 56.2019 19.3575ZM45.1717 37.0158C44.7105 36.6276 44.3067 36.1383 43.9462 35.6028C42.9961 34.1937 42.109 32.5648 42.0345 30.8293C43.7452 31.823 45.6531 32.2086 47.5226 32.0256C47.5019 33.8827 46.7165 35.2719 45.1717 37.0158ZM26.6976 22.2199C25.8008 20.7802 25.4844 19.0846 25.6042 17.4131C26.8338 16.0989 29.04 15.0792 30.5306 14.6718C31.1903 14.4902 32.01 14.3096 32.8124 14.2801C32.6409 15.2716 32.6529 16.2922 32.8982 17.302C32.5285 17.823 32.1913 18.3622 31.9089 18.9091C31.1969 20.2928 30.7589 21.9203 31.0816 23.4236C30.6535 23.8281 30.2911 24.2817 29.9814 24.7784C28.8606 24.4791 27.4249 23.3835 26.6976 22.2199ZM43.4024 14.4289C40.5764 15.389 38.5168 17.9083 37.7708 20.7525C37.6121 20.6969 37.4563 20.6316 37.3035 20.563C37.6233 19.6051 37.7877 18.5947 37.7158 17.5985C37.6508 16.714 37.3999 15.8228 36.9582 15.0628C38.8239 13.5325 41.1413 13.5333 43.4024 14.4289ZM40.8757 27.689C40.7755 27.7563 40.6753 27.8236 40.5688 27.8911C39.6621 26.8257 39.0756 25.5254 38.8772 24.141C39.9555 24.9826 40.7143 26.2252 40.8757 27.689ZM33.392 25.5915C34.476 24.9895 35.3752 24.035 36.0739 23.0167C36.5554 23.0585 37.0203 23.1777 37.4645 23.3455C37.517 25.2834 38.2086 27.0947 39.3915 28.5731C37.4427 29.2515 34.5348 27.7817 33.392 25.5915ZM32.6099 23.9432C33.082 23.6109 33.6173 23.3501 34.2168 23.1864C33.8433 23.6915 33.2739 24.0815 32.765 24.367C32.7058 24.2249 32.6563 24.0857 32.6099 23.9432ZM35.3301 21.652C34.4799 21.6862 33.0494 21.8836 32.3404 22.5022C32.2991 21.2744 32.7808 19.8984 33.4983 18.8666C34.0015 19.8391 34.7222 20.6125 35.5834 21.1891C35.4991 21.3455 35.4147 21.5019 35.3301 21.652ZM36.1015 19.8471C35.349 19.2668 34.7503 18.5023 34.3954 17.5633C34.8527 16.9818 35.3689 16.4368 35.9152 15.9323C36.4096 16.9275 36.4703 18.6315 36.1015 19.8471ZM34.0443 15.8849C34.0145 15.3801 34.0524 14.8892 34.1388 14.4127C34.4747 14.5041 34.7901 14.6506 35.0566 14.8627C34.7057 15.1846 34.3683 15.5254 34.0443 15.8849ZM32.1224 26.1005C33.2404 28.7876 37.505 31.2915 40.3611 29.6103C40.4602 29.7031 40.5561 29.7928 40.6614 29.8789C39.8928 32.3366 37.4296 34.0882 34.9727 34.7929C33.9665 35.0843 32.9317 35.2663 31.8863 35.3358C30.9895 33.8961 30.2793 32.2902 30.0621 30.5946C29.8754 29.138 30.1044 27.575 30.7316 26.2421C31.1195 26.2582 31.8104 26.1491 32.1224 26.1005ZM42.2022 29.3451C42.3528 28.78 42.6231 28.2527 42.9599 27.7999C43.4254 27.1765 44.0504 27.012 44.2665 26.9665C45.801 26.6249 46.7745 28.6318 47.172 29.7902C47.2716 30.0878 47.3488 30.383 47.4101 30.6818C45.7384 30.8455 43.8685 30.6379 42.2022 29.3451ZM45.7791 25.8799C45.6103 25.8086 45.4355 25.7503 45.2644 25.7079L45.6364 25.35C45.6744 25.528 45.7252 25.7056 45.7791 25.8799ZM48.6232 29.8291C48.8619 29.9781 49.1066 30.1141 49.3631 30.2241C49.164 30.2978 48.9613 30.3621 48.752 30.4202C48.7197 30.2228 48.6747 30.0258 48.6232 29.8291ZM48.4221 18.7293C47.0133 19.8573 45.5891 21.9493 45.4967 23.5782C44.8073 24.3018 42.1734 26.6863 42.0798 26.7597C41.9941 26.4009 41.8862 26.0459 41.7365 25.6892C41.1288 24.2784 40.087 23.1859 38.8378 22.4939C38.8402 22.4714 38.8444 22.4073 38.8473 22.3976C40.2914 22.6031 41.807 22.4606 43.1512 21.9844C45.3654 21.2012 47.2583 19.622 48.3749 17.6138C48.4513 17.9826 48.4607 18.3567 48.4221 18.7293ZM41.2513 21.0737C40.5284 21.1838 39.7953 21.1791 39.0812 21.0744C39.7037 18.7463 41.3322 16.6349 43.6178 15.7886C44.8823 15.3182 46.5109 15.3 47.5372 16.217C46.4808 18.7769 44.012 20.6471 41.2513 21.0737ZM47.955 14.843C47.1304 14.3067 46.137 14.0832 45.1456 14.1093C43.8132 12.3734 39.5797 11.2672 36.1026 13.9898C35.6613 13.5844 35.1303 13.2892 34.5532 13.1284C34.5402 13.1224 34.5274 13.1228 34.5113 13.1202C35.3093 11.1544 37.0159 9.5557 38.9715 8.60497C40.036 8.08996 41.6088 7.55508 42.9669 7.773C44.6854 8.04952 46.3065 9.139 47.2598 10.6441C48.0539 11.8887 48.2333 13.4127 47.955 14.843ZM38.8816 7.17082C37.938 7.56984 37.0399 8.08579 36.2263 8.73021C34.8264 9.83554 33.7494 11.3112 33.164 12.9371C31.8601 12.8999 30.4976 13.2166 29.3269 13.6199C28.1531 14.0264 27.0068 14.5825 25.9877 15.3073C26.1197 14.8549 26.281 14.4175 26.4716 13.9952C28.6195 9.24852 33.8401 7.06729 38.8816 7.17082ZM25.4276 33.2623C23.0432 30.796 22.1458 27.4359 22.5107 24.1112C22.7041 22.3477 23.6251 19.8529 24.2938 19.0852C24.5194 21.3151 25.4651 23.451 27.2736 24.8768C27.9016 25.3715 28.6093 25.7612 29.3566 25.9959C28.6143 27.8095 28.4872 29.9261 28.919 31.8163C29.2005 33.0458 29.6915 34.2235 30.308 35.3267C28.4793 35.2011 26.7244 34.6057 25.4276 33.2623ZM38.339 39.5155C36.7311 39.3858 34.042 38.4242 32.7448 36.5911C34.4383 36.4107 36.1137 35.9781 37.6239 35.1988C38.9325 34.5203 40.056 33.5332 40.8974 32.3229C41.3068 34.025 42.2292 35.656 43.299 37.01C43.5497 37.325 43.8123 37.6141 44.093 37.8705C42.4133 39.0298 40.39 39.6819 38.339 39.5155ZM56.102 30.9249C55.1374 32.5057 53.9392 33.9917 52.583 35.2556C51.3262 36.4267 49.7505 37.541 48.0225 37.8377C47.4242 37.9405 46.8911 37.8876 46.4024 37.7276C46.9101 37.218 47.365 36.659 47.7417 36.0577C48.5375 34.7897 48.9158 33.2858 48.8942 31.7918C49.8273 31.5564 50.7363 31.1745 51.5863 30.6569C53.7306 30.6506 55.6964 29.6227 57.377 28.2969C57.0429 29.2105 56.6054 30.0954 56.102 30.9249ZM57.977 25.9664C56.8086 27.1025 55.4188 28.2235 53.8614 28.8347C55.7764 26.8675 57.1522 23.9066 57.433 21.3144C58.076 22.8264 58.2 24.4163 57.977 25.9664ZM54.5024 13.1847C55.3083 14.4962 55.8187 15.9646 56.0585 17.477C55.4071 17.0471 54.6742 16.7639 53.8789 16.7195C52.4905 16.6467 51.0181 17.1206 49.7585 17.8309C49.6878 17.1579 49.4738 16.5055 49.08 15.9327C49.3106 15.1762 49.4404 14.375 49.4415 13.5524C49.4408 11.7248 48.7321 9.97805 47.4214 8.69595C47.0341 8.31497 46.6004 7.98352 46.1458 7.69436C49.527 8.30043 52.6973 10.2449 54.5024 13.1847Z" fill="#19184A"/>
<g filter="url(#filter0_d_582_15182)">
<rect x="13" y="13" width="38" height="22.04" rx="2" fill="white"/>
<path d="M46.7379 14.9746C46.8915 15.0212 46.9751 15.1426 47.0496 15.2713C47.1571 15.4567 47.2205 15.6591 47.2666 15.8672C47.3129 16.0821 47.3388 16.3009 47.3439 16.5207C47.3439 16.5263 47.3439 16.532 47.3439 16.5392H46.0861C46.085 16.5345 46.0843 16.5297 46.084 16.525C46.0954 16.1704 46.1452 15.8228 46.2745 15.49C46.3286 15.3507 46.395 15.2181 46.4952 15.1048C46.5486 15.0442 46.6109 14.9967 46.6906 14.9746H46.7379Z" fill="#19184A"/>
<path d="M46.6898 18.2682C46.5361 18.2217 46.4525 18.1002 46.378 17.9716C46.2707 17.7863 46.2073 17.5838 46.1611 17.3757C46.1218 17.1942 46.0973 17.0097 46.0879 16.8242C46.0879 16.8177 46.0879 16.8112 46.0879 16.803H47.3408C47.3376 16.8508 47.3352 16.8982 47.331 16.9453C47.3146 17.1485 47.2785 17.3496 47.2233 17.5458C47.1735 17.7185 47.1091 17.8852 47.0099 18.0365C46.9572 18.1168 46.8973 18.1909 46.8109 18.2381C46.7871 18.2495 46.7626 18.2596 46.7376 18.2682H46.6898Z" fill="#19184A"/>
<path d="M47.2266 15.0583C47.9159 15.2783 48.343 15.9324 48.3556 16.5396H47.6072C47.6057 16.5073 47.6041 16.4744 47.6027 16.4415C47.587 16.0995 47.5331 15.7643 47.4155 15.4419C47.3696 15.3132 47.3096 15.1899 47.2367 15.0744C47.234 15.0702 47.2314 15.066 47.2266 15.0583Z" fill="#19184A"/>
<path d="M47.2305 18.1836C47.263 18.1248 47.2971 18.0677 47.3267 18.0084C47.4186 17.8237 47.4795 17.6281 47.5233 17.427C47.567 17.2249 47.5933 17.0194 47.6021 16.8127C47.6024 16.8095 47.6028 16.8062 47.6034 16.803H48.3472C48.3059 17.3568 47.8903 17.9732 47.2305 18.1836Z" fill="#19184A"/>
<path d="M46.2017 18.1868C45.9191 18.0947 45.6669 17.9273 45.4724 17.7026C45.2476 17.4445 45.1169 17.1444 45.0767 16.803H45.8239C45.8273 16.8527 45.83 16.9023 45.8343 16.9518C45.8644 17.3034 45.9326 17.6454 46.0818 17.9676C46.1138 18.0369 46.1546 18.1021 46.1914 18.1692C46.1935 18.1737 46.1962 18.1774 46.2017 18.1868Z" fill="#19184A"/>
<path d="M46.1975 15.0583C46.1253 15.1739 46.0653 15.2965 46.0182 15.4243C45.9491 15.6121 45.8991 15.8064 45.8688 16.0042C45.8419 16.1763 45.8263 16.35 45.8219 16.5242C45.8219 16.5284 45.821 16.5325 45.8205 16.5372H45.0693C45.0872 16.2159 45.1865 15.9251 45.373 15.6647C45.5751 15.3788 45.8644 15.1661 46.1975 15.0583Z" fill="#19184A"/>
<path d="M15.6357 19.4895C15.6357 18.9372 16.0835 18.4895 16.6357 18.4895H21.445C21.9973 18.4895 22.445 18.9372 22.445 19.4895V26.1774H15.6357V19.4895Z" fill="#19184A"/>
<path d="M15.6357 26.18C15.6357 24.6029 16.9142 23.3245 18.4912 23.3245H19.5895C21.1665 23.3245 22.445 24.6029 22.445 26.18H15.6357Z" fill="#558BFF"/>
<rect x="16" y="16" width="27" height="1" fill="#9DD3FF"/>
<rect x="26" y="21" width="23" height="1" fill="#9DD3FF"/>
<rect x="26" y="24" width="23" height="1" fill="#9DD3FF"/>
<path d="M13 28H51V33C51 34.1046 50.1046 35 49 35H15C13.8954 35 13 34.1046 13 33V28Z" fill="#558BFF"/>
<circle cx="19.1503" cy="21.1281" r="1.75723" fill="white"/>
<rect x="15" y="30" width="34" height="1" fill="white"/>
<rect x="15" y="32" width="34" height="1" fill="white"/>
</g>
<rect x="47" y="3.99878" width="13" height="13" rx="6.5" fill="#FB6E4F"/>
<path d="M50.8232 7.823L56.1762 13.1759" stroke="white" stroke-width="2"/>
<path d="M56.1768 7.823L50.8238 13.1759" stroke="white" stroke-width="2"/>
<defs>
<filter id="filter0_d_582_15182" x="11" y="11" width="42" height="26.04" filterUnits="userSpaceOnUse" color-interpolation-filters="sRGB">
<feFlood flood-opacity="0" result="BackgroundImageFix"/>
<feColorMatrix in="SourceAlpha" type="matrix" values="0 0 0 0 0 0 0 0 0 0 0 0 0 0 0 0 0 0 127 0" result="hardAlpha"/>
<feOffset/>
<feGaussianBlur stdDeviation="1"/>
<feComposite in2="hardAlpha" operator="out"/>
<feColorMatrix type="matrix" values="0 0 0 0 0 0 0 0 0 0 0 0 0 0 0 0 0 0 0.25 0"/>
<feBlend mode="normal" in2="BackgroundImageFix" result="effect1_dropShadow_582_15182"/>
<feBlend mode="normal" in="SourceGraphic" in2="effect1_dropShadow_582_15182" result="shape"/>
</filter>
</defs>
</svg>
