<svg width="69" height="53" viewBox="0 0 69 53" fill="none" xmlns="http://www.w3.org/2000/svg">
<g id="Group 1000005359">
<rect id="Image" x="3.14746" y="3.99902" width="62" height="46" rx="7" fill="#EEF2F5" stroke="#FB6E4F" stroke-width="2"/>
<path id="Vector" d="M32.6945 9.39773C31.3399 9.14341 29.9553 9.09173 28.5859 9.2444C28.4214 9.20819 28.257 9.17197 28.0894 9.13905C24.3469 8.44881 20.2963 8.87611 16.9023 10.6486C13.7789 12.2777 11.4466 15.1612 10.6506 18.6088C10.5583 19.0056 10.489 19.4175 10.4419 19.8255C8.59036 21.8707 7.06088 25.6848 7.17105 28.8595C7.30342 32.6928 8.78121 36.5588 12.341 38.5705C13.8322 39.4146 15.5894 39.6962 17.2949 39.6819C18.8988 42.4459 22.7665 43.8106 24.9871 43.8818C27.6274 43.9681 29.8638 42.8961 31.4276 41.715C32.3236 42.1817 33.3379 42.3629 34.4738 42.1624C36.472 41.8088 38.27 40.5496 39.7222 39.1897C41.28 37.7367 42.6392 35.9926 43.6973 34.1463C44.5014 32.7436 45.2761 30.657 45.459 29.1498C45.7124 27.0771 45.5037 24.9683 44.4691 23.0466C44.2505 22.6377 43.9906 22.2397 43.6899 21.8655C43.5844 19.302 42.7979 16.764 41.2715 14.6856C39.2251 11.8977 36.0766 10.0294 32.6945 9.39773ZM42.3494 22.3575C42.3675 26.2202 40.6417 30.0984 37.3641 32.2831C36.7386 32.2428 36.1412 32.0864 35.6001 31.7969C34.9579 31.4498 34.5585 30.9956 34.1669 30.3939C33.5357 29.4256 32.996 28.3199 32.9598 27.1528C33.9549 26.096 34.873 24.9424 35.4282 23.6535C35.5885 23.2834 35.713 22.892 35.7986 22.4892C37.0087 21.6397 38.6114 20.947 40.0656 21.0753C40.9548 21.1518 41.731 21.6737 42.3494 22.3575ZM31.3192 40.0158C30.858 39.6276 30.4542 39.1383 30.0937 38.6028C29.1436 37.1937 28.2565 35.5648 28.182 33.8293C29.8927 34.823 31.8005 35.2086 33.67 35.0256C33.6494 36.8827 32.864 38.2719 31.3192 40.0158ZM12.845 25.2199C11.9483 23.7802 11.6319 22.0846 11.7516 20.4131C12.9813 19.0989 15.1874 18.0792 16.6781 17.6718C17.3377 17.4902 18.1574 17.3096 18.9598 17.2801C18.7884 18.2716 18.8004 19.2922 19.0457 20.302C18.6759 20.823 18.3388 21.3622 18.0564 21.9091C17.3444 23.2928 16.9063 24.9203 17.229 26.4236C16.801 26.8281 16.4386 27.2817 16.1288 27.7784C15.0081 27.4791 13.5724 26.3835 12.845 25.2199ZM29.5498 17.4289C26.7239 18.389 24.6643 20.9083 23.9183 23.7525C23.7596 23.6969 23.6037 23.6316 23.451 23.563C23.7708 22.6051 23.9352 21.5947 23.8632 20.5985C23.7982 19.714 23.5473 18.8228 23.1056 18.0628C24.9713 16.5325 27.2887 16.5333 29.5498 17.4289ZM27.0231 30.689C26.923 30.7563 26.8228 30.8236 26.7163 30.8911C25.8096 29.8257 25.2231 28.5254 25.0247 27.141C26.1029 27.9826 26.8618 29.2252 27.0231 30.689ZM19.5394 28.5915C20.6234 27.9895 21.5227 27.035 22.2214 26.0167C22.7029 26.0585 23.1678 26.1777 23.612 26.3455C23.6645 28.2834 24.3561 30.0947 25.5389 31.5731C23.5901 32.2515 20.6823 30.7817 19.5394 28.5915ZM18.7573 26.9432C19.2294 26.6109 19.7648 26.3501 20.3642 26.1864C19.9907 26.6915 19.4213 27.0815 18.9124 27.367C18.8532 27.2249 18.8037 27.0857 18.7573 26.9432ZM21.4776 24.652C20.6273 24.6862 19.1968 24.8836 18.4879 25.5022C18.4465 24.2744 18.9283 22.8984 19.6457 21.8666C20.149 22.8391 20.8696 23.6125 21.7309 24.1891C21.6465 24.3455 21.5622 24.5019 21.4776 24.652ZM22.249 22.8471C21.4965 22.2668 20.8978 21.5023 20.5428 20.5633C21.0002 19.9818 21.5163 19.4368 22.0627 18.9323C22.5571 19.9275 22.6177 21.6315 22.249 22.8471ZM20.1918 18.8849C20.162 18.3801 20.1999 17.8892 20.2862 17.4127C20.6222 17.5041 20.9376 17.6506 21.204 17.8627C20.8532 18.1846 20.5158 18.5254 20.1918 18.8849ZM18.2699 29.1005C19.3879 31.7876 23.6525 34.2915 26.5085 32.6103C26.6077 32.7031 26.7035 32.7928 26.8088 32.8789C26.0402 35.3366 23.5771 37.0882 21.1202 37.7929C20.114 38.0843 19.0792 38.2663 18.0337 38.3358C17.137 36.8961 16.4267 35.2902 16.2096 33.5946C16.0229 32.138 16.2519 30.575 16.8791 29.2421C17.2669 29.2582 17.9578 29.1491 18.2699 29.1005ZM28.3496 32.3451C28.5002 31.78 28.7705 31.2527 29.1074 30.7999C29.5729 30.1765 30.1979 30.012 30.414 29.9665C31.9485 29.6249 32.9219 31.6318 33.3194 32.7902C33.4191 33.0878 33.4963 33.383 33.5575 33.6818C31.8858 33.8455 30.016 33.6379 28.3496 32.3451ZM31.9266 28.8799C31.7577 28.8086 31.5829 28.7503 31.4119 28.7079L31.7839 28.35C31.8219 28.528 31.8727 28.7056 31.9266 28.8799ZM34.7707 32.8291C35.0094 32.9781 35.254 33.1141 35.5106 33.2241C35.3114 33.2978 35.1087 33.3621 34.8994 33.4202C34.8672 33.2228 34.8221 33.0258 34.7707 32.8291ZM34.5695 21.7293C33.1608 22.8573 31.7365 24.9493 31.6442 26.5782C30.9548 27.3018 28.3209 29.6863 28.2273 29.7597C28.1416 29.4009 28.0336 29.0459 27.884 28.6892C27.2763 27.2784 26.2344 26.1859 24.9852 25.4939C24.9877 25.4714 24.9919 25.4073 24.9948 25.3976C26.4388 25.6031 27.9544 25.4606 29.2987 24.9844C31.5129 24.2012 33.4057 22.622 34.5223 20.6138C34.5988 20.9826 34.6082 21.3567 34.5695 21.7293ZM27.3988 24.0737C26.6759 24.1838 25.9428 24.1791 25.2287 24.0744C25.8512 21.7463 27.4796 19.6349 29.7653 18.7886C31.0298 18.3182 32.6583 18.3 33.6847 19.217C32.6283 21.7769 30.1595 23.6471 27.3988 24.0737ZM34.1025 17.843C33.2778 17.3067 32.2845 17.0832 31.2931 17.1093C29.9607 15.3734 25.7272 14.2672 22.2501 16.9898C21.8088 16.5844 21.2778 16.2892 20.7007 16.1284C20.6877 16.1224 20.6749 16.1228 20.6588 16.1202C21.4568 14.1544 23.1633 12.5557 25.119 11.605C26.1835 11.09 27.7562 10.5551 29.1143 10.773C30.8328 11.0495 32.4539 12.139 33.4073 13.6441C34.2014 14.8887 34.3808 16.4127 34.1025 17.843ZM25.029 10.1708C24.0854 10.5698 23.1874 11.0858 22.3737 11.7302C20.9738 12.8355 19.8969 14.3112 19.3115 15.9371C18.0075 15.8999 16.6451 16.2166 15.4744 16.6199C14.3006 17.0264 13.1542 17.5825 12.1352 18.3073C12.2672 17.8549 12.4285 17.4175 12.6191 16.9952C14.7669 12.2485 19.9875 10.0673 25.029 10.1708ZM11.5751 36.2623C9.19064 33.796 8.29323 30.4359 8.65812 27.1112C8.85156 25.3477 9.77254 22.8529 10.4412 22.0852C10.6668 24.3151 11.6126 26.451 13.4211 27.8768C14.0491 28.3715 14.7568 28.7612 15.5041 28.9959C14.7618 30.8095 14.6347 32.9261 15.0664 34.8163C15.3479 36.0458 15.8389 37.2235 16.4554 38.3267C14.6268 38.2011 12.8719 37.6057 11.5751 36.2623ZM24.4865 42.5155C22.8785 42.3858 20.1895 41.4242 18.8922 39.5911C20.5858 39.4107 22.2612 38.9781 23.7713 38.1988C25.08 37.5203 26.2035 36.5332 27.0448 35.3229C27.4543 37.025 28.3766 38.656 29.4465 40.01C29.6972 40.325 29.9598 40.6141 30.2405 40.8705C28.5607 42.0298 26.5374 42.6819 24.4865 42.5155ZM42.2494 33.9249C41.2849 35.5057 40.0866 36.9917 38.7305 38.2556C37.4736 39.4267 35.898 40.541 34.1699 40.8377C33.5717 40.9405 33.0386 40.8876 32.5498 40.7276C33.0576 40.218 33.5125 39.659 33.8891 39.0577C34.685 37.7897 35.0632 36.2858 35.0417 34.7918C35.9748 34.5564 36.8837 34.1745 37.7337 33.6569C39.878 33.6506 41.8439 32.6227 43.5244 31.2969C43.1903 32.2105 42.7528 33.0954 42.2494 33.9249ZM44.1245 28.9664C42.956 30.1025 41.5663 31.2235 40.0089 31.8347C41.9239 29.8675 43.2997 26.9066 43.5804 24.3144C44.2235 25.8264 44.3475 27.4163 44.1245 28.9664ZM40.6498 16.1847C41.4558 17.4962 41.9662 18.9646 42.206 20.477C41.5546 20.0471 40.8216 19.7639 40.0264 19.7195C38.638 19.6467 37.1656 20.1206 35.906 20.8309C35.8353 20.1579 35.6213 19.5055 35.2275 18.9327C35.4581 18.1762 35.5879 17.375 35.589 16.5524C35.5882 14.7248 34.8796 12.9781 33.5689 11.696C33.1816 11.315 32.7479 10.9835 32.2932 10.6944C35.6745 11.3004 38.8448 13.2449 40.6498 16.1847Z" fill="#19184A"/>
<path id="Vector_2" d="M48.6945 9.39773C47.3399 9.14341 45.9553 9.09173 44.5859 9.2444C44.4214 9.20819 44.257 9.17197 44.0894 9.13905C40.3469 8.44881 36.2963 8.87611 32.9023 10.6486C29.7789 12.2777 27.4466 15.1612 26.6506 18.6088C26.5583 19.0056 26.489 19.4175 26.4419 19.8255C24.5904 21.8707 23.0609 25.6848 23.1711 28.8595C23.3034 32.6928 24.7812 36.5588 28.341 38.5705C29.8322 39.4146 31.5894 39.6962 33.2949 39.6819C34.8988 42.4459 38.7665 43.8106 40.9871 43.8818C43.6274 43.9681 45.8638 42.8961 47.4276 41.715C48.3236 42.1817 49.3379 42.3629 50.4738 42.1624C52.472 41.8088 54.27 40.5496 55.7222 39.1897C57.28 37.7367 58.6392 35.9926 59.6973 34.1463C60.5014 32.7436 61.2761 30.657 61.459 29.1498C61.7124 27.0771 61.5037 24.9683 60.4691 23.0466C60.2505 22.6377 59.9906 22.2397 59.6899 21.8655C59.5844 19.302 58.7979 16.764 57.2715 14.6856C55.2251 11.8977 52.0766 10.0294 48.6945 9.39773ZM58.3494 22.3575C58.3675 26.2202 56.6417 30.0984 53.3641 32.2831C52.7386 32.2428 52.1412 32.0864 51.6001 31.7969C50.9579 31.4498 50.5585 30.9956 50.1669 30.3939C49.5357 29.4256 48.996 28.3199 48.9598 27.1528C49.9549 26.096 50.873 24.9424 51.4282 23.6535C51.5885 23.2834 51.713 22.892 51.7986 22.4892C53.0087 21.6397 54.6114 20.947 56.0656 21.0753C56.9548 21.1518 57.731 21.6737 58.3494 22.3575ZM47.3192 40.0158C46.858 39.6276 46.4542 39.1383 46.0937 38.6028C45.1436 37.1937 44.2565 35.5648 44.182 33.8293C45.8927 34.823 47.8005 35.2086 49.67 35.0256C49.6494 36.8827 48.864 38.2719 47.3192 40.0158ZM28.845 25.2199C27.9483 23.7802 27.6319 22.0846 27.7516 20.4131C28.9813 19.0989 31.1874 18.0792 32.6781 17.6718C33.3377 17.4902 34.1574 17.3096 34.9598 17.2801C34.7884 18.2716 34.8004 19.2922 35.0457 20.302C34.6759 20.823 34.3388 21.3622 34.0564 21.9091C33.3444 23.2928 32.9063 24.9203 33.229 26.4236C32.801 26.8281 32.4386 27.2817 32.1288 27.7784C31.0081 27.4791 29.5724 26.3835 28.845 25.2199ZM45.5498 17.4289C42.7239 18.389 40.6643 20.9083 39.9183 23.7525C39.7596 23.6969 39.6037 23.6316 39.451 23.563C39.7708 22.6051 39.9352 21.5947 39.8632 20.5985C39.7982 19.714 39.5473 18.8228 39.1056 18.0628C40.9713 16.5325 43.2887 16.5333 45.5498 17.4289ZM43.0231 30.689C42.923 30.7563 42.8228 30.8236 42.7163 30.8911C41.8096 29.8257 41.2231 28.5254 41.0247 27.141C42.1029 27.9826 42.8618 29.2252 43.0231 30.689ZM35.5394 28.5915C36.6234 27.9895 37.5227 27.035 38.2214 26.0167C38.7029 26.0585 39.1678 26.1777 39.612 26.3455C39.6645 28.2834 40.3561 30.0947 41.5389 31.5731C39.5901 32.2515 36.6823 30.7817 35.5394 28.5915ZM34.7573 26.9432C35.2294 26.6109 35.7648 26.3501 36.3642 26.1864C35.9907 26.6915 35.4213 27.0815 34.9124 27.367C34.8532 27.2249 34.8037 27.0857 34.7573 26.9432ZM37.4776 24.652C36.6273 24.6862 35.1968 24.8836 34.4879 25.5022C34.4465 24.2744 34.9283 22.8984 35.6457 21.8666C36.149 22.8391 36.8696 23.6125 37.7309 24.1891C37.6465 24.3455 37.5622 24.5019 37.4776 24.652ZM38.249 22.8471C37.4965 22.2668 36.8978 21.5023 36.5428 20.5633C37.0002 19.9818 37.5163 19.4368 38.0627 18.9323C38.5571 19.9275 38.6177 21.6315 38.249 22.8471ZM36.1918 18.8849C36.162 18.3801 36.1999 17.8892 36.2862 17.4127C36.6222 17.5041 36.9376 17.6506 37.204 17.8627C36.8532 18.1846 36.5158 18.5254 36.1918 18.8849ZM34.2699 29.1005C35.3879 31.7876 39.6525 34.2915 42.5085 32.6103C42.6077 32.7031 42.7035 32.7928 42.8088 32.8789C42.0402 35.3366 39.5771 37.0882 37.1202 37.7929C36.114 38.0843 35.0792 38.2663 34.0337 38.3358C33.137 36.8961 32.4267 35.2902 32.2096 33.5946C32.0229 32.138 32.2519 30.575 32.8791 29.2421C33.2669 29.2582 33.9578 29.1491 34.2699 29.1005ZM44.3496 32.3451C44.5002 31.78 44.7705 31.2527 45.1074 30.7999C45.5729 30.1765 46.1979 30.012 46.414 29.9665C47.9485 29.6249 48.9219 31.6318 49.3194 32.7902C49.4191 33.0878 49.4963 33.383 49.5575 33.6818C47.8858 33.8455 46.016 33.6379 44.3496 32.3451ZM47.9266 28.8799C47.7577 28.8086 47.5829 28.7503 47.4119 28.7079L47.7839 28.35C47.8219 28.528 47.8727 28.7056 47.9266 28.8799ZM50.7707 32.8291C51.0094 32.9781 51.254 33.1141 51.5106 33.2241C51.3114 33.2978 51.1087 33.3621 50.8994 33.4202C50.8672 33.2228 50.8221 33.0258 50.7707 32.8291ZM50.5695 21.7293C49.1608 22.8573 47.7365 24.9493 47.6442 26.5782C46.9548 27.3018 44.3209 29.6863 44.2273 29.7597C44.1416 29.4009 44.0336 29.0459 43.884 28.6892C43.2763 27.2784 42.2344 26.1859 40.9852 25.4939C40.9877 25.4714 40.9919 25.4073 40.9948 25.3976C42.4388 25.6031 43.9544 25.4606 45.2987 24.9844C47.5129 24.2012 49.4057 22.622 50.5223 20.6138C50.5988 20.9826 50.6082 21.3567 50.5695 21.7293ZM43.3988 24.0737C42.6759 24.1838 41.9428 24.1791 41.2287 24.0744C41.8512 21.7463 43.4796 19.6349 45.7653 18.7886C47.0298 18.3182 48.6583 18.3 49.6847 19.217C48.6283 21.7769 46.1595 23.6471 43.3988 24.0737ZM50.1025 17.843C49.2778 17.3067 48.2845 17.0832 47.2931 17.1093C45.9607 15.3734 41.7272 14.2672 38.2501 16.9898C37.8088 16.5844 37.2778 16.2892 36.7007 16.1284C36.6877 16.1224 36.6749 16.1228 36.6588 16.1202C37.4568 14.1544 39.1633 12.5557 41.119 11.605C42.1835 11.09 43.7562 10.5551 45.1143 10.773C46.8328 11.0495 48.4539 12.139 49.4073 13.6441C50.2014 14.8887 50.3808 16.4127 50.1025 17.843ZM41.029 10.1708C40.0854 10.5698 39.1874 11.0858 38.3737 11.7302C36.9738 12.8355 35.8969 14.3112 35.3115 15.9371C34.0075 15.8999 32.6451 16.2166 31.4744 16.6199C30.3006 17.0264 29.1542 17.5825 28.1352 18.3073C28.2672 17.8549 28.4285 17.4175 28.6191 16.9952C30.7669 12.2485 35.9875 10.0673 41.029 10.1708ZM27.5751 36.2623C25.1906 33.796 24.2932 30.4359 24.6581 27.1112C24.8516 25.3477 25.7725 22.8529 26.4412 22.0852C26.6668 24.3151 27.6126 26.451 29.4211 27.8768C30.0491 28.3715 30.7568 28.7612 31.5041 28.9959C30.7618 30.8095 30.6347 32.9261 31.0664 34.8163C31.3479 36.0458 31.8389 37.2235 32.4554 38.3267C30.6268 38.2011 28.8719 37.6057 27.5751 36.2623ZM40.4865 42.5155C38.8785 42.3858 36.1895 41.4242 34.8922 39.5911C36.5858 39.4107 38.2612 38.9781 39.7713 38.1988C41.08 37.5203 42.2035 36.5332 43.0448 35.3229C43.4543 37.025 44.3766 38.656 45.4465 40.01C45.6972 40.325 45.9598 40.6141 46.2405 40.8705C44.5607 42.0298 42.5374 42.6819 40.4865 42.5155ZM58.2494 33.9249C57.2849 35.5057 56.0866 36.9917 54.7305 38.2556C53.4736 39.4267 51.898 40.541 50.1699 40.8377C49.5717 40.9405 49.0386 40.8876 48.5498 40.7276C49.0576 40.218 49.5125 39.659 49.8891 39.0577C50.685 37.7897 51.0632 36.2858 51.0417 34.7918C51.9748 34.5564 52.8837 34.1745 53.7337 33.6569C55.878 33.6506 57.8439 32.6227 59.5244 31.2969C59.1903 32.2105 58.7528 33.0954 58.2494 33.9249ZM60.1245 28.9664C58.956 30.1025 57.5663 31.2235 56.0089 31.8347C57.9239 29.8675 59.2997 26.9066 59.5804 24.3144C60.2235 25.8264 60.3475 27.4163 60.1245 28.9664ZM56.6498 16.1847C57.4558 17.4962 57.9662 18.9646 58.206 20.477C57.5546 20.0471 56.8216 19.7639 56.0264 19.7195C54.638 19.6467 53.1656 20.1206 51.906 20.8309C51.8353 20.1579 51.6213 19.5055 51.2275 18.9327C51.4581 18.1762 51.5879 17.375 51.589 16.5524C51.5882 14.7248 50.8796 12.9781 49.5689 11.696C49.1816 11.315 48.7479 10.9835 48.2932 10.6944C51.6745 11.3004 54.8448 13.2449 56.6498 16.1847Z" fill="#19184A"/>
<g id="Group 1000004307" filter="url(#filter0_d_725_10319)">
<rect id="Rectangle 34624147" x="11.6016" y="13.999" width="44.9091" height="26" rx="2" fill="white"/>
<path id="Rectangle 34624148" d="M14.6611 23.1387C14.6611 22.0341 15.5566 21.1387 16.6611 21.1387H25.6611C26.7657 21.1387 27.6611 22.0341 27.6611 23.1387V35.923H14.6611V23.1387Z" fill="#19184A"/>
<path id="Rectangle 34624149" d="M14.6611 35.9213C14.6611 32.8242 17.1719 30.3135 20.269 30.3135H22.0533C25.1504 30.3135 27.6611 32.8242 27.6611 35.9213H14.6611Z" fill="#558BFF"/>
<rect id="Rectangle 34624150" x="15.3164" y="17.7129" width="31.5714" height="1.85714" fill="#9DD3FF"/>
<rect id="Rectangle 34624153" x="48.7451" y="17.7129" width="3.71429" height="1.85714" fill="#9DD3FF"/>
<rect id="Rectangle 34624156" x="30.1729" y="23.2852" width="22.2857" height="1.85714" fill="#9DD3FF"/>
<rect id="Rectangle 34624164" x="30.1729" y="28.8574" width="22.2857" height="1.85714" fill="#9DD3FF"/>
<rect id="Rectangle 34624165" x="30.1729" y="34.4268" width="22.2857" height="1.85714" fill="#9DD3FF"/>
<circle id="Ellipse 67" cx="21.1535" cy="26.0002" r="3.18378" fill="white"/>
</g>
<g id="Group 1000005353">
<g id="Group 10">
<rect id="Rectangle 2554" x="49.1475" y="6.99902" width="13" height="13" rx="6.5" fill="#FB6E4F"/>
</g>
<path id="Vector 117" d="M52.9707 10.8232L58.3236 16.1762" stroke="white" stroke-width="2"/>
<path id="Vector 118" d="M58.3242 10.8232L52.9713 16.1762" stroke="white" stroke-width="2"/>
</g>
</g>
<defs>
<filter id="filter0_d_725_10319" x="9.60156" y="11.999" width="48.9092" height="30" filterUnits="userSpaceOnUse" color-interpolation-filters="sRGB">
<feFlood flood-opacity="0" result="BackgroundImageFix"/>
<feColorMatrix in="SourceAlpha" type="matrix" values="0 0 0 0 0 0 0 0 0 0 0 0 0 0 0 0 0 0 127 0" result="hardAlpha"/>
<feOffset/>
<feGaussianBlur stdDeviation="1"/>
<feComposite in2="hardAlpha" operator="out"/>
<feColorMatrix type="matrix" values="0 0 0 0 0 0 0 0 0 0 0 0 0 0 0 0 0 0 0.25 0"/>
<feBlend mode="normal" in2="BackgroundImageFix" result="effect1_dropShadow_725_10319"/>
<feBlend mode="normal" in="SourceGraphic" in2="effect1_dropShadow_725_10319" result="shape"/>
</filter>
</defs>
</svg>
