<svg width="480" height="267" viewBox="0 0 480 267" fill="none" xmlns="http://www.w3.org/2000/svg">
<g filter="url(#filter0_b_141_1137)">
<path d="M17.6744 227.569L3.10067 235.897C1.18329 236.992 -0.0359606 239.047 0.137987 241.249C1.53052 258.873 13.0793 264.905 17.207 266.51C18.1562 266.879 19.1771 266.879 20.1263 266.51C24.254 264.905 35.8028 258.873 37.1953 241.249C37.3693 239.047 36.15 236.992 34.2327 235.897L19.6589 227.569C19.0441 227.218 18.2893 227.218 17.6744 227.569Z" fill="#E9E9E9"/>
</g>
<path d="M16.9376 250.791C16.9835 250.837 17.0458 250.863 17.1107 250.863C17.1756 250.863 17.2378 250.837 17.2837 250.791L25.2029 242.872C25.8883 242.186 26.9997 242.186 27.6852 242.872C28.3706 243.557 28.3706 244.669 27.6852 245.354L18.3518 254.688C18.0226 255.017 17.5762 255.202 17.1107 255.202C16.6452 255.202 16.1987 255.017 15.8695 254.688L10.5362 249.354C9.85074 248.669 9.85074 247.557 10.5362 246.872C11.2217 246.186 12.333 246.186 13.0185 246.872L16.9376 250.791Z" fill="url(#paint0_linear_141_1137)" fill-opacity="0.9" stroke="url(#paint1_linear_141_1137)" stroke-width="0.489516" stroke-linecap="round" stroke-linejoin="round"/>
<path fill-rule="evenodd" clip-rule="evenodd" d="M404.261 8.08291C400.665 8.96834 398.468 12.6015 399.353 16.1978L402.559 29.2211C402.855 30.4199 402.122 31.6309 400.923 31.9261C399.724 32.2212 398.513 31.4887 398.218 30.2899L395.012 17.2666C393.536 11.2728 397.199 5.21751 403.193 3.7418C409.186 2.26608 415.242 5.92873 416.717 11.9226L419.924 24.9459C420.219 26.1447 419.486 27.3557 418.288 27.6509C417.089 27.946 415.878 27.2135 415.583 26.0147L412.376 12.9914C411.491 9.39507 407.858 7.19748 404.261 8.08291Z" fill="#CFCFCF"/>
<g filter="url(#filter1_b_141_1137)">
<rect x="391.207" y="20.5044" width="31.2953" height="24.5891" rx="4" transform="rotate(-13.8315 391.207 20.5044)" fill="#E9E9E9"/>
<rect x="391.579" y="20.7296" width="30.6799" height="23.9737" rx="3.69231" transform="rotate(-13.8315 391.579 20.7296)" stroke="url(#paint2_linear_141_1137)" stroke-width="0.615382"/>
</g>
<g filter="url(#filter2_b_141_1137)">
<rect x="411.547" y="24.0378" width="10.0229" height="6.68194" rx="3.34097" transform="rotate(76.1685 411.547 24.0378)" fill="white"/>
<rect x="411.368" y="24.3339" width="9.53339" height="6.19242" rx="3.09621" transform="rotate(76.1685 411.368 24.3339)" stroke="url(#paint3_linear_141_1137)" stroke-width="0.489516"/>
</g>
<path d="M240.833 92.9205C242.488 93.9173 243.105 95.5793 243.595 97.2995C244.301 99.7791 244.444 102.326 244.368 104.889C244.275 107.532 243.932 110.161 243.344 112.739C243.328 112.804 243.311 112.871 243.29 112.955L228.619 109.247C228.62 109.189 228.626 109.131 228.637 109.075C229.816 104.973 231.421 101.066 233.91 97.5662C234.951 96.1004 236.116 94.75 237.62 93.7242C238.421 93.1738 239.287 92.8044 240.282 92.7812L240.833 92.9205Z" fill="#E9E9E9"/>
<path d="M230.568 131.206C228.913 130.211 228.296 128.547 227.806 126.828C227.101 124.351 226.958 121.802 227.032 119.239C227.11 117.005 227.368 114.782 227.805 112.59C227.824 112.515 227.843 112.439 227.867 112.343L242.48 116.036C242.301 116.584 242.134 117.13 241.946 117.668C241.155 119.989 240.142 122.228 238.92 124.354C237.829 126.221 236.588 127.975 234.984 129.447C234.132 130.229 233.215 130.917 232.069 131.212C231.758 131.275 231.442 131.32 231.125 131.347L230.568 131.206Z" fill="#E9E9E9"/>
<path d="M246.289 95.3352C253.68 99.9326 256.733 108.821 255.091 115.939L246.362 113.733C246.439 113.351 246.518 112.964 246.598 112.576C247.424 108.541 247.783 104.473 247.362 100.365C247.206 98.729 246.87 97.1148 246.36 95.552C246.341 95.4953 246.323 95.4391 246.289 95.3352Z" fill="#E9E9E9"/>
<path d="M237.121 131.811C237.675 131.22 238.241 130.656 238.76 130.05C240.377 128.168 241.663 126.066 242.768 123.85C243.872 121.621 244.785 119.301 245.497 116.918C245.51 116.88 245.525 116.843 245.541 116.808L254.216 119C252.101 125.338 245.438 131.302 237.121 131.811Z" fill="#E9E9E9"/>
<path d="M225.112 128.815C222.087 126.909 219.64 124.213 218.034 121.018C216.173 117.345 215.533 113.46 216.07 109.359L224.785 111.562C224.678 112.152 224.564 112.739 224.468 113.329C223.782 117.518 223.57 121.708 224.36 125.905C224.529 126.808 224.812 127.689 225.044 128.58C225.055 128.639 225.076 128.69 225.112 128.815Z" fill="#E9E9E9"/>
<path d="M234.279 92.326C233.097 93.4606 232.035 94.7136 231.109 96.0653C229.749 98.0522 228.593 100.171 227.657 102.388C226.836 104.317 226.141 106.297 225.577 108.315C225.565 108.364 225.542 108.409 225.522 108.463L216.762 106.248C217.917 102.554 219.933 99.4552 222.876 96.9673C226.075 94.2287 230.076 92.6003 234.279 92.326Z" fill="#E9E9E9"/>
<g filter="url(#filter3_b_141_1137)">
<path d="M41.7438 64.1067C40.4392 59.2377 39.7869 56.8033 40.1051 54.6732C40.4925 52.0802 41.849 49.7307 43.9009 48.0987C45.5865 46.758 48.021 46.1057 52.8899 44.8011L63.0405 42.0813C67.9094 40.7766 70.3439 40.1243 72.4739 40.4426C75.0669 40.83 77.4165 42.1865 79.0484 44.2384C80.3891 45.9239 81.0414 48.3584 82.346 53.2274C83.6507 58.0963 84.303 60.5308 83.9847 62.6608C83.5973 65.2538 82.2408 67.6034 80.1889 69.2354C78.5034 70.576 76.0689 71.2283 71.1999 72.5329L61.0494 75.2528C56.1805 76.5574 53.746 77.2097 51.6159 76.8915C49.0229 76.5041 46.6734 75.1476 45.0414 73.0957C43.7008 71.4101 43.0484 68.9756 41.7438 64.1067Z" fill="#E9E9E9"/>
<path d="M42.0393 64.0275C41.3859 61.5888 40.9001 59.7752 40.6163 58.3049C40.333 56.8374 40.2558 55.7348 40.4077 54.7184C40.7837 52.202 42.1001 49.9219 44.0914 48.3381C44.8957 47.6984 45.8891 47.2139 47.3016 46.7255C48.7169 46.2362 50.5304 45.7501 52.9691 45.0966L63.1196 42.3768C65.5583 41.7233 67.3719 41.2376 68.8423 40.9537C70.3097 40.6705 71.4123 40.5933 72.4287 40.7452C74.9451 41.1211 77.2252 42.4375 78.809 44.4288C79.4487 45.2331 79.9332 46.2266 80.4216 47.6391C80.9109 49.0543 81.3971 50.8678 82.0505 53.3065C82.704 55.7452 83.1897 57.5588 83.4736 59.0292C83.7568 60.4966 83.834 61.5992 83.6821 62.6156C83.3062 65.132 81.9898 67.4121 79.9985 68.9959C79.1942 69.6356 78.2007 70.1201 76.7882 70.6085C75.373 71.0979 73.5595 71.584 71.1208 72.2374L60.9702 74.9572C58.5315 75.6107 56.7179 76.0965 55.2476 76.3803C53.7801 76.6636 52.6775 76.7407 51.6611 76.5889C49.1447 76.2129 46.8646 74.8965 45.2808 72.9052C44.6411 72.1009 44.1566 71.1074 43.6682 69.695C43.1789 68.2797 42.6928 66.4662 42.0393 64.0275Z" stroke="url(#paint4_linear_141_1137)" stroke-width="0.611895"/>
</g>
<path fill-rule="evenodd" clip-rule="evenodd" d="M60.5165 52.9612C57.3632 53.8061 55.4918 57.0474 56.3368 60.2008C57.1817 63.3541 60.423 65.2255 63.5764 64.3806C66.7297 63.5356 68.6011 60.2943 67.7561 57.141C66.9112 53.9876 63.6699 52.1162 60.5165 52.9612ZM52.5303 61.2207C51.1221 55.9651 54.241 50.563 59.4966 49.1547C64.7522 47.7465 70.1544 50.8654 71.5626 56.121C72.9708 61.3766 69.8519 66.7788 64.5963 68.187C59.3407 69.5953 53.9386 66.4763 52.5303 61.2207Z" fill="white" fill-opacity="0.9"/>
<rect x="69.4805" y="45.8023" width="5.25431" height="2.62716" rx="1.31358" transform="rotate(-15 69.4805 45.8023)" fill="white" fill-opacity="0.9"/>
<g filter="url(#filter4_b_141_1137)">
<path d="M459.674 216.569L445.101 224.897C443.183 225.992 441.964 228.047 442.138 230.249C443.531 247.873 455.079 253.905 459.207 255.51C460.156 255.879 461.177 255.879 462.126 255.51C466.254 253.905 477.803 247.873 479.195 230.249C479.369 228.047 478.15 225.992 476.233 224.897L461.659 216.569C461.044 216.218 460.289 216.218 459.674 216.569Z" fill="#E9E9E9"/>
</g>
<path d="M458.938 239.791C458.984 239.837 459.046 239.863 459.111 239.863C459.176 239.863 459.238 239.837 459.284 239.791L467.203 231.872C467.888 231.186 469 231.186 469.685 231.872C470.371 232.557 470.371 233.669 469.685 234.354L460.352 243.688C460.023 244.017 459.576 244.202 459.111 244.202C458.645 244.202 458.199 244.017 457.87 243.688L452.536 238.354C451.851 237.669 451.851 236.557 452.536 235.872C453.222 235.186 454.333 235.186 455.018 235.872L458.938 239.791Z" fill="url(#paint5_linear_141_1137)" fill-opacity="0.9" stroke="url(#paint6_linear_141_1137)" stroke-width="0.489516" stroke-linecap="round" stroke-linejoin="round"/>
<defs>
<filter id="filter0_b_141_1137" x="-12.1865" y="214.998" width="61.7051" height="64.0962" filterUnits="userSpaceOnUse" color-interpolation-filters="sRGB">
<feFlood flood-opacity="0" result="BackgroundImageFix"/>
<feGaussianBlur in="BackgroundImageFix" stdDeviation="6.15382"/>
<feComposite in2="SourceAlpha" operator="in" result="effect1_backgroundBlur_141_1137"/>
<feBlend mode="normal" in="SourceGraphic" in2="effect1_backgroundBlur_141_1137" result="shape"/>
</filter>
<filter id="filter1_b_141_1137" x="379.86" y="1.67482" width="58.959" height="54.0537" filterUnits="userSpaceOnUse" color-interpolation-filters="sRGB">
<feFlood flood-opacity="0" result="BackgroundImageFix"/>
<feGaussianBlur in="BackgroundImageFix" stdDeviation="6.15382"/>
<feComposite in2="SourceAlpha" operator="in" result="effect1_backgroundBlur_141_1137"/>
<feBlend mode="normal" in="SourceGraphic" in2="effect1_backgroundBlur_141_1137" result="shape"/>
</filter>
<filter id="filter2_b_141_1137" x="381.143" y="0.123539" width="56.7149" height="59.1581" filterUnits="userSpaceOnUse" color-interpolation-filters="sRGB">
<feFlood flood-opacity="0" result="BackgroundImageFix"/>
<feGaussianBlur in="BackgroundImageFix" stdDeviation="12.3076"/>
<feComposite in2="SourceAlpha" operator="in" result="effect1_backgroundBlur_141_1137"/>
<feBlend mode="normal" in="SourceGraphic" in2="effect1_backgroundBlur_141_1137" result="shape"/>
</filter>
<filter id="filter3_b_141_1137" x="26.9667" y="27.3061" width="70.1565" height="62.7219" filterUnits="userSpaceOnUse" color-interpolation-filters="sRGB">
<feFlood flood-opacity="0" result="BackgroundImageFix"/>
<feGaussianBlur in="BackgroundImageFix" stdDeviation="6.52838"/>
<feComposite in2="SourceAlpha" operator="in" result="effect1_backgroundBlur_141_1137"/>
<feBlend mode="normal" in="SourceGraphic" in2="effect1_backgroundBlur_141_1137" result="shape"/>
</filter>
<filter id="filter4_b_141_1137" x="429.813" y="203.998" width="61.7051" height="64.0962" filterUnits="userSpaceOnUse" color-interpolation-filters="sRGB">
<feFlood flood-opacity="0" result="BackgroundImageFix"/>
<feGaussianBlur in="BackgroundImageFix" stdDeviation="6.15382"/>
<feComposite in2="SourceAlpha" operator="in" result="effect1_backgroundBlur_141_1137"/>
<feBlend mode="normal" in="SourceGraphic" in2="effect1_backgroundBlur_141_1137" result="shape"/>
</filter>
<linearGradient id="paint0_linear_141_1137" x1="12.6944" y1="247.197" x2="41.8616" y2="250.644" gradientUnits="userSpaceOnUse">
<stop stop-color="white"/>
<stop offset="1" stop-color="white" stop-opacity="0"/>
</linearGradient>
<linearGradient id="paint1_linear_141_1137" x1="10.308" y1="244.015" x2="22.2401" y2="247.992" gradientUnits="userSpaceOnUse">
<stop stop-color="white"/>
<stop offset="1" stop-color="white" stop-opacity="0"/>
</linearGradient>
<linearGradient id="paint2_linear_141_1137" x1="389.642" y1="22.2608" x2="405.42" y2="52.9301" gradientUnits="userSpaceOnUse">
<stop stop-color="white"/>
<stop offset="0.765625" stop-color="white" stop-opacity="0"/>
</linearGradient>
<linearGradient id="paint3_linear_141_1137" x1="413.759" y1="32.3092" x2="420.071" y2="23.1736" gradientUnits="userSpaceOnUse">
<stop stop-color="white"/>
<stop offset="1" stop-color="white" stop-opacity="0"/>
</linearGradient>
<linearGradient id="paint4_linear_141_1137" x1="35.5047" y1="52.4266" x2="93.9023" y2="73.1577" gradientUnits="userSpaceOnUse">
<stop stop-color="white"/>
<stop offset="1" stop-color="white" stop-opacity="0"/>
</linearGradient>
<linearGradient id="paint5_linear_141_1137" x1="454.694" y1="236.197" x2="483.862" y2="239.644" gradientUnits="userSpaceOnUse">
<stop stop-color="white"/>
<stop offset="1" stop-color="white" stop-opacity="0"/>
</linearGradient>
<linearGradient id="paint6_linear_141_1137" x1="452.308" y1="233.015" x2="464.24" y2="236.992" gradientUnits="userSpaceOnUse">
<stop stop-color="white"/>
<stop offset="1" stop-color="white" stop-opacity="0"/>
</linearGradient>
</defs>
</svg>
