<svg width="48" height="48" viewBox="0 0 48 48" fill="none" xmlns="http://www.w3.org/2000/svg">
<g id="Frame 1410086606">
<g id="Group 2608557">
<path id="Vector" d="M7.63159 42.4615V4C7.63159 1.79086 9.42245 0 11.6316 0H34.8839L43.968 8.30769V42.4615C43.968 43.9304 43.3938 45.3392 42.3716 46.3778C41.3495 47.4165 39.9631 48 38.5176 48V47.9612C37.0821 47.9612 35.7055 47.3818 34.6905 46.3504C33.6755 45.319 33.1053 43.9201 33.1053 42.4615H7.63159Z" fill="#BAE0FF"/>
<rect id="Shape 3" x="14.809" y="12.5625" width="21.9813" height="0.897196" fill="white"/>
<rect id="Shape 4" x="14.809" y="16.1484" width="21.9813" height="0.897196" fill="white"/>
<rect id="Shape 5" x="14.8091" y="19.7422" width="21.9813" height="0.897196" fill="white"/>
<rect id="Shape 6" x="14.8091" y="23.3281" width="21.9813" height="0.897196" fill="white"/>
<rect id="Shape 7" x="14.809" y="26.918" width="21.9813" height="0.897196" fill="white"/>
<rect id="Shape 8" x="14.809" y="30.5039" width="21.9813" height="0.897196" fill="white"/>
<rect id="Shape 9" x="14.8091" y="34.5391" width="21.9813" height="0.897196" fill="white"/>
<rect id="Shape 10" x="14.809" y="38.5781" width="21.9813" height="0.897196" fill="white"/>
<path id="Vector_2" d="M43.9679 8.30769H43.2061C38.6179 8.30769 34.8984 4.58821 34.8984 0L43.9679 8.30769ZM38.5262 48H7.68998C6.24676 48 4.86264 47.4165 3.84213 46.3778C2.82161 45.3392 2.24829 43.9304 2.24829 42.4615H33.1226C33.1226 43.9201 33.6919 45.319 34.7053 46.3504C35.7187 47.3818 37.0931 47.9612 38.5262 47.9612V48Z" fill="#3269F0"/>
</g>
</g>
</svg>
