<svg width="24" height="24" viewBox="0 0 24 24" fill="none" xmlns="http://www.w3.org/2000/svg">
<g id="Frame">
<g id="Group">
<path id="Vector" d="M23.5861 19.7241H0.413812C0.304066 19.7241 0.198818 19.6805 0.121216 19.6029C0.0436143 19.5253 1.24295e-05 19.4201 0 19.3103L0 4.41381C1.24295e-05 4.30407 0.0436143 4.19882 0.121216 4.12122C0.198818 4.04361 0.304066 4.00001 0.413812 4H23.5862C23.6959 4.00001 23.8012 4.04361 23.8788 4.12122C23.9564 4.19882 24 4.30407 24 4.41381V19.3103C24 19.4201 23.9564 19.5253 23.8788 19.6029C23.8011 19.6805 23.6959 19.7241 23.5861 19.7241Z" fill="#F5F5F5"/>
<path id="Vector_2" d="M24 5.20961H0V4.41381C1.24295e-05 4.30407 0.0436143 4.19882 0.121216 4.12122C0.198818 4.04361 0.304066 4.00001 0.413812 4H23.5862C23.6959 4.00001 23.8012 4.04361 23.8788 4.12122C23.9564 4.19882 24 4.30407 24 4.41381L24 5.20961ZM0 8.83819H24V10.0478H0V8.83819ZM0 6.41898H24V7.62854H0V6.41898ZM24 12.4669H0.413812C0.304066 12.4669 0.198818 12.4233 0.121216 12.3457C0.0436143 12.2681 1.24295e-05 12.1628 0 12.0531L0 11.2573H24V12.4669ZM0 16.0958H24V17.3054H0V16.0958ZM23.5861 19.7241H0.413812C0.304066 19.7241 0.198818 19.6805 0.121216 19.6029C0.0436143 19.5253 1.24295e-05 19.4201 0 19.3103L0 18.5146H24V19.3104C23.9999 19.4201 23.9563 19.5254 23.8787 19.603C23.8011 19.6805 23.6959 19.7241 23.5861 19.7241ZM0 13.6766H24V14.8862H0V13.6766Z" fill="#FF4B55"/>
<path id="Vector_3" d="M10.7586 4.00005H0.413812C0.30407 4.00005 0.198823 4.04364 0.121219 4.12123C0.0436158 4.19883 1.24311e-05 4.30407 0 4.41381L0 12.053C1.24295e-05 12.1628 0.0436143 12.268 0.121216 12.3456C0.198818 12.4232 0.304066 12.4668 0.413812 12.4668H10.7586C10.8684 12.4668 10.9736 12.4232 11.0512 12.3456C11.1288 12.268 11.1724 12.1628 11.1724 12.053V4.41381C11.1724 4.30407 11.1288 4.19883 11.0512 4.12124C10.9736 4.04365 10.8683 4.00006 10.7586 4.00005Z" fill="#41479B"/>
<path id="Vector_4" d="M1.16186 4.95051L1.25345 5.2252L1.543 5.2274C1.5805 5.22773 1.59602 5.27554 1.56587 5.29781L1.33295 5.46984L1.42033 5.74588C1.43167 5.7816 1.39094 5.81123 1.36042 5.78938L1.12488 5.62106L0.889329 5.78943C0.858813 5.81123 0.818173 5.78165 0.829423 5.74593L0.916798 5.46989L0.683876 5.29785C0.653736 5.27554 0.669251 5.22778 0.706751 5.22745L0.996297 5.22525L1.08789 4.95056C1.0997 4.91493 1.14995 4.91493 1.16186 4.95051ZM1.16186 6.38742L1.25345 6.6621L1.543 6.66431C1.5805 6.66463 1.59602 6.71245 1.56587 6.73471L1.33295 6.90674L1.42033 7.18279C1.43167 7.21851 1.39094 7.24813 1.36042 7.22629L1.12488 7.05796L0.889329 7.22634C0.858813 7.24813 0.818173 7.21855 0.829423 7.18284L0.916798 6.90679L0.683876 6.73476C0.653736 6.71245 0.669251 6.66468 0.706751 6.66435L0.996297 6.66215L1.08789 6.38746C1.0997 6.35188 1.14995 6.35188 1.16186 6.38742ZM1.16186 7.82432L1.25345 8.09901L1.543 8.10121C1.5805 8.10154 1.59602 8.14935 1.56587 8.17162L1.33295 8.34365L1.42033 8.61969C1.43167 8.65541 1.39094 8.68504 1.36042 8.66319L1.12488 8.49486L0.889329 8.66324C0.858813 8.68504 0.818173 8.65546 0.829423 8.61974L0.916798 8.34369L0.683876 8.17166C0.653736 8.14935 0.669251 8.10158 0.706751 8.10126L0.996297 8.09905L1.08789 7.82437C1.0997 7.78879 1.14995 7.78879 1.16186 7.82432ZM1.16186 9.26127L1.25345 9.53596L1.543 9.53816C1.5805 9.53849 1.59602 9.5863 1.56587 9.60857L1.33295 9.7806L1.42033 10.0566C1.43167 10.0924 1.39094 10.122 1.36042 10.1001L1.12488 9.93181L0.889329 10.1002C0.858813 10.122 0.818173 10.0924 0.829423 10.0567L0.916798 9.78064L0.683876 9.60861C0.653736 9.5863 0.669251 9.53853 0.706751 9.53821L0.996297 9.536L1.08789 9.26132C1.0997 9.22569 1.14995 9.22569 1.16186 9.26127ZM1.16186 10.6982L1.25345 10.9729L1.543 10.9751C1.5805 10.9754 1.59602 11.0232 1.56587 11.0455L1.33295 11.2175L1.42033 11.4935C1.43167 11.5293 1.39094 11.5589 1.36042 11.537L1.12488 11.3687L0.889329 11.5371C0.858813 11.5589 0.818173 11.5293 0.829423 11.4936L0.916798 11.2175L0.683876 11.0455C0.653736 11.0232 0.669251 10.9754 0.706751 10.9751L0.996297 10.9729L1.08789 10.6982C1.0997 10.6625 1.14995 10.6625 1.16186 10.6982ZM2.27715 5.65499L2.36875 5.92968L2.65829 5.93188C2.69579 5.93221 2.71131 5.98003 2.68117 6.00229L2.44825 6.17432L2.53562 6.45037C2.54697 6.48609 2.50623 6.51571 2.47572 6.49387L2.24017 6.32549L2.00462 6.49387C1.97411 6.51566 1.93347 6.48609 1.94472 6.45037L2.03209 6.17432L1.79917 6.00229C1.76903 5.97998 1.78455 5.93221 1.82205 5.93188L2.11159 5.92968L2.20319 5.65499C2.21495 5.61946 2.2653 5.61946 2.27715 5.65499ZM2.27715 7.09194L2.36875 7.36663L2.65829 7.36883C2.69579 7.36916 2.71131 7.41698 2.68117 7.43924L2.44825 7.61127L2.53562 7.88732C2.54697 7.92304 2.50623 7.95266 2.47572 7.93082L2.24017 7.76244L2.00462 7.93082C1.97411 7.95262 1.93347 7.92308 1.94472 7.88732L2.03209 7.61127L1.79917 7.43924C1.76903 7.41693 1.78455 7.36916 1.82205 7.36883L2.11159 7.36663L2.20319 7.09194C2.21495 7.05637 2.2653 7.05637 2.27715 7.09194ZM2.27715 8.52885L2.36875 8.80354L2.65829 8.80574C2.69579 8.80607 2.71131 8.85388 2.68117 8.87614L2.44825 9.04818L2.53562 9.32422C2.54697 9.35994 2.50623 9.38957 2.47572 9.36772L2.24017 9.19935L2.00462 9.36772C1.97411 9.38952 1.93347 9.35994 1.94472 9.32422L2.03209 9.04818L1.79917 8.87614C1.76903 8.85383 1.78455 8.80607 1.82205 8.80574L2.11159 8.80354L2.20319 8.52885C2.21495 8.49327 2.2653 8.49327 2.27715 8.52885ZM2.27715 9.96575L2.36875 10.2404L2.65829 10.2426C2.69579 10.243 2.71131 10.2908 2.68117 10.313L2.44825 10.4851L2.53562 10.7611C2.54697 10.7968 2.50623 10.8265 2.47572 10.8046L2.24017 10.6363L2.00462 10.8046C1.97411 10.8264 1.93347 10.7968 1.94472 10.7611L2.03209 10.4851L1.79917 10.313C1.76903 10.2907 1.78455 10.243 1.82205 10.2426L2.11159 10.2404L2.20319 9.96575C2.21495 9.93022 2.2653 9.93022 2.27715 9.96575ZM3.39245 4.95051L3.48404 5.2252L3.77359 5.2274C3.81109 5.22773 3.82661 5.27554 3.79646 5.29781L3.56354 5.46984L3.65092 5.74588C3.66226 5.7816 3.62153 5.81123 3.59101 5.78938L3.35546 5.62101L3.11992 5.78938C3.0894 5.81118 3.04876 5.7816 3.06001 5.74588L3.14739 5.46984L2.91447 5.29781C2.88433 5.2755 2.89984 5.22773 2.93734 5.2274L3.22689 5.2252L3.31848 4.95051C3.33029 4.91493 3.38059 4.91493 3.39245 4.95051ZM3.39245 6.38742L3.48404 6.6621L3.77359 6.66431C3.81109 6.66463 3.82661 6.71245 3.79646 6.73471L3.56354 6.90674L3.65092 7.18279C3.66226 7.21851 3.62153 7.24813 3.59101 7.22629L3.35546 7.05791L3.11992 7.22629C3.0894 7.24809 3.04876 7.21851 3.06001 7.18279L3.14739 6.90674L2.91447 6.73471C2.88433 6.7124 2.89984 6.66463 2.93734 6.66431L3.22689 6.6621L3.31848 6.38742C3.33029 6.35188 3.38059 6.35188 3.39245 6.38742ZM3.39245 7.82432L3.48404 8.09901L3.77359 8.10121C3.81109 8.10154 3.82661 8.14935 3.79646 8.17162L3.56354 8.34365L3.65092 8.61969C3.66226 8.65541 3.62153 8.68504 3.59101 8.66319L3.35546 8.49482L3.11992 8.66319C3.0894 8.68499 3.04876 8.65541 3.06001 8.61969L3.14739 8.34365L2.91447 8.17162C2.88433 8.1493 2.89984 8.10154 2.93734 8.10121L3.22689 8.09901L3.31848 7.82432C3.33029 7.78879 3.38059 7.78879 3.39245 7.82432ZM3.39245 9.26127L3.48404 9.53596L3.77359 9.53816C3.81109 9.53849 3.82661 9.5863 3.79646 9.60857L3.56354 9.7806L3.65092 10.0566C3.66226 10.0924 3.62153 10.122 3.59101 10.1001L3.35546 9.93177L3.11992 10.1001C3.0894 10.1219 3.04876 10.0924 3.06001 10.0566L3.14739 9.7806L2.91447 9.60857C2.88433 9.58625 2.89984 9.53849 2.93734 9.53816L3.22689 9.53596L3.31848 9.26127C3.33029 9.22569 3.38059 9.22569 3.39245 9.26127ZM3.39245 10.6982L3.48404 10.9729L3.77359 10.9751C3.81109 10.9754 3.82661 11.0232 3.79646 11.0455L3.56354 11.2175L3.65092 11.4935C3.66226 11.5293 3.62153 11.5589 3.59101 11.537L3.35546 11.3687L3.11992 11.537C3.0894 11.5588 3.04876 11.5293 3.06001 11.4935L3.14739 11.2175L2.91447 11.0455C2.88433 11.0232 2.89984 10.9754 2.93734 10.9751L3.22689 10.9729L3.31848 10.6982C3.33029 10.6625 3.38059 10.6625 3.39245 10.6982ZM4.50779 5.65499L4.59938 5.92968L4.88893 5.93188C4.92643 5.93221 4.94195 5.98003 4.91181 6.00229L4.67888 6.17432L4.76626 6.45037C4.7776 6.48609 4.73687 6.51571 4.70635 6.49387L4.47081 6.32549L4.23526 6.49387C4.20475 6.51566 4.1641 6.48609 4.17535 6.45037L4.26273 6.17432L4.02981 6.00229C3.99967 5.97998 4.01518 5.93221 4.05268 5.93188L4.34223 5.92968L4.43382 5.65499C4.44559 5.61946 4.49593 5.61946 4.50779 5.65499ZM4.50779 7.09194L4.59938 7.36663L4.88893 7.36883C4.92643 7.36916 4.94195 7.41698 4.91181 7.43924L4.67888 7.61127L4.76626 7.88732C4.7776 7.92304 4.73687 7.95266 4.70635 7.93082L4.47081 7.76244L4.23526 7.93082C4.20475 7.95262 4.1641 7.92308 4.17535 7.88732L4.26273 7.61127L4.02981 7.43924C3.99967 7.41693 4.01518 7.36916 4.05268 7.36883L4.34223 7.36663L4.43382 7.09194C4.44559 7.05637 4.49593 7.05637 4.50779 7.09194ZM4.50779 8.52885L4.59938 8.80354L4.88893 8.80574C4.92643 8.80607 4.94195 8.85388 4.91181 8.87614L4.67888 9.04818L4.76626 9.32422C4.7776 9.35994 4.73687 9.38957 4.70635 9.36772L4.47081 9.19935L4.23526 9.36772C4.20475 9.38952 4.1641 9.35994 4.17535 9.32422L4.26273 9.04818L4.02981 8.87614C3.99967 8.85383 4.01518 8.80607 4.05268 8.80574L4.34223 8.80354L4.43382 8.52885C4.44559 8.49327 4.49593 8.49327 4.50779 8.52885ZM4.50779 9.96575L4.59938 10.2404L4.88893 10.2426C4.92643 10.243 4.94195 10.2908 4.91181 10.313L4.67888 10.4851L4.76626 10.7611C4.7776 10.7968 4.73687 10.8265 4.70635 10.8046L4.47081 10.6363L4.23526 10.8046C4.20475 10.8264 4.1641 10.7968 4.17535 10.7611L4.26273 10.4851L4.02981 10.313C3.99967 10.2907 4.01518 10.243 4.05268 10.2426L4.34223 10.2404L4.43382 9.96575C4.44559 9.93022 4.49593 9.93022 4.50779 9.96575ZM5.62309 4.95051L5.71468 5.2252L6.00423 5.2274C6.04173 5.22773 6.05724 5.27554 6.0271 5.29781L5.79418 5.46984L5.88155 5.74588C5.8929 5.7816 5.85216 5.81123 5.82165 5.78938L5.58605 5.62101L5.35051 5.78938C5.31999 5.81118 5.27935 5.7816 5.2906 5.74588L5.37798 5.46984L5.14506 5.29781C5.11491 5.2755 5.13043 5.22773 5.16793 5.2274L5.45748 5.2252L5.54907 4.95051C5.56093 4.91493 5.61123 4.91493 5.62309 4.95051ZM5.62309 6.38742L5.71468 6.6621L6.00423 6.66431C6.04173 6.66463 6.05724 6.71245 6.0271 6.73471L5.79418 6.90674L5.88155 7.18279C5.8929 7.21851 5.85216 7.24813 5.82165 7.22629L5.58605 7.05791L5.35051 7.22629C5.31999 7.24809 5.27935 7.21851 5.2906 7.18279L5.37798 6.90674L5.14506 6.73471C5.11491 6.7124 5.13043 6.66463 5.16793 6.66431L5.45748 6.6621L5.54907 6.38742C5.56093 6.35188 5.61123 6.35188 5.62309 6.38742ZM5.62309 7.82432L5.71468 8.09901L6.00423 8.10121C6.04173 8.10154 6.05724 8.14935 6.0271 8.17162L5.79418 8.34365L5.88155 8.61969C5.8929 8.65541 5.85216 8.68504 5.82165 8.66319L5.58605 8.49482L5.35051 8.66319C5.31999 8.68499 5.27935 8.65541 5.2906 8.61969L5.37798 8.34365L5.14506 8.17162C5.11491 8.1493 5.13043 8.10154 5.16793 8.10121L5.45748 8.09901L5.54907 7.82432C5.56093 7.78879 5.61123 7.78879 5.62309 7.82432ZM5.62309 9.26127L5.71468 9.53596L6.00423 9.53816C6.04173 9.53849 6.05724 9.5863 6.0271 9.60857L5.79418 9.7806L5.88155 10.0566C5.8929 10.0924 5.85216 10.122 5.82165 10.1001L5.58605 9.93177L5.35051 10.1001C5.31999 10.1219 5.27935 10.0924 5.2906 10.0566L5.37798 9.7806L5.14506 9.60857C5.11491 9.58625 5.13043 9.53849 5.16793 9.53816L5.45748 9.53596L5.54907 9.26127C5.56093 9.22569 5.61123 9.22569 5.62309 9.26127ZM5.62309 10.6982L5.71468 10.9729L6.00423 10.9751C6.04173 10.9754 6.05724 11.0232 6.0271 11.0455L5.79418 11.2175L5.88155 11.4935C5.8929 11.5293 5.85216 11.5589 5.82165 11.537L5.58605 11.3687L5.35051 11.537C5.31999 11.5588 5.27935 11.5293 5.2906 11.4935L5.37798 11.2175L5.14506 11.0455C5.11491 11.0232 5.13043 10.9754 5.16793 10.9751L5.45748 10.9729L5.54907 10.6982C5.56093 10.6625 5.61123 10.6625 5.62309 10.6982ZM6.73838 5.65499L6.82997 5.92968L7.11952 5.93188C7.15702 5.93221 7.17254 5.98003 7.1424 6.00229L6.90947 6.17432L6.99685 6.45037C7.00819 6.48609 6.96746 6.51571 6.93694 6.49387L6.7014 6.32549L6.46585 6.49387C6.43533 6.51566 6.39469 6.48609 6.40594 6.45037L6.49332 6.17432L6.2604 6.00229C6.23026 5.97998 6.24577 5.93221 6.28327 5.93188L6.57282 5.92968L6.66441 5.65499C6.67627 5.61946 6.72652 5.61946 6.73838 5.65499ZM6.73838 7.09194L6.82997 7.36663L7.11952 7.36883C7.15702 7.36916 7.17254 7.41698 7.1424 7.43924L6.90947 7.61127L6.99685 7.88732C7.00819 7.92304 6.96746 7.95266 6.93694 7.93082L6.7014 7.76244L6.46585 7.93082C6.43533 7.95262 6.39469 7.92308 6.40594 7.88732L6.49332 7.61127L6.2604 7.43924C6.23026 7.41693 6.24577 7.36916 6.28327 7.36883L6.57282 7.36663L6.66441 7.09194C6.67627 7.05637 6.72652 7.05637 6.73838 7.09194ZM6.73838 8.52885L6.82997 8.80354L7.11952 8.80574C7.15702 8.80607 7.17254 8.85388 7.1424 8.87614L6.90947 9.04818L6.99685 9.32422C7.00819 9.35994 6.96746 9.38957 6.93694 9.36772L6.7014 9.19935L6.46585 9.36772C6.43533 9.38952 6.39469 9.35994 6.40594 9.32422L6.49332 9.04818L6.2604 8.87614C6.23026 8.85383 6.24577 8.80607 6.28327 8.80574L6.57282 8.80354L6.66441 8.52885C6.67627 8.49327 6.72652 8.49327 6.73838 8.52885ZM6.73838 9.96575L6.82997 10.2404L7.11952 10.2426C7.15702 10.243 7.17254 10.2908 7.1424 10.313L6.90947 10.4851L6.99685 10.7611C7.00819 10.7968 6.96746 10.8265 6.93694 10.8046L6.7014 10.6363L6.46585 10.8046C6.43533 10.8264 6.39469 10.7968 6.40594 10.7611L6.49332 10.4851L6.2604 10.313C6.23026 10.2907 6.24577 10.243 6.28327 10.2426L6.57282 10.2404L6.66441 9.96575C6.67627 9.93022 6.72652 9.93022 6.73838 9.96575ZM7.85372 4.95051L7.94532 5.2252L8.23486 5.2274C8.27236 5.22773 8.28788 5.27554 8.25774 5.29781L8.02482 5.46984L8.11219 5.74588C8.12353 5.7816 8.0828 5.81123 8.05228 5.78938L7.81674 5.62101L7.58119 5.78938C7.55068 5.81118 7.51004 5.7816 7.52129 5.74588L7.60866 5.46984L7.37574 5.29781C7.3456 5.2755 7.36111 5.22773 7.39861 5.2274L7.68816 5.2252L7.77975 4.95051C7.79152 4.91493 7.84186 4.91493 7.85372 4.95051ZM7.85372 6.38742L7.94532 6.6621L8.23486 6.66431C8.27236 6.66463 8.28788 6.71245 8.25774 6.73471L8.02482 6.90674L8.11219 7.18279C8.12353 7.21851 8.0828 7.24813 8.05228 7.22629L7.81674 7.05791L7.58119 7.22629C7.55068 7.24809 7.51004 7.21851 7.52129 7.18279L7.60866 6.90674L7.37574 6.73471C7.3456 6.7124 7.36111 6.66463 7.39861 6.66431L7.68816 6.6621L7.77975 6.38742C7.79152 6.35188 7.84186 6.35188 7.85372 6.38742ZM7.85372 7.82432L7.94532 8.09901L8.23486 8.10121C8.27236 8.10154 8.28788 8.14935 8.25774 8.17162L8.02482 8.34365L8.11219 8.61969C8.12353 8.65541 8.0828 8.68504 8.05228 8.66319L7.81674 8.49482L7.58119 8.66319C7.55068 8.68499 7.51004 8.65541 7.52129 8.61969L7.60866 8.34365L7.37574 8.17162C7.3456 8.1493 7.36111 8.10154 7.39861 8.10121L7.68816 8.09901L7.77975 7.82432C7.79152 7.78879 7.84186 7.78879 7.85372 7.82432ZM7.85372 9.26127L7.94532 9.53596L8.23486 9.53816C8.27236 9.53849 8.28788 9.5863 8.25774 9.60857L8.02482 9.7806L8.11219 10.0566C8.12353 10.0924 8.0828 10.122 8.05228 10.1001L7.81674 9.93177L7.58119 10.1001C7.55068 10.1219 7.51004 10.0924 7.52129 10.0566L7.60866 9.7806L7.37574 9.60857C7.3456 9.58625 7.36111 9.53849 7.39861 9.53816L7.68816 9.53596L7.77975 9.26127C7.79152 9.22569 7.84186 9.22569 7.85372 9.26127ZM7.85372 10.6982L7.94532 10.9729L8.23486 10.9751C8.27236 10.9754 8.28788 11.0232 8.25774 11.0455L8.02482 11.2175L8.11219 11.4935C8.12353 11.5293 8.0828 11.5589 8.05228 11.537L7.81674 11.3687L7.58119 11.537C7.55068 11.5588 7.51004 11.5293 7.52129 11.4935L7.60866 11.2175L7.37574 11.0455C7.3456 11.0232 7.36111 10.9754 7.39861 10.9751L7.68816 10.9729L7.77975 10.6982C7.79152 10.6625 7.84186 10.6625 7.85372 10.6982ZM8.96902 5.65499L9.06061 5.92968L9.35016 5.93188C9.38766 5.93221 9.40317 5.98003 9.37303 6.00229L9.14011 6.17432L9.22749 6.45037C9.23883 6.48609 9.1981 6.51571 9.16758 6.49387L8.93203 6.32549L8.69649 6.49387C8.66597 6.51566 8.62533 6.48609 8.63658 6.45037L8.72396 6.17432L8.49103 6.00229C8.46089 5.97998 8.47641 5.93221 8.51391 5.93188L8.80346 5.92968L8.89505 5.65499C8.90686 5.61946 8.9572 5.61946 8.96902 5.65499ZM8.96902 7.09194L9.06061 7.36663L9.35016 7.36883C9.38766 7.36916 9.40317 7.41698 9.37303 7.43924L9.14011 7.61127L9.22749 7.88732C9.23883 7.92304 9.1981 7.95266 9.16758 7.93082L8.93203 7.76244L8.69649 7.93082C8.66597 7.95262 8.62533 7.92308 8.63658 7.88732L8.72396 7.61127L8.49103 7.43924C8.46089 7.41693 8.47641 7.36916 8.51391 7.36883L8.80346 7.36663L8.89505 7.09194C8.90686 7.05637 8.9572 7.05637 8.96902 7.09194ZM8.96902 8.52885L9.06061 8.80354L9.35016 8.80574C9.38766 8.80607 9.40317 8.85388 9.37303 8.87614L9.14011 9.04818L9.22749 9.32422C9.23883 9.35994 9.1981 9.38957 9.16758 9.36772L8.93203 9.19935L8.69649 9.36772C8.66597 9.38952 8.62533 9.35994 8.63658 9.32422L8.72396 9.04818L8.49103 8.87614C8.46089 8.85383 8.47641 8.80607 8.51391 8.80574L8.80346 8.80354L8.89505 8.52885C8.90686 8.49327 8.9572 8.49327 8.96902 8.52885ZM8.96902 9.96575L9.06061 10.2404L9.35016 10.2426C9.38766 10.243 9.40317 10.2908 9.37303 10.313L9.14011 10.4851L9.22749 10.7611C9.23883 10.7968 9.1981 10.8265 9.16758 10.8046L8.93203 10.6363L8.69649 10.8046C8.66597 10.8264 8.62533 10.7968 8.63658 10.7611L8.72396 10.4851L8.49103 10.313C8.46089 10.2907 8.47641 10.243 8.51391 10.2426L8.80346 10.2404L8.89505 9.96575C8.90686 9.93022 8.9572 9.93022 8.96902 9.96575ZM10.0844 4.95051L10.176 5.2252L10.4655 5.2274C10.503 5.22773 10.5185 5.27554 10.4884 5.29781L10.2555 5.46984L10.3428 5.74588C10.3542 5.7816 10.3134 5.81123 10.2829 5.78938L10.0474 5.62101L9.81183 5.78938C9.78131 5.81118 9.74067 5.7816 9.75192 5.74588L9.8393 5.46984L9.60638 5.29781C9.57623 5.2755 9.59175 5.22773 9.62925 5.2274L9.9188 5.2252L10.0104 4.95051C10.0222 4.91493 10.0725 4.91493 10.0844 4.95051ZM10.0844 6.38742L10.176 6.6621L10.4655 6.66431C10.503 6.66463 10.5185 6.71245 10.4884 6.73471L10.2555 6.90674L10.3428 7.18279C10.3542 7.21851 10.3134 7.24813 10.2829 7.22629L10.0474 7.05791L9.81183 7.22629C9.78131 7.24809 9.74067 7.21851 9.75192 7.18279L9.8393 6.90674L9.60638 6.73471C9.57623 6.7124 9.59175 6.66463 9.62925 6.66431L9.9188 6.6621L10.0104 6.38742C10.0222 6.35188 10.0725 6.35188 10.0844 6.38742ZM10.0844 7.82432L10.176 8.09901L10.4655 8.10121C10.503 8.10154 10.5185 8.14935 10.4884 8.17162L10.2555 8.34365L10.3428 8.61969C10.3542 8.65541 10.3134 8.68504 10.2829 8.66319L10.0474 8.49482L9.81183 8.66319C9.78131 8.68499 9.74067 8.65541 9.75192 8.61969L9.8393 8.34365L9.60638 8.17162C9.57623 8.1493 9.59175 8.10154 9.62925 8.10121L9.9188 8.09901L10.0104 7.82432C10.0222 7.78879 10.0725 7.78879 10.0844 7.82432ZM10.0844 9.26127L10.176 9.53596L10.4655 9.53816C10.503 9.53849 10.5185 9.5863 10.4884 9.60857L10.2555 9.7806L10.3428 10.0566C10.3542 10.0924 10.3134 10.122 10.2829 10.1001L10.0474 9.93177L9.81183 10.1001C9.78131 10.1219 9.74067 10.0924 9.75192 10.0566L9.8393 9.7806L9.60638 9.60857C9.57623 9.58625 9.59175 9.53849 9.62925 9.53816L9.9188 9.53596L10.0104 9.26127C10.0222 9.22569 10.0725 9.22569 10.0844 9.26127ZM10.0844 10.6982L10.176 10.9729L10.4655 10.9751C10.503 10.9754 10.5185 11.0232 10.4884 11.0455L10.2555 11.2175L10.3428 11.4935C10.3542 11.5293 10.3134 11.5589 10.2829 11.537L10.0474 11.3687L9.81183 11.537C9.78131 11.5588 9.74067 11.5293 9.75192 11.4935L9.8393 11.2175L9.60638 11.0455C9.57623 11.0232 9.59175 10.9754 9.62925 10.9751L9.9188 10.9729L10.0104 10.6982C10.0222 10.6625 10.0725 10.6625 10.0844 10.6982Z" fill="#F5F5F5"/>
</g>
</g>
</svg>
