<svg width="17" height="23" viewBox="0 0 17 23" fill="none" xmlns="http://www.w3.org/2000/svg">
<path d="M9.63281 13.5219L10.5818 9.98017C11.1059 8.02413 9.94513 6.01356 7.98909 5.48944C6.03305 4.96532 4.02248 6.12612 3.49836 8.08216L1.12585 16.9365C0.601729 18.8925 1.76253 20.9031 3.71857 21.4272C4.6168 21.6679 5.52652 21.5533 6.29852 21.1695C6.77229 20.934 7.1942 20.5971 7.52975 20.1788M7.04008 9.03117L6.09108 12.5729C5.56696 14.5289 6.72776 16.5395 8.68381 17.0636C10.6398 17.5877 12.6504 16.4269 13.1745 14.4709L15.547 5.61658C16.0712 3.66054 14.9104 1.64997 12.9543 1.12585C12.0561 0.88517 11.1464 0.99979 10.3744 1.38356C9.9006 1.61907 9.47869 1.95595 9.14314 2.37429" stroke="#2D264B" stroke-width="1.5" stroke-linecap="round"/>
</svg>
