<svg width="48" height="48" viewBox="0 0 48 48" fill="none" xmlns="http://www.w3.org/2000/svg">
<rect x="1.5" y="1.5" width="45" height="45" rx="22.5" fill="#EEF2F5" stroke="#FB6E4F" stroke-width="3"/>
<path d="M39.0587 18.8685C38.4109 17.8605 37.6156 16.9535 36.6987 16.1772C36.6235 16.0516 36.5483 15.9261 36.4691 15.8005C34.6714 13.0229 31.9749 10.7122 28.8111 9.61368C25.9008 8.6015 22.6618 8.83297 19.9811 10.3709C19.6723 10.5474 19.3674 10.7475 19.0783 10.9593C16.6629 10.9986 13.3091 12.2893 11.3451 14.2391C8.97331 16.593 7.38549 19.8179 8.22889 23.2624C8.5813 24.7062 9.45242 25.9851 10.4819 27.0561C9.67416 29.7082 11.1155 32.9645 12.3984 34.4121C13.9229 36.1344 15.9462 36.9151 17.637 37.2054C17.8746 38.0489 18.3656 38.7982 19.1734 39.3985C20.5949 40.4538 22.4757 40.8461 24.214 40.9599C26.075 41.0854 28.0034 40.9128 29.8169 40.4891C31.1948 40.1674 32.9925 39.422 34.0656 38.6452C35.5425 37.5781 36.7661 36.1972 37.3758 34.4043C37.5065 34.0237 37.6055 33.6236 37.6649 33.2116C39.2408 31.6267 40.3931 29.6258 40.8089 27.4288C41.3672 24.4825 40.6782 21.3832 39.0587 18.8685ZM36.5483 32.6545C34.0893 34.9535 30.5771 36.1579 27.2194 35.3772C26.8709 34.9574 26.6135 34.4867 26.4749 33.9727C26.3126 33.3607 26.3641 32.8389 26.5145 32.2347C26.7561 31.2618 27.1402 30.2653 27.8648 29.5513C29.1358 29.5552 30.4227 29.4532 31.5789 29.0413C31.9115 28.9236 32.2362 28.7706 32.5451 28.5862C33.8122 28.849 35.2139 29.4532 36.0018 30.4497C36.4849 31.0578 36.6156 31.8581 36.5483 32.6545ZM18.6586 36.1305C18.6309 35.6087 18.7022 35.0634 18.8289 34.518C19.1615 33.0822 19.6723 31.556 20.7374 30.4811C21.1255 32.1524 22.0203 33.5882 23.2557 34.6632C22.056 35.7499 20.6978 36.0755 18.6586 36.1305ZM17.0668 15.675C17.4509 14.2548 18.3458 13.0504 19.4862 12.1363C21.0621 12.1363 23.034 12.9288 24.1863 13.631C24.6971 13.9409 25.3029 14.3529 25.8018 14.8433C25.0653 15.3219 24.4199 15.9339 23.921 16.6872C23.3666 16.7617 22.8202 16.8676 22.3015 17.0128C20.9908 17.3816 19.6881 18.0681 18.9199 19.1627C18.4052 19.1313 17.8983 19.1706 17.3955 19.2686C16.9164 18.382 16.758 16.8245 17.0668 15.675ZM32.0422 21.6343C29.7377 20.4142 26.8947 20.6025 24.6297 21.8148C24.5704 21.6814 24.5189 21.5441 24.4714 21.4068C25.2752 21.0419 26.0196 20.5476 26.6135 19.912C27.1402 19.3471 27.5599 18.6605 27.7816 17.9308C29.8763 18.2054 31.2622 19.6727 32.0422 21.6343ZM22.052 27.8879C21.9491 27.8643 21.8461 27.8408 21.7392 27.8133C21.878 26.6084 22.3585 25.4672 23.1251 24.5218C23.232 25.7026 22.8915 26.9188 22.052 27.8879ZM18.916 21.9089C19.9494 22.2385 21.0977 22.2424 22.1668 22.0816C22.4282 22.4111 22.6301 22.776 22.7885 23.1565C21.5808 24.3374 20.8364 25.8478 20.5988 27.472C18.9991 26.6403 18.1993 23.9294 18.916 21.9089ZM19.502 20.4377C19.997 20.5397 20.484 20.7241 20.9473 21.0066C20.4008 21.0694 19.8109 20.9399 19.3238 20.7869C19.3793 20.6653 19.4387 20.5515 19.502 20.4377ZM22.5945 20.8026C22.0639 20.2847 21.0819 19.4962 20.2623 19.4138C21.0225 18.6605 22.1906 18.1505 23.2795 17.9936C22.9588 18.8881 22.8954 19.8022 23.0419 20.6888C22.8915 20.7281 22.741 20.7673 22.5945 20.8026ZM24.21 20.222C24.1308 19.402 24.2615 18.5703 24.6495 17.7896C25.295 17.7347 25.9523 17.7386 26.6016 17.7857C26.2611 18.688 25.2079 19.7355 24.21 20.222ZM25.5127 16.5734C25.8176 16.2556 26.1542 15.9889 26.5106 15.7613C26.6531 16.0281 26.7482 16.3145 26.7719 16.6087C26.3561 16.5773 25.9364 16.5656 25.5127 16.5734ZM17.831 21.4068C16.7817 23.7057 17.732 27.8879 20.5157 28.7C20.5157 28.8177 20.5157 28.9314 20.5236 29.0491C18.4923 30.0181 15.8987 29.4964 13.9783 28.3586C13.19 27.8943 12.4545 27.3472 11.7847 26.7266C12.1687 25.3064 12.7706 23.9058 13.7249 22.7642C14.5445 21.7834 15.6809 21.0027 16.9084 20.6104C17.1302 20.8654 17.6133 21.2381 17.831 21.4068ZM21.7867 29.7082C22.2381 29.4689 22.737 29.3277 23.228 29.2727C23.9051 29.1982 24.3842 29.4964 24.5426 29.6062C25.6791 30.3752 24.9782 32.1798 24.4753 33.1175C24.3446 33.3568 24.2021 33.5804 24.0477 33.7962C22.9429 32.835 21.957 31.5286 21.7867 29.7082ZM26.1423 29.9201C26.0869 29.771 26.0196 29.6258 25.9443 29.4924L26.3957 29.516C26.3047 29.6454 26.2215 29.7828 26.1423 29.9201ZM25.3187 34.059C25.3662 34.2983 25.4256 34.5337 25.5088 34.7613C25.3425 34.6789 25.1801 34.5887 25.0178 34.4906C25.1247 34.3533 25.2237 34.2081 25.3187 34.059ZM32.2956 27.3582C30.7316 27.1346 28.5419 27.472 27.4451 28.3783C26.57 28.3704 23.4696 28.1154 23.3666 28.0997C23.5448 27.8329 23.7071 27.5544 23.8457 27.2484C24.3842 26.0283 24.4595 24.7219 24.1546 23.5214C24.1704 23.5096 24.214 23.4743 24.2219 23.4704C24.9544 24.5061 25.9523 25.3809 27.061 25.9498C28.8864 26.8874 31.0285 27.1503 32.9806 26.6678C32.7906 26.9345 32.557 27.1621 32.2956 27.3582ZM26.5066 24.2079C26.0037 23.8156 25.5682 23.3487 25.2079 22.8348C27.0689 21.8501 29.3932 21.6304 31.3017 22.5759C32.359 23.0977 33.3449 24.1177 33.3726 25.3103C31.1038 26.1577 28.431 25.7026 26.5066 24.2079ZM34.5011 24.7611C34.3507 23.9215 33.8993 23.1604 33.2895 22.5484C33.6023 20.6771 31.7769 17.3423 27.9558 16.7539C27.951 16.2345 27.8221 15.7236 27.5797 15.2631C27.5757 15.2513 27.5678 15.2434 27.5599 15.2317C29.2942 14.5726 31.3374 14.706 33.1153 15.3808C34.0814 15.7495 35.3643 16.4282 36.0375 17.4169C36.8888 18.6684 37.162 20.3397 36.77 21.8344C36.4493 23.0741 35.5821 24.0902 34.5011 24.7611ZM33.9785 14.4745C33.1588 14.1136 32.2917 13.8507 31.3928 13.7173C29.8486 13.4859 28.2607 13.6781 26.8709 14.2705C26.1146 13.4231 25.097 12.7483 24.1387 12.2461C23.1766 11.744 22.1352 11.3477 21.0621 11.132C21.4304 10.9476 21.8065 10.7906 22.1906 10.6612C26.5106 9.20959 31.0285 11.2222 33.9785 14.4745ZM9.24652 21.4107C9.39699 18.4408 11.0086 15.8829 13.3527 14.145C14.596 13.223 16.7421 12.3285 17.6331 12.2971C16.3422 13.7605 15.5424 15.624 15.7126 17.613C15.772 18.3035 15.9462 18.9822 16.2432 19.5943C14.6396 20.1984 13.2101 21.3715 12.2598 22.7642C11.6421 23.6704 11.1828 24.6787 10.8462 25.7223C9.83255 24.4904 9.16337 23.027 9.24652 21.4107ZM12.9725 33.2862C12.0935 32.1916 11.0996 29.9201 11.4956 28.0134C12.6241 28.9785 13.9031 29.7828 15.3048 30.2771C16.5216 30.7036 17.8249 30.8301 19.1021 30.6459C18.2587 31.913 17.7677 33.4627 17.542 34.9417C17.4905 35.287 17.4628 35.6244 17.4667 35.9539C15.7205 35.5773 14.0931 34.6828 12.9725 33.2862ZM29.0923 39.4416C27.5044 39.7673 25.8374 39.8889 24.2179 39.779C22.7172 39.677 21.0621 39.3396 19.8386 38.4216C19.4149 38.1038 19.1298 37.7351 18.9397 37.331C19.5693 37.3506 20.1989 37.3074 20.8087 37.1897C22.0956 36.9426 23.2835 36.2913 24.2259 35.3929C24.9346 35.8441 25.7226 36.1932 26.562 36.4247C27.8489 37.7782 29.6823 38.4138 31.5354 38.6923C30.7514 39.0219 29.9238 39.269 29.0923 39.4416ZM33.3845 37.6919C31.959 37.6252 30.4108 37.4094 29.0883 36.7856C31.4918 36.8327 34.2081 35.95 36.0335 34.5926C35.4515 35.8951 34.5091 36.9151 33.3845 37.6919ZM39.4784 27.9232C39.122 29.21 38.4885 30.4026 37.6649 31.4501C37.5501 30.7832 37.2927 30.1515 36.8453 29.6219C36.0612 28.7 34.8773 28.0487 33.6696 27.6721C34.0577 27.2288 34.3467 26.707 34.4774 26.1185C35.099 25.8164 35.689 25.4241 36.2157 24.9376C37.3838 23.8548 38.0767 22.3719 38.1123 20.783C38.1242 20.3122 38.0767 19.8414 37.9896 19.3824C39.6249 21.8815 40.2783 25.0396 39.4784 27.9232Z" fill="#558BFF"/>
<line x1="40.5607" y1="8.56066" x2="8.56066" y2="40.5607" stroke="#FB6E4F" stroke-width="3"/>
</svg>
