<svg width="12" height="12" viewBox="0 0 12 12" fill="none" xmlns="http://www.w3.org/2000/svg">
<path fill-rule="evenodd" clip-rule="evenodd" d="M1.50781 3.74414V2.62109C1.50781 2.00723 2.00724 1.50781 2.62109 1.50781H3.74414C3.88437 1.50781 3.99805 1.39413 3.99805 1.25391C3.99805 1.11368 3.88437 1 3.74414 1H2.62109C1.72723 1 1 1.72722 1 2.62109V3.74414C1 3.88437 1.11368 3.99805 1.25391 3.99805C1.39413 3.99805 1.50781 3.88437 1.50781 3.74414ZM3.74414 10.4922C3.88437 10.4922 3.99805 10.6059 3.99805 10.7461C3.99805 10.8863 3.88437 11 3.74414 11H2.62109C1.72723 11 1 10.2728 1 9.37889V8.25585C1 8.11562 1.11368 8.00194 1.25391 8.00194C1.39413 8.00194 1.50781 8.11562 1.50781 8.25585V9.37889C1.50781 9.99275 2.00724 10.4922 2.62109 10.4922H3.74414ZM11.0002 8.25585V9.37889C11.0002 10.2728 10.2729 11 9.37907 11H8.25602C8.1158 11 8.00212 10.8863 8.00212 10.7461C8.00212 10.6059 8.1158 10.4922 8.25602 10.4922H9.37907C9.99293 10.4922 10.4924 9.99275 10.4924 9.37889V8.25585C10.4924 8.11562 10.606 8.00194 10.7463 8.00194C10.8865 8.00194 11.0002 8.11562 11.0002 8.25585ZM11.0002 2.62109V3.74414C11.0002 3.88437 10.8865 3.99805 10.7463 3.99805C10.606 3.99805 10.4924 3.88437 10.4924 3.74414V2.62109C10.4924 2.00723 9.99293 1.50781 9.37907 1.50781H8.25602C8.1158 1.50781 8.00212 1.39413 8.00212 1.25391C8.00212 1.11368 8.1158 1 8.25602 1H9.37907C10.2729 1 11.0002 1.72722 11.0002 2.62109ZM7.75236 8.391C7.85933 8.29219 7.86594 8.12538 7.76713 8.01841C7.66831 7.91143 7.50151 7.90482 7.39453 8.00362C7.0139 8.35522 6.51868 8.54885 6.00012 8.54885C5.48155 8.54885 4.98634 8.35522 4.60571 8.00362C4.49871 7.90482 4.33193 7.91144 4.23311 8.01841C4.1343 8.12538 4.14091 8.29219 4.24788 8.391C4.72625 8.83286 5.34853 9.0762 6.00012 9.0762C6.65171 9.0762 7.27399 8.83286 7.75236 8.391ZM6.52707 4.76953V6.64453C6.52707 7.01609 6.22479 7.31836 5.85324 7.31836H5.63839C5.49277 7.31836 5.37472 7.20031 5.37472 7.05469C5.37472 6.90906 5.49277 6.79102 5.63839 6.79102H5.85324C5.93401 6.79102 5.99972 6.7253 5.99972 6.64453V4.76953C5.99972 4.62391 6.11777 4.50586 6.26339 4.50586C6.40902 4.50586 6.52707 4.62391 6.52707 4.76953ZM8.34365 5.50684V4.75488C8.34365 4.61736 8.23215 4.50586 8.09462 4.50586C7.95709 4.50586 7.8456 4.61736 7.8456 4.75488V5.50684C7.8456 5.64437 7.95709 5.75586 8.09462 5.75586C8.23215 5.75586 8.34365 5.64437 8.34365 5.50684ZM3.7149 5.50684C3.7149 5.64437 3.8264 5.75586 3.96393 5.75586C4.10146 5.75586 4.21295 5.64437 4.21295 5.50684V4.75488C4.21295 4.61736 4.10146 4.50586 3.96393 4.50586C3.8264 4.50586 3.7149 4.61736 3.7149 4.75488V5.50684Z" fill="white"/>
<path d="M7.76713 8.01841L7.95078 7.84878L7.95077 7.84877L7.76713 8.01841ZM7.75236 8.391L7.92198 8.57465L7.92199 8.57465L7.75236 8.391ZM7.39453 8.00362L7.22491 7.81997L7.2249 7.81998L7.39453 8.00362ZM4.60571 8.00362L4.77534 7.81998L4.77531 7.81995L4.60571 8.00362ZM4.23311 8.01841L4.04948 7.84876L4.04946 7.84878L4.23311 8.01841ZM4.24788 8.391L4.07825 8.57465L4.07825 8.57465L4.24788 8.391ZM1.25781 2.62109V3.74414H1.75781V2.62109H1.25781ZM2.62109 1.25781C1.86917 1.25781 1.25781 1.86915 1.25781 2.62109H1.75781C1.75781 2.1453 2.14531 1.75781 2.62109 1.75781V1.25781ZM3.74414 1.25781H2.62109V1.75781H3.74414V1.25781ZM3.74805 1.25391C3.74805 1.25606 3.74629 1.25781 3.74414 1.25781V1.75781C4.02244 1.75781 4.24805 1.5322 4.24805 1.25391H3.74805ZM3.74414 1.25C3.74629 1.25 3.74805 1.25175 3.74805 1.25391H4.24805C4.24805 0.97561 4.02244 0.75 3.74414 0.75V1.25ZM2.62109 1.25H3.74414V0.75H2.62109V1.25ZM1.25 2.62109C1.25 1.86529 1.8653 1.25 2.62109 1.25V0.75C1.58916 0.75 0.75 1.58914 0.75 2.62109H1.25ZM1.25 3.74414V2.62109H0.75V3.74414H1.25ZM1.25391 3.74805C1.25175 3.74805 1.25 3.74629 1.25 3.74414H0.75C0.75 4.02244 0.97561 4.24805 1.25391 4.24805V3.74805ZM1.25781 3.74414C1.25781 3.74629 1.25606 3.74805 1.25391 3.74805V4.24805C1.5322 4.24805 1.75781 4.02244 1.75781 3.74414H1.25781ZM4.24805 10.7461C4.24805 10.4678 4.02244 10.2422 3.74414 10.2422V10.7422C3.74629 10.7422 3.74805 10.7439 3.74805 10.7461H4.24805ZM3.74414 11.25C4.02244 11.25 4.24805 11.0244 4.24805 10.7461H3.74805C3.74805 10.7482 3.74629 10.75 3.74414 10.75V11.25ZM2.62109 11.25H3.74414V10.75H2.62109V11.25ZM0.75 9.37889C0.75 10.4108 1.58916 11.25 2.62109 11.25V10.75C1.8653 10.75 1.25 10.1347 1.25 9.37889H0.75ZM0.75 8.25585V9.37889H1.25V8.25585H0.75ZM1.25391 7.75194C0.97561 7.75194 0.75 7.97755 0.75 8.25585H1.25C1.25 8.25369 1.25175 8.25194 1.25391 8.25194V7.75194ZM1.75781 8.25585C1.75781 7.97755 1.5322 7.75194 1.25391 7.75194V8.25194C1.25606 8.25194 1.25781 8.25369 1.25781 8.25585H1.75781ZM1.75781 9.37889V8.25585H1.25781V9.37889H1.75781ZM2.62109 10.2422C2.14531 10.2422 1.75781 9.85468 1.75781 9.37889H1.25781C1.25781 10.1308 1.86917 10.7422 2.62109 10.7422V10.2422ZM3.74414 10.2422H2.62109V10.7422H3.74414V10.2422ZM11.2502 9.37889V8.25585H10.7502V9.37889H11.2502ZM9.37907 11.25C10.411 11.25 11.2502 10.4108 11.2502 9.37889H10.7502C10.7502 10.1347 10.1349 10.75 9.37907 10.75V11.25ZM8.25602 11.25H9.37907V10.75H8.25602V11.25ZM7.75212 10.7461C7.75212 11.0244 7.97773 11.25 8.25602 11.25V10.75C8.25387 10.75 8.25212 10.7482 8.25212 10.7461H7.75212ZM8.25602 10.2422C7.97773 10.2422 7.75212 10.4678 7.75212 10.7461H8.25212C8.25212 10.7439 8.25387 10.7422 8.25602 10.7422V10.2422ZM9.37907 10.2422H8.25602V10.7422H9.37907V10.2422ZM10.2424 9.37889C10.2424 9.85468 9.85486 10.2422 9.37907 10.2422V10.7422C10.131 10.7422 10.7424 10.1308 10.7424 9.37889H10.2424ZM10.2424 8.25585V9.37889H10.7424V8.25585H10.2424ZM10.7463 7.75194C10.468 7.75194 10.2424 7.97755 10.2424 8.25585H10.7424C10.7424 8.25369 10.7441 8.25194 10.7463 8.25194V7.75194ZM11.2502 8.25585C11.2502 7.97755 11.0246 7.75194 10.7463 7.75194V8.25194C10.7484 8.25194 10.7502 8.25369 10.7502 8.25585H11.2502ZM11.2502 3.74414V2.62109H10.7502V3.74414H11.2502ZM10.7463 4.24805C11.0246 4.24805 11.2502 4.02244 11.2502 3.74414H10.7502C10.7502 3.74629 10.7484 3.74805 10.7463 3.74805V4.24805ZM10.2424 3.74414C10.2424 4.02244 10.468 4.24805 10.7463 4.24805V3.74805C10.7441 3.74805 10.7424 3.74629 10.7424 3.74414H10.2424ZM10.2424 2.62109V3.74414H10.7424V2.62109H10.2424ZM9.37907 1.75781C9.85486 1.75781 10.2424 2.1453 10.2424 2.62109H10.7424C10.7424 1.86915 10.131 1.25781 9.37907 1.25781V1.75781ZM8.25602 1.75781H9.37907V1.25781H8.25602V1.75781ZM7.75212 1.25391C7.75212 1.5322 7.97773 1.75781 8.25602 1.75781V1.25781C8.25387 1.25781 8.25212 1.25606 8.25212 1.25391H7.75212ZM8.25602 0.75C7.97773 0.75 7.75212 0.97561 7.75212 1.25391H8.25212C8.25212 1.25175 8.25387 1.25 8.25602 1.25V0.75ZM9.37907 0.75H8.25602V1.25H9.37907V0.75ZM11.2502 2.62109C11.2502 1.58914 10.411 0.75 9.37907 0.75V1.25C10.1349 1.25 10.7502 1.86529 10.7502 2.62109H11.2502ZM7.58348 8.18804C7.58862 8.19359 7.58826 8.20224 7.58273 8.20736L7.92199 8.57465C8.13039 8.38215 8.14326 8.05716 7.95078 7.84878L7.58348 8.18804ZM7.56415 8.18727C7.56971 8.18215 7.57836 8.18249 7.58349 8.18804L7.95077 7.84877C7.75826 7.64038 7.4333 7.6275 7.22491 7.81997L7.56415 8.18727ZM6.00012 8.79885C6.58151 8.79885 7.1373 8.58157 7.56417 8.18726L7.2249 7.81998C6.89049 8.12888 6.45586 8.29885 6.00012 8.29885V8.79885ZM4.43607 8.18726C4.86293 8.58157 5.41873 8.79885 6.00012 8.79885V8.29885C5.54438 8.29885 5.10975 8.12888 4.77534 7.81998L4.43607 8.18726ZM4.41674 8.18805C4.42187 8.18249 4.43053 8.18214 4.4361 8.18729L4.77531 7.81995C4.5669 7.6275 4.24198 7.64039 4.04948 7.84876L4.41674 8.18805ZM4.41751 8.20736C4.41197 8.20224 4.41162 8.19359 4.41675 8.18804L4.04946 7.84878C3.85698 8.05716 3.86985 8.38215 4.07825 8.57465L4.41751 8.20736ZM6.00012 8.8262C5.41136 8.8262 4.84966 8.60652 4.41751 8.20736L4.07825 8.57465C4.60284 9.05919 5.28569 9.3262 6.00012 9.3262V8.8262ZM7.58273 8.20736C7.15057 8.60652 6.58887 8.8262 6.00012 8.8262V9.3262C6.71455 9.3262 7.3974 9.05919 7.92198 8.57465L7.58273 8.20736ZM6.77707 6.64453V4.76953H6.27707V6.64453H6.77707ZM5.85324 7.56836C6.36286 7.56836 6.77707 7.15416 6.77707 6.64453H6.27707C6.27707 6.87801 6.08672 7.06836 5.85324 7.06836V7.56836ZM5.63839 7.56836H5.85324V7.06836H5.63839V7.56836ZM5.12472 7.05469C5.12472 7.33839 5.3547 7.56836 5.63839 7.56836V7.06836C5.63084 7.06836 5.62472 7.06224 5.62472 7.05469H5.12472ZM5.63839 6.54102C5.3547 6.54102 5.12472 6.77099 5.12472 7.05469H5.62472C5.62472 7.04714 5.63084 7.04102 5.63839 7.04102V6.54102ZM5.85324 6.54102H5.63839V7.04102H5.85324V6.54102ZM5.74972 6.64453C5.74972 6.58723 5.79594 6.54102 5.85324 6.54102V7.04102C6.07208 7.04102 6.24972 6.86338 6.24972 6.64453H5.74972ZM5.74972 4.76953V6.64453H6.24972V4.76953H5.74972ZM6.26339 4.25586C5.9797 4.25586 5.74972 4.48584 5.74972 4.76953H6.24972C6.24972 4.76198 6.25584 4.75586 6.26339 4.75586V4.25586ZM6.77707 4.76953C6.77707 4.48584 6.54709 4.25586 6.26339 4.25586V4.75586C6.27095 4.75586 6.27707 4.76198 6.27707 4.76953H6.77707ZM8.09365 4.75488V5.50684H8.59365V4.75488H8.09365ZM8.09462 4.75586C8.09495 4.75586 8.09463 4.75588 8.09416 4.75568C8.09386 4.75556 8.09384 4.75548 8.09393 4.75558C8.09402 4.75567 8.09395 4.75564 8.09382 4.75534C8.09363 4.75488 8.09365 4.75456 8.09365 4.75488H8.59365C8.59365 4.47928 8.37022 4.25586 8.09462 4.25586V4.75586ZM8.0956 4.75488C8.0956 4.75456 8.09561 4.75488 8.09542 4.75534C8.09529 4.75564 8.09522 4.75567 8.09531 4.75558C8.09541 4.75548 8.09538 4.75556 8.09508 4.75568C8.09462 4.75588 8.0943 4.75586 8.09462 4.75586V4.25586C7.81902 4.25586 7.5956 4.47928 7.5956 4.75488H8.0956ZM8.0956 5.50684V4.75488H7.5956V5.50684H8.0956ZM8.09462 5.50586C8.0943 5.50586 8.09462 5.50584 8.09508 5.50604C8.09538 5.50617 8.09541 5.50624 8.09531 5.50615C8.09522 5.50605 8.09529 5.50608 8.09542 5.50638C8.09561 5.50684 8.0956 5.50716 8.0956 5.50684H7.5956C7.5956 5.78244 7.81902 6.00586 8.09462 6.00586V5.50586ZM8.09365 5.50684C8.09365 5.50716 8.09363 5.50684 8.09382 5.50638C8.09395 5.50608 8.09402 5.50605 8.09393 5.50615C8.09384 5.50624 8.09386 5.50617 8.09416 5.50604C8.09463 5.50584 8.09495 5.50586 8.09462 5.50586V6.00586C8.37022 6.00586 8.59365 5.78244 8.59365 5.50684H8.09365ZM3.96393 5.50586C3.9636 5.50586 3.96392 5.50584 3.96439 5.50604C3.96468 5.50617 3.96471 5.50624 3.96462 5.50615C3.96452 5.50605 3.9646 5.50608 3.96472 5.50638C3.96492 5.50684 3.9649 5.50716 3.9649 5.50684H3.4649C3.4649 5.78244 3.68833 6.00586 3.96393 6.00586V5.50586ZM3.96295 5.50684C3.96295 5.50716 3.96293 5.50684 3.96313 5.50638C3.96326 5.50608 3.96333 5.50605 3.96324 5.50615C3.96314 5.50624 3.96317 5.50617 3.96347 5.50604C3.96393 5.50584 3.96425 5.50586 3.96393 5.50586V6.00586C4.23953 6.00586 4.46295 5.78244 4.46295 5.50684H3.96295ZM3.96295 4.75488V5.50684H4.46295V4.75488H3.96295ZM3.96393 4.75586C3.96425 4.75586 3.96393 4.75588 3.96347 4.75568C3.96317 4.75556 3.96314 4.75548 3.96324 4.75558C3.96333 4.75567 3.96326 4.75564 3.96313 4.75534C3.96293 4.75488 3.96295 4.75456 3.96295 4.75488H4.46295C4.46295 4.47928 4.23953 4.25586 3.96393 4.25586V4.75586ZM3.9649 4.75488C3.9649 4.75456 3.96492 4.75488 3.96472 4.75534C3.9646 4.75564 3.96452 4.75567 3.96462 4.75558C3.96471 4.75548 3.96468 4.75556 3.96439 4.75568C3.96392 4.75588 3.9636 4.75586 3.96393 4.75586V4.25586C3.68833 4.25586 3.4649 4.47928 3.4649 4.75488H3.9649ZM3.9649 5.50684V4.75488H3.4649V5.50684H3.9649Z" fill="#FFFFFF"/>
</svg>
