<svg xmlns="http://www.w3.org/2000/svg" xmlns:xlink="http://www.w3.org/1999/xlink" width="264" height="72" viewBox="0 0 264 72">
  <defs>
    <clipPath id="clip-Web_1920_1">
      <rect width="264" height="72"/>
    </clipPath>
  </defs>
  <g id="Web_1920_1" data-name="Web 1920 – 1" clip-path="url(#clip-Web_1920_1)">
    <rect width="264" height="72" fill="#fff"/>
    <g id="Group_1229" data-name="Group 1229" transform="translate(12.562 -24.306)">
      <g id="Group_1222" data-name="Group 1222" transform="translate(8131 -13820.545)">
        <g id="Logo_lockup" data-name="Logo lockup" transform="translate(-8115.241 13845.851)">
          <g id="Group_1054" data-name="Group 1054" transform="translate(0 0)">
            <g id="logo" transform="translate(-27.321 3.605)">
              <path id="Fill-1" d="M62.922,11.624C63.036,14.06,61.1,15.567,59.639,17L44.656,29.612c-1.347,1.254-3.293,2.289-4.052,4.17a36.775,36.775,0,0,0-1.791,7.986c-.243,1.977-2.09,3.7-3.809,4.424-1.336.468-2.94.247-4.4.36l-5.224.035a1.635,1.635,0,0,0-1.053.7l-.193.518c-.56.083-.375-.406-.455-.749A3.847,3.847,0,0,1,24.8,44.025a2.926,2.926,0,0,1,1.721-.674l7.617-.11a1.9,1.9,0,0,0,1.056-.5l.308-.589c.609-3.8.959-7.727,2.842-10.953,1.752-2.046,3.961-3.455,5.913-5.255,4.52-3.839,9.206-7.741,13.671-11.636a8.784,8.784,0,0,0,2.913-4.664l.165-.506a2.891,2.891,0,0,1,1.913,2.481" transform="translate(-19.187 -9.141)" fill="#005EA2" stroke="#185292" stroke-width="0.5" fill-rule="evenodd"/>
              <path id="Fill-3" d="M67.117,15.854c.225,2.367-1.633,3.49-3.112,4.954L57.89,26.06,47.02,35.291c-1.541,1.738-1.621,4.2-2.015,6.427.065.725.8,1.022.654,1.782l-1.511,2.725c.083,1.084,1.409.456,1.837,1.135.014.39-.247.877.062,1.2.212.373,1.086-.127.628.471-.125.1-.078.34-.041.47.181.238.519.26.55.615a1.76,1.76,0,0,0,.108,1.481c1.886,2.058,5.132-.491,7.1,1.442a1.975,1.975,0,0,1,.35,1.867c-1.051,3.079-7.264,3.305-5.138,7.672a2.509,2.509,0,0,0,2.023,1.252,3.781,3.781,0,0,0,1.82-.359c.181,0,.2.177.271.276v.117c-1.8,1.28-4.113,3.16-6.5,1.8a3.721,3.721,0,0,1-1.509-3.828c.729-2.416,3.508-3.033,4.9-5.06a2.038,2.038,0,0,0-.08-1.949,3.171,3.171,0,0,0-2.368-1.167c-1.493-.033-3.781.91-4.445-.843-.194-.669.486-1.848-.583-2-.146-.187-.486-.354-.309-.658.051-.176.355-.2.2-.427-.212-.061-.5-.012-.666-.194-.606-.663,1.065-1.379-.067-1.833-.574-.079-1.35.346-1.72-.307-.18-.613.279-1.052.505-1.552.384-.86,1.505-1.428,1.216-2.538l-.555-.94a35.065,35.065,0,0,1,1.09-6.422c.746-2.3,2.969-3.588,4.672-5.174l9.116-7.707,6.454-5.678A5.09,5.09,0,0,0,65.12,13.6c.342-.115.571.3.869.425a3.665,3.665,0,0,1,1.127,1.829" transform="translate(-18.99 -7.523)" fill="#005EA2" stroke="#005EA2" stroke-width="0.5" fill-rule="evenodd"/>
              <path id="Fill-5" d="M64.588,27.221c-1.2,1.915-3.21,3.357-4.994,4.876l-7.01,5.871a4.467,4.467,0,0,0-1.04,4.746c.066.8-.55,1.294-.743,2,.02.207.062.472.274.532.293.115.732-.034.9.354.043.411-.144.851.307,1.01.179.1.448-.214.467.112a.856.856,0,0,0-.161.583c.23.409.729.184.936.522.089.474.089,1.084.623,1.282,1.818.3,3.2-.927,4.835-1.282,2.6-.813,5.107.2,7.425.9a12.568,12.568,0,0,0,3.587,0l.082.075c-1.476,1.8-3.293,3.552-5.871,3.376-2.708-.1-4.456-2.627-7.363-2.139-1.966.391-3.927,1.572-6.036.778a1.9,1.9,0,0,1-.554-1.984c-.1-.468-1.23-.582-.528-1.194-.216-.142-.585,0-.7-.326-.164-.373.292-.923-.2-1.168-.437-.065-1,.179-1.327-.191a.944.944,0,0,1-.081-.812c.311-.746,1.153-1.334.971-2.221-.564-.534-.377-1.433-.307-2.177.322-1.719.454-3.535,2.054-4.677l8.616-7.286c1.816-1.732,4.06-2.855,5.373-5.138a3.774,3.774,0,0,1,.467,3.582" transform="translate(-17.344 -8.188)" fill="#164b86" stroke="#164b87" stroke-width="0.5" fill-rule="evenodd"/>
              <path id="Fill-7" d="M38.562,52.439a44.7,44.7,0,0,1,7.2,3.507,2.175,2.175,0,0,1,.927,1.908c-.749,3.1-5.062,3.429-4.428,7.082a3.463,3.463,0,0,0,2.414,2.919,3.943,3.943,0,0,0,2.012,0c.1.239.52.466.046.627-1.759,1.131-4.033,2.4-6.191,1.316a3.96,3.96,0,0,1-1.948-2.722c-.437-3.313,2.646-4.356,4.207-6.572a2.157,2.157,0,0,0,.235-1.478A3.221,3.221,0,0,0,41.7,57.662,77.685,77.685,0,0,0,23.1,50.528c-1.075-.1-2.743-.73-3.458.52v.059c-.58.123-.357-.578-.357-.887a3.019,3.019,0,0,1,1.791-2.34c1.685-.5,3.471.1,5.106.392a109.705,109.705,0,0,1,12.382,4.169" transform="translate(-19.24 -7.122)" fill="#005EA2" stroke="#185292" stroke-width="0.5" fill-rule="evenodd"/>
            </g>
            <g id="Logo_lockup-2" data-name="Logo lockup" transform="translate(31.712)">
              <path id="U.S._Department_of_Health_and_Human_Services" data-name="U.S. Department of  Health and Human Services" d="M4.257.088A3.525,3.525,0,0,1,1.705-.737,3.472,3.472,0,0,1,.858-3.322V-7.249L.176-7.4v-.77H3.729v.77L2.8-7.238v4.07Q2.8-.682,4.532-.682a1.371,1.371,0,0,0,1.26-.655,3.457,3.457,0,0,0,.4-1.81v-4.1L5.247-7.4v-.77h2.86v.77l-.726.154v4A3.361,3.361,0,0,1,6.54-.72,3.157,3.157,0,0,1,4.257.088ZM9.8.088a.925.925,0,0,1-.655-.264.856.856,0,0,1-.281-.649.916.916,0,0,1,.319-.72,1.156,1.156,0,0,1,.792-.281.917.917,0,0,1,.693.275.906.906,0,0,1,.264.649.906.906,0,0,1-.308.726A1.225,1.225,0,0,1,9.8.088Zm5.126.033a5.883,5.883,0,0,1-1.116-.1q-.512-.1-1.073-.264a2.7,2.7,0,0,0-.528-.121l.1-2.057h1.023l.275,1.408a1.008,1.008,0,0,0,.445.253,2.426,2.426,0,0,0,.776.11,1.48,1.48,0,0,0,1.007-.3,1.031,1.031,0,0,0,.335-.814.985.985,0,0,0-.215-.632,2.153,2.153,0,0,0-.594-.495,10.747,10.747,0,0,0-1.039-.523,4.85,4.85,0,0,1-1.469-1.007,2.2,2.2,0,0,1-.6-1.611,2.061,2.061,0,0,1,.319-1.122,2.238,2.238,0,0,1,.968-.814,3.763,3.763,0,0,1,1.617-.308,5.9,5.9,0,0,1,1.017.077q.435.077.93.209a1.854,1.854,0,0,0,.407.1l-.066,1.958h-1l-.253-1.353a.718.718,0,0,0-.347-.181,2.043,2.043,0,0,0-.6-.082,1.277,1.277,0,0,0-.908.286.969.969,0,0,0-.3.737,1.036,1.036,0,0,0,.253.693,2.266,2.266,0,0,0,.61.5q.358.2,1.095.566a8.749,8.749,0,0,1,1.018.578,2.693,2.693,0,0,1,.743.753,1.9,1.9,0,0,1,.308,1.078,2.5,2.5,0,0,1-.292,1.166,2.271,2.271,0,0,1-1,.935A3.939,3.939,0,0,1,14.927.121ZM19.921.088a.925.925,0,0,1-.655-.264.856.856,0,0,1-.281-.649.916.916,0,0,1,.319-.72,1.156,1.156,0,0,1,.792-.281.917.917,0,0,1,.693.275.906.906,0,0,1,.264.649.906.906,0,0,1-.308.726A1.225,1.225,0,0,1,19.921.088Zm5.643-7.337-.8-.154v-.77h1.716q.363,0,.979-.044.143-.011.434-.022t.522-.011a4.118,4.118,0,0,1,3.014,1,3.86,3.86,0,0,1,1.012,2.871,5.165,5.165,0,0,1-.495,2.3A3.8,3.8,0,0,1,30.525-.49a4.024,4.024,0,0,1-2.178.578q-.341,0-1.023-.044Q26.686,0,26.5,0H24.717V-.726l.847-.121ZM27.423-.814a2.552,2.552,0,0,0,.88.1,1.758,1.758,0,0,0,1.535-.841A4.72,4.72,0,0,0,30.382-4.1a4.858,4.858,0,0,0-.533-2.48,1.811,1.811,0,0,0-1.678-.9,3.054,3.054,0,0,0-.473.033l-.275.044Zm8.613.935A2.773,2.773,0,0,1,33.8-.732a3.473,3.473,0,0,1-.726-2.327,3.727,3.727,0,0,1,.374-1.727A2.6,2.6,0,0,1,34.5-5.891a3.2,3.2,0,0,1,1.59-.379,2.459,2.459,0,0,1,1.765.583,2.241,2.241,0,0,1,.632,1.65,5.221,5.221,0,0,1-.1,1.133H34.947A2.434,2.434,0,0,0,35.4-1.479a1.377,1.377,0,0,0,1.127.489,2.889,2.889,0,0,0,.853-.137,2.977,2.977,0,0,0,.721-.314l.308.671a2.714,2.714,0,0,1-.973.6A3.621,3.621,0,0,1,36.036.121Zm.7-3.751.011-.462a2.367,2.367,0,0,0-.187-1.056.659.659,0,0,0-.638-.363.8.8,0,0,0-.715.4,3.138,3.138,0,0,0-.275,1.479Zm8.756.374a3.754,3.754,0,0,1-.38,1.683A2.978,2.978,0,0,1,43.995-.341a3.317,3.317,0,0,1-1.788.462,2.379,2.379,0,0,1-.379-.033,1.555,1.555,0,0,1-.314-.077L41.547.9v.935l.946.143v.682H39.116V1.98l.671-.143v-6.8l-.671-.2v-.858l1.969-.242h.022l.3.231v.594a2.124,2.124,0,0,1,.709-.589,2.055,2.055,0,0,1,1-.247,2.205,2.205,0,0,1,1.722.742A3.322,3.322,0,0,1,45.5-3.256Zm-3.036-2a1.283,1.283,0,0,0-.539.115.929.929,0,0,0-.374.28V-.836a.567.567,0,0,0,.27.165,1.3,1.3,0,0,0,.424.066,1.117,1.117,0,0,0,.985-.594,3.8,3.8,0,0,0,.368-1.925,3.274,3.274,0,0,0-.308-1.606A.928.928,0,0,0,42.46-5.258Zm3.718,3.5a1.615,1.615,0,0,1,.985-1.485,5.664,5.664,0,0,1,2.59-.528v-.22a1.809,1.809,0,0,0-.088-.627.627.627,0,0,0-.319-.346,1.576,1.576,0,0,0-.682-.116,3.364,3.364,0,0,0-.962.127,7.059,7.059,0,0,0-.886.336l-.374-.792a3.5,3.5,0,0,1,.572-.346,4.807,4.807,0,0,1,.951-.352,4.475,4.475,0,0,1,1.16-.148,3.361,3.361,0,0,1,1.381.231,1.389,1.389,0,0,1,.715.715,3.323,3.323,0,0,1,.214,1.32V-.726h.572v.693q-.253.055-.7.11a6.51,6.51,0,0,1-.77.055.889.889,0,0,1-.556-.121.641.641,0,0,1-.138-.484V-.726a2.592,2.592,0,0,1-.737.589,2.148,2.148,0,0,1-1.067.259A1.969,1.969,0,0,1,47.1-.1a1.679,1.679,0,0,1-.671-.649A1.96,1.96,0,0,1,46.178-1.76ZM48.9-.891a1.035,1.035,0,0,0,.44-.115,1.635,1.635,0,0,0,.418-.28V-3.036a2.126,2.126,0,0,0-1.271.308.947.947,0,0,0-.412.792,1.2,1.2,0,0,0,.22.77A.732.732,0,0,0,48.9-.891Zm3.718.165.671-.1V-4.961l-.649-.2v-.858l1.826-.242h.033l.308.231v.264l-.033.913H54.8a1.83,1.83,0,0,1,.352-.589,2.562,2.562,0,0,1,.7-.583,1.789,1.789,0,0,1,.918-.247,1.007,1.007,0,0,1,.44.077v1.914a1.535,1.535,0,0,0-.38-.209,1.5,1.5,0,0,0-.522-.077,2.29,2.29,0,0,0-.715.1,1.923,1.923,0,0,0-.506.236v3.4l1.21.11V0H52.613ZM59.741.1a1.492,1.492,0,0,1-1.072-.336,1.389,1.389,0,0,1-.347-1.04V-5.192h-.671V-5.83l.22-.088a3.546,3.546,0,0,0,.462-.187,1.482,1.482,0,0,0,.352-.55,9.916,9.916,0,0,0,.363-1.111h1.023l.066,1.65H61.71v.924H60.159v2.915a7.286,7.286,0,0,0,.033.847.474.474,0,0,0,.126.313.6.6,0,0,0,.347.072,2.726,2.726,0,0,0,.979-.176l.231.693a2.712,2.712,0,0,1-.913.44A4.114,4.114,0,0,1,59.741.1ZM62.4-.726l.583-.1V-4.961l-.649-.2v-.858l2-.242.088.044.22.308v.55a2.811,2.811,0,0,1,1.034-.622,3.394,3.394,0,0,1,1.166-.258,2.03,2.03,0,0,1,.963.2,1.254,1.254,0,0,1,.555.616,3.017,3.017,0,0,1,.941-.583,3.02,3.02,0,0,1,1.149-.231,1.632,1.632,0,0,1,1.392.561,3.1,3.1,0,0,1,.424,1.837V-.825l.66.1V0H69.949V-.726l.495-.1V-3.8a2.348,2.348,0,0,0-.182-1.1A.707.707,0,0,0,69.6-5.2a1.74,1.74,0,0,0-1.056.429,5.9,5.9,0,0,1,.066.935V-.825l.616.1V0h-3V-.726l.55-.1v-3A2.369,2.369,0,0,0,66.6-4.906a.677.677,0,0,0-.644-.3,1.463,1.463,0,0,0-.61.137,2.029,2.029,0,0,0-.523.336v3.9l.594.1V0H62.4ZM76.472.121a2.773,2.773,0,0,1-2.233-.853,3.473,3.473,0,0,1-.726-2.327,3.727,3.727,0,0,1,.374-1.727,2.6,2.6,0,0,1,1.051-1.106,3.2,3.2,0,0,1,1.59-.379,2.459,2.459,0,0,1,1.765.583,2.241,2.241,0,0,1,.632,1.65,5.221,5.221,0,0,1-.1,1.133H75.383a2.434,2.434,0,0,0,.457,1.425,1.377,1.377,0,0,0,1.127.489,2.889,2.889,0,0,0,.853-.137,2.976,2.976,0,0,0,.72-.314l.308.671a2.714,2.714,0,0,1-.974.6A3.621,3.621,0,0,1,76.472.121Zm.7-3.751.011-.462A2.367,2.367,0,0,0,77-5.148a.659.659,0,0,0-.638-.363.8.8,0,0,0-.715.4,3.138,3.138,0,0,0-.275,1.479Zm3.168-1.331-.649-.2v-.858l2-.242h.033l.286.231v.407L82-5.368a3.29,3.29,0,0,1,.979-.616,3.14,3.14,0,0,1,1.243-.253A1.957,1.957,0,0,1,85.266-6a1.34,1.34,0,0,1,.55.753,4.651,4.651,0,0,1,.171,1.408V-.825l.616.088V0H83.611V-.726l.539-.1v-3a3.626,3.626,0,0,0-.072-.82.721.721,0,0,0-.247-.424.832.832,0,0,0-.506-.132,2,2,0,0,0-1.144.473v3.9l.6.1V0H79.739V-.726l.605-.1ZM89.188.1a1.492,1.492,0,0,1-1.073-.336,1.389,1.389,0,0,1-.346-1.04V-5.192H87.1V-5.83l.22-.088a3.546,3.546,0,0,0,.462-.187,1.482,1.482,0,0,0,.352-.55,9.915,9.915,0,0,0,.363-1.111h1.023l.066,1.65h1.573v.924H89.606v2.915a7.285,7.285,0,0,0,.033.847.474.474,0,0,0,.126.313.6.6,0,0,0,.347.072,2.726,2.726,0,0,0,.979-.176l.231.693a2.712,2.712,0,0,1-.913.44A4.114,4.114,0,0,1,89.188.1Zm5.269-3.124a3.552,3.552,0,0,1,.418-1.787A2.7,2.7,0,0,1,96-5.907a3.367,3.367,0,0,1,1.557-.363,2.848,2.848,0,0,1,2.173.83,3.233,3.233,0,0,1,.786,2.316,3.593,3.593,0,0,1-.418,1.815A2.645,2.645,0,0,1,98.978-.231,3.468,3.468,0,0,1,97.4.121a2.834,2.834,0,0,1-2.161-.83A3.233,3.233,0,0,1,94.457-3.025ZM97.515-.649a.836.836,0,0,0,.786-.567,4.541,4.541,0,0,0,.258-1.777,5.39,5.39,0,0,0-.247-1.9.854.854,0,0,0-.831-.61Q96.4-5.5,96.4-3.157a5.085,5.085,0,0,0,.264,1.892A.884.884,0,0,0,97.515-.649Zm4.7-4.543h-.858v-.682l.858-.22v-.462a2.4,2.4,0,0,1,.4-1.342,2.818,2.818,0,0,1,1.062-.957,3.024,3.024,0,0,1,1.436-.352,2.322,2.322,0,0,1,.737.11v1.6a1.229,1.229,0,0,0-.473-.259,2.04,2.04,0,0,0-.693-.127.635.635,0,0,0-.517.187.973.973,0,0,0-.154.616v.979h1.32v.913h-1.32V-.825l1.111.1V0h-3.751V-.726l.847-.1ZM1.568,8.76.56,8.578V7.6H5.1v.98L3.948,8.76v3.346H7.784V8.774l-1.05-.2V7.6h4.48v.98l-1.036.182v8.176l1.036.14V18H6.734v-.924l1.05-.154V13.3H3.948v3.64l1.148.14V18H.532v-.924l1.036-.14Zm14.448,9.394a3.529,3.529,0,0,1-2.842-1.085,4.42,4.42,0,0,1-.924-2.961,4.744,4.744,0,0,1,.476-2.2A3.3,3.3,0,0,1,14.063,10.5a4.068,4.068,0,0,1,2.023-.483,3.13,3.13,0,0,1,2.247.742,2.853,2.853,0,0,1,.805,2.1,6.645,6.645,0,0,1-.126,1.442H14.63a3.1,3.1,0,0,0,.581,1.813,1.752,1.752,0,0,0,1.435.623,3.677,3.677,0,0,0,1.085-.175,3.789,3.789,0,0,0,.917-.4l.392.854a3.454,3.454,0,0,1-1.239.77A4.608,4.608,0,0,1,16.016,18.154Zm.9-4.774.014-.588a3.012,3.012,0,0,0-.238-1.344.839.839,0,0,0-.812-.462,1.018,1.018,0,0,0-.91.511,3.993,3.993,0,0,0-.35,1.883Zm3.122,2.38a2.055,2.055,0,0,1,1.253-1.89,7.209,7.209,0,0,1,3.3-.672v-.28a2.3,2.3,0,0,0-.112-.8.8.8,0,0,0-.406-.441,2.005,2.005,0,0,0-.868-.147,4.281,4.281,0,0,0-1.225.161,8.984,8.984,0,0,0-1.127.427l-.476-1.008a4.46,4.46,0,0,1,.728-.441,6.118,6.118,0,0,1,1.211-.448,5.7,5.7,0,0,1,1.477-.189,4.278,4.278,0,0,1,1.757.294,1.768,1.768,0,0,1,.91.91,4.229,4.229,0,0,1,.273,1.68v4.158h.728v.882q-.322.07-.9.14a8.286,8.286,0,0,1-.98.07,1.132,1.132,0,0,1-.707-.154A.815.815,0,0,1,24.7,17.4v-.322a3.3,3.3,0,0,1-.938.749,2.734,2.734,0,0,1-1.358.329,2.506,2.506,0,0,1-1.2-.287,2.137,2.137,0,0,1-.854-.826A2.5,2.5,0,0,1,20.034,15.76Zm3.458,1.106a1.318,1.318,0,0,0,.56-.147,2.081,2.081,0,0,0,.532-.357V14.136a2.706,2.706,0,0,0-1.617.392,1.206,1.206,0,0,0-.525,1.008,1.531,1.531,0,0,0,.28.98A.932.932,0,0,0,23.492,16.866Zm5.516-8.974-.98-.182V6.856l2.8-.336h.042l.406.294V16.95l.91.126V18H28.112v-.924l.9-.126Zm6.524,10.234a1.9,1.9,0,0,1-1.365-.427,1.768,1.768,0,0,1-.441-1.323V11.392h-.854V10.58l.28-.112a4.513,4.513,0,0,0,.588-.238,1.887,1.887,0,0,0,.448-.7,12.62,12.62,0,0,0,.462-1.414h1.3l.084,2.1h2v1.176H36.064V15.1a9.273,9.273,0,0,0,.042,1.078.6.6,0,0,0,.161.4.765.765,0,0,0,.441.091,3.47,3.47,0,0,0,1.246-.224l.294.882a3.452,3.452,0,0,1-1.162.56A5.235,5.235,0,0,1,35.532,18.126ZM39.578,7.892l-.994-.182V6.856L41.4,6.52h.042l.406.294.014,3.038L41.748,11.1a4.075,4.075,0,0,1,1.148-.721,3.842,3.842,0,0,1,1.568-.315,2.486,2.486,0,0,1,1.372.322,1.7,1.7,0,0,1,.686.98,6.323,6.323,0,0,1,.2,1.75V16.95l.854.126V18H43.68v-.924l.742-.126V13.128a3.111,3.111,0,0,0-.21-1.365.884.884,0,0,0-.854-.385,1.909,1.909,0,0,0-.784.175,2.323,2.323,0,0,0-.658.427v4.97l.77.126V18H38.85v-.924l.728-.126Zm12.11,7.868a2.055,2.055,0,0,1,1.253-1.89,7.209,7.209,0,0,1,3.3-.672v-.28a2.3,2.3,0,0,0-.112-.8.8.8,0,0,0-.406-.441,2.005,2.005,0,0,0-.868-.147,4.281,4.281,0,0,0-1.225.161,8.984,8.984,0,0,0-1.127.427l-.476-1.008a4.46,4.46,0,0,1,.728-.441,6.118,6.118,0,0,1,1.211-.448,5.7,5.7,0,0,1,1.477-.189,4.278,4.278,0,0,1,1.757.294,1.768,1.768,0,0,1,.91.91,4.229,4.229,0,0,1,.273,1.68v4.158h.728v.882q-.322.07-.9.14a8.286,8.286,0,0,1-.98.07,1.132,1.132,0,0,1-.707-.154.815.815,0,0,1-.175-.616v-.322a3.3,3.3,0,0,1-.938.749,2.734,2.734,0,0,1-1.358.329,2.506,2.506,0,0,1-1.2-.287A2.137,2.137,0,0,1,52,17.041,2.5,2.5,0,0,1,51.688,15.76Zm3.458,1.106a1.318,1.318,0,0,0,.56-.147,2.081,2.081,0,0,0,.532-.357V14.136a2.706,2.706,0,0,0-1.617.392,1.206,1.206,0,0,0-.525,1.008,1.531,1.531,0,0,0,.28.98A.932.932,0,0,0,55.146,16.866Zm5.572-5.18-.826-.252V10.342l2.548-.308h.042l.364.294v.518l-.014.322a4.187,4.187,0,0,1,1.246-.784,4,4,0,0,1,1.582-.322,2.491,2.491,0,0,1,1.323.3,1.706,1.706,0,0,1,.7.959,5.919,5.919,0,0,1,.217,1.792V16.95l.784.112V18H64.876v-.924l.686-.126V13.128a4.615,4.615,0,0,0-.091-1.043.918.918,0,0,0-.315-.539,1.059,1.059,0,0,0-.644-.168,2.548,2.548,0,0,0-1.456.6v4.97l.77.126V18H59.948v-.924l.77-.126Zm11.858,6.468a2.758,2.758,0,0,1-2.184-.966,4.314,4.314,0,0,1-.84-2.9,4.735,4.735,0,0,1,.483-2.135A3.754,3.754,0,0,1,71.463,10.6a4.289,4.289,0,0,1,2.289-.581,3.81,3.81,0,0,1,.84.1V7.892l-1.344-.2V6.8l3.094-.28h.07l.42.336V17.062h.728v.9a9.7,9.7,0,0,1-1.792.21,1.206,1.206,0,0,1-.707-.161.737.737,0,0,1-.217-.623v-.35a2.486,2.486,0,0,1-.966.805A2.878,2.878,0,0,1,72.576,18.154Zm.84-1.26a1.447,1.447,0,0,0,.693-.161,1.558,1.558,0,0,0,.483-.385V11.28a.729.729,0,0,0-.357-.21,1.782,1.782,0,0,0-.553-.084,1.408,1.408,0,0,0-1.246.749,4.852,4.852,0,0,0-.462,2.443,4.161,4.161,0,0,0,.392,2.051A1.182,1.182,0,0,0,73.416,16.894ZM82.922,8.76l-1.008-.182V7.6H86.45v.98L85.3,8.76v3.346h3.836V8.774l-1.05-.2V7.6h4.48v.98l-1.036.182v8.176l1.036.14V18h-4.48v-.924l1.05-.154V13.3H85.3v3.64l1.148.14V18H81.886v-.924l1.036-.14Zm17.15,9.38a1.021,1.021,0,0,1-.728-.217.847.847,0,0,1-.224-.637v-.308a3.2,3.2,0,0,1-2.366,1.176,2.45,2.45,0,0,1-1.953-.679A3.506,3.506,0,0,1,94.22,15.2V11.308l-.658-.182v-.9l2.632-.182h.014l.308.2v5.012a2.554,2.554,0,0,0,.224,1.267.867.867,0,0,0,.8.357,1.788,1.788,0,0,0,1.316-.532v-5.04l-.868-.21V10.23l2.772-.182h.042l.336.2v6.79h.742v.9q-.476.1-.875.154A6.784,6.784,0,0,1,100.072,18.14Zm2.814-1.064.742-.126V11.686l-.826-.252V10.342l2.548-.308.112.056.28.392v.7a3.578,3.578,0,0,1,1.316-.791,4.319,4.319,0,0,1,1.484-.329,2.584,2.584,0,0,1,1.225.252,1.6,1.6,0,0,1,.707.784,4.089,4.089,0,0,1,2.66-1.036,2.077,2.077,0,0,1,1.771.714,3.94,3.94,0,0,1,.539,2.338V16.95l.84.126V18H112.49v-.924l.63-.126V13.17a2.988,2.988,0,0,0-.231-1.4.9.9,0,0,0-.847-.392,2.215,2.215,0,0,0-1.344.546,7.5,7.5,0,0,1,.084,1.19V16.95l.784.126V18h-3.822v-.924l.7-.126V13.128a3.016,3.016,0,0,0-.217-1.372.862.862,0,0,0-.819-.378,1.862,1.862,0,0,0-.777.175,2.583,2.583,0,0,0-.665.427v4.97l.756.126V18h-3.836Zm14.168-1.316a2.055,2.055,0,0,1,1.253-1.89,7.209,7.209,0,0,1,3.3-.672v-.28a2.3,2.3,0,0,0-.112-.8.8.8,0,0,0-.406-.441,2.005,2.005,0,0,0-.868-.147,4.281,4.281,0,0,0-1.225.161,8.984,8.984,0,0,0-1.127.427l-.476-1.008a4.46,4.46,0,0,1,.728-.441,6.117,6.117,0,0,1,1.211-.448,5.7,5.7,0,0,1,1.477-.189,4.278,4.278,0,0,1,1.757.294,1.768,1.768,0,0,1,.91.91,4.229,4.229,0,0,1,.273,1.68v4.158h.728v.882q-.322.07-.9.14a8.286,8.286,0,0,1-.98.07,1.132,1.132,0,0,1-.707-.154.815.815,0,0,1-.175-.616v-.322a3.3,3.3,0,0,1-.938.749,2.734,2.734,0,0,1-1.358.329,2.507,2.507,0,0,1-1.2-.287,2.137,2.137,0,0,1-.854-.826A2.5,2.5,0,0,1,117.054,15.76Zm3.458,1.106a1.318,1.318,0,0,0,.56-.147,2.081,2.081,0,0,0,.532-.357V14.136a2.706,2.706,0,0,0-1.617.392,1.206,1.206,0,0,0-.525,1.008,1.531,1.531,0,0,0,.28.98A.932.932,0,0,0,120.512,16.866Zm5.572-5.18-.826-.252V10.342l2.548-.308h.042l.364.294v.518l-.014.322a4.187,4.187,0,0,1,1.246-.784,4,4,0,0,1,1.582-.322,2.491,2.491,0,0,1,1.323.3,1.706,1.706,0,0,1,.7.959,5.919,5.919,0,0,1,.217,1.792V16.95l.784.112V18h-3.808v-.924l.686-.126V13.128a4.616,4.616,0,0,0-.091-1.043.918.918,0,0,0-.315-.539,1.059,1.059,0,0,0-.644-.168,2.548,2.548,0,0,0-1.456.6v4.97l.77.126V18h-3.878v-.924l.77-.126Zm15.974,6.468a7.488,7.488,0,0,1-1.421-.126q-.651-.126-1.365-.336a3.44,3.44,0,0,0-.672-.154l.126-2.618h1.3l.35,1.792a1.283,1.283,0,0,0,.567.322,3.087,3.087,0,0,0,.987.14,1.883,1.883,0,0,0,1.281-.378,1.313,1.313,0,0,0,.427-1.036,1.254,1.254,0,0,0-.273-.805,2.74,2.74,0,0,0-.756-.63,13.679,13.679,0,0,0-1.323-.665,6.173,6.173,0,0,1-1.869-1.281,2.8,2.8,0,0,1-.763-2.051,2.623,2.623,0,0,1,.406-1.428,2.848,2.848,0,0,1,1.232-1.036,4.789,4.789,0,0,1,2.058-.392,7.508,7.508,0,0,1,1.295.1q.553.1,1.183.266a2.36,2.36,0,0,0,.518.126l-.084,2.492H143.99l-.322-1.722a.914.914,0,0,0-.441-.231,2.6,2.6,0,0,0-.763-.105,1.625,1.625,0,0,0-1.155.364,1.233,1.233,0,0,0-.385.938,1.318,1.318,0,0,0,.322.882,2.884,2.884,0,0,0,.777.637q.455.259,1.393.721a11.136,11.136,0,0,1,1.295.735,3.427,3.427,0,0,1,.945.959A2.415,2.415,0,0,1,146.048,15a3.179,3.179,0,0,1-.371,1.484,2.891,2.891,0,0,1-1.267,1.19A5.013,5.013,0,0,1,142.058,18.154Zm8.582,0a3.529,3.529,0,0,1-2.842-1.085,4.42,4.42,0,0,1-.924-2.961,4.744,4.744,0,0,1,.476-2.2,3.3,3.3,0,0,1,1.337-1.407,4.068,4.068,0,0,1,2.023-.483,3.13,3.13,0,0,1,2.247.742,2.852,2.852,0,0,1,.805,2.1,6.645,6.645,0,0,1-.126,1.442h-4.382a3.1,3.1,0,0,0,.581,1.813,1.752,1.752,0,0,0,1.435.623,3.677,3.677,0,0,0,1.085-.175,3.789,3.789,0,0,0,.917-.4l.392.854a3.454,3.454,0,0,1-1.239.77A4.608,4.608,0,0,1,150.64,18.154Zm.9-4.774.014-.588a3.012,3.012,0,0,0-.238-1.344.839.839,0,0,0-.812-.462,1.018,1.018,0,0,0-.91.511,3.993,3.993,0,0,0-.35,1.883Zm3.332,3.7.854-.126V11.686l-.826-.252V10.342l2.324-.308h.042l.392.294v.336l-.042,1.162h.042a2.33,2.33,0,0,1,.448-.749,3.26,3.26,0,0,1,.889-.742,2.277,2.277,0,0,1,1.169-.315,1.282,1.282,0,0,1,.56.1v2.436a1.954,1.954,0,0,0-.483-.266,1.905,1.905,0,0,0-.665-.1,2.914,2.914,0,0,0-.91.133,2.447,2.447,0,0,0-.644.3V16.95l1.54.14V18h-4.69Zm6.062-6.86h3.976v.9l-.882.168,1.176,3.7.364,1.274.294-1.26,1.162-3.71-.854-.168v-.9H169.4v.9l-.728.168-2.548,6.832h-1.876l-2.772-6.832-.546-.168Zm10.514-1.2a1.222,1.222,0,0,1-.882-.322,1.094,1.094,0,0,1-.336-.826A1.321,1.321,0,0,1,170.6,6.9a1.559,1.559,0,0,1,1.967-.056,1.094,1.094,0,0,1,.336.826,1.3,1.3,0,0,1-.378.973,1.455,1.455,0,0,1-1.064.371Zm-.854,2.674-.938-.266V10.37l2.8-.336h.028l.434.294V16.95l.84.126V18h-4.032v-.924l.868-.126Zm4.046,2.478a4.545,4.545,0,0,1,.5-2.184,3.554,3.554,0,0,1,1.414-1.449,4.216,4.216,0,0,1,2.1-.511,5.8,5.8,0,0,1,1.015.077,7.248,7.248,0,0,1,.875.217q.406.112.5.126l-.1,2.534h-1.414l-.364-1.61a.358.358,0,0,0-.231-.259,1.205,1.205,0,0,0-.455-.077,1.141,1.141,0,0,0-1.029.644,4.541,4.541,0,0,0-.371,2.142A4.212,4.212,0,0,0,177.555,16a1.43,1.43,0,0,0,1.267.763,3.574,3.574,0,0,0,1.9-.532l.378.826A3.4,3.4,0,0,1,180,17.8a4.012,4.012,0,0,1-1.708.357,3.379,3.379,0,0,1-2.744-1.085A4.375,4.375,0,0,1,174.636,14.164Zm11.158,3.99a3.529,3.529,0,0,1-2.842-1.085,4.42,4.42,0,0,1-.924-2.961,4.744,4.744,0,0,1,.476-2.2,3.3,3.3,0,0,1,1.337-1.407,4.068,4.068,0,0,1,2.023-.483,3.13,3.13,0,0,1,2.247.742,2.852,2.852,0,0,1,.805,2.1,6.645,6.645,0,0,1-.126,1.442h-4.382a3.1,3.1,0,0,0,.581,1.813,1.752,1.752,0,0,0,1.435.623,3.677,3.677,0,0,0,1.085-.175,3.789,3.789,0,0,0,.917-.4l.392.854a3.454,3.454,0,0,1-1.239.77A4.608,4.608,0,0,1,185.794,18.154Zm.9-4.774.014-.588a3.012,3.012,0,0,0-.238-1.344.839.839,0,0,0-.812-.462,1.018,1.018,0,0,0-.91.511,3.993,3.993,0,0,0-.35,1.883Zm5.068,3.458a.883.883,0,0,0,.455.28,2.153,2.153,0,0,0,.721.126,1.358,1.358,0,0,0,.875-.245.783.783,0,0,0,.3-.637.817.817,0,0,0-.392-.693A8.138,8.138,0,0,0,192.43,15l-.532-.238a3.5,3.5,0,0,1-1.365-.987,2.323,2.323,0,0,1-.455-1.477,1.893,1.893,0,0,1,.378-1.155,2.5,2.5,0,0,1,1.092-.805,4.394,4.394,0,0,1,1.68-.294,6.976,6.976,0,0,1,1.162.084q.49.084.994.21a2.841,2.841,0,0,0,.5.112v1.9h-1.246l-.364-1.078a.643.643,0,0,0-.336-.231,1.629,1.629,0,0,0-.6-.1,1.37,1.37,0,0,0-.84.231.738.738,0,0,0-.308.623.832.832,0,0,0,.35.707,6.573,6.573,0,0,0,1.12.609l.294.126a6.741,6.741,0,0,1,1.778,1.029,1.9,1.9,0,0,1,.644,1.519,2.088,2.088,0,0,1-.826,1.7,3.819,3.819,0,0,1-2.436.665,6.526,6.526,0,0,1-1.316-.119q-.574-.119-1.26-.315l-.462-.126V15.732h1.33Z" transform="translate(0 11)" fill="#005EA2"/>
            </g>
          </g>
        </g>
        <rect id="Rectangle_1042" data-name="Rectangle 1042" width="246.809" height="19.532" transform="translate(-8088.868 13892.335)" fill="none"/>
        <path id="Path_3048" data-name="Path 3048" d="M1.419-7.491l-.9-.132v-.55h5.6l.154,1.7H5.643L5.324-7.535,2.6-7.6v3.1l1.837-.033.154-.913h.605v2.53H4.587l-.154-.946L2.6-3.894V-.616l3.1-.11.583-1.386.649.2L6.611,0H.506V-.539l.913-.11ZM8.261-5.258l-.792-.2V-6.05l1.573-.2h.033l.231.2v.462L9.3-5.324a3.985,3.985,0,0,1,1.045-.638,3.08,3.08,0,0,1,1.243-.286,1.862,1.862,0,0,1,1.072.264,1.408,1.408,0,0,1,.533.809,5.6,5.6,0,0,1,.154,1.468v3.08l.77.077V0H11.506V-.539l.682-.088V-3.718A4.6,4.6,0,0,0,12.1-4.735a.926.926,0,0,0-.33-.55,1.16,1.16,0,0,0-.7-.181,2.114,2.114,0,0,0-.847.2,4.036,4.036,0,0,0-.8.462V-.638l.748.1V0h-2.6V-.539l.693-.1Zm7.183-2.948-.924-.121V-8.8l1.793-.209h.022l.242.165v2.552l-.044.935a3.87,3.87,0,0,1,.968-.605,2.927,2.927,0,0,1,1.243-.286,1.889,1.889,0,0,1,1.078.264,1.4,1.4,0,0,1,.539.809,5.6,5.6,0,0,1,.154,1.468V-.638l.77.1V0H18.656V-.539l.715-.1v-3.08a4.6,4.6,0,0,0-.088-1.017.926.926,0,0,0-.33-.55,1.2,1.2,0,0,0-.726-.181,2.114,2.114,0,0,0-.847.2,3.748,3.748,0,0,0-.792.462V-.638l.759.1V0H14.784V-.539l.66-.088Zm6.6,6.556a1.6,1.6,0,0,1,1.034-1.523A6.442,6.442,0,0,1,25.7-3.7V-4a2.417,2.417,0,0,0-.11-.814.767.767,0,0,0-.38-.435,1.716,1.716,0,0,0-.764-.138,2.973,2.973,0,0,0-1.007.16,6.931,6.931,0,0,0-.885.39l-.275-.572a3.091,3.091,0,0,1,.528-.319,5.372,5.372,0,0,1,.891-.352,3.46,3.46,0,0,1,1.012-.154,2.953,2.953,0,0,1,1.238.214,1.278,1.278,0,0,1,.654.688,3.337,3.337,0,0,1,.2,1.265V-.539h.649v.484q-.22.055-.556.11A3.7,3.7,0,0,1,26.3.11a.673.673,0,0,1-.418-.093.55.55,0,0,1-.11-.412V-.759a3.843,3.843,0,0,1-.808.605,2.135,2.135,0,0,1-1.083.275,1.926,1.926,0,0,1-1.315-.457A1.652,1.652,0,0,1,22.044-1.65Zm2.31,1.023a1.587,1.587,0,0,0,.66-.176,3.536,3.536,0,0,0,.682-.418V-3.113a3.559,3.559,0,0,0-1.809.368,1.1,1.1,0,0,0-.611.963,1.165,1.165,0,0,0,.292.875A1.087,1.087,0,0,0,24.354-.627ZM28.82-5.258l-.792-.2V-6.05l1.573-.2h.033l.231.2v.462l-.011.264A3.985,3.985,0,0,1,30.9-5.962a3.081,3.081,0,0,1,1.243-.286,1.862,1.862,0,0,1,1.072.264,1.408,1.408,0,0,1,.534.809A5.6,5.6,0,0,1,33.9-3.707v3.08l.77.077V0H32.065V-.539l.682-.088V-3.718a4.6,4.6,0,0,0-.088-1.017.926.926,0,0,0-.33-.55,1.16,1.16,0,0,0-.7-.181,2.114,2.114,0,0,0-.847.2,4.037,4.037,0,0,0-.8.462V-.638l.748.1V0h-2.6V-.539l.693-.1Zm6.457,2.244a3.731,3.731,0,0,1,.358-1.65,2.786,2.786,0,0,1,1.056-1.171,3.113,3.113,0,0,1,1.677-.435,3.291,3.291,0,0,1,.814.088q.341.088.814.242l-.044,1.694h-.715L39-5.368q-.066-.308-.836-.308a1.417,1.417,0,0,0-1.215.621A3,3,0,0,0,36.5-3.289,3.289,3.289,0,0,0,37-1.314a1.55,1.55,0,0,0,1.3.676,2.651,2.651,0,0,0,.875-.143,3.115,3.115,0,0,0,.709-.341l.209.44a2.664,2.664,0,0,1-.875.555,2.949,2.949,0,0,1-1.172.247,2.722,2.722,0,0,1-1.523-.407A2.518,2.518,0,0,1,35.59-1.4,3.949,3.949,0,0,1,35.277-3.014ZM42.295-7.2a.67.67,0,0,1-.528-.2.733.733,0,0,1-.176-.506.823.823,0,0,1,.215-.583.764.764,0,0,1,.588-.231.7.7,0,0,1,.55.2.733.733,0,0,1,.176.506.814.814,0,0,1-.215.594.8.8,0,0,1-.6.22Zm-.44,1.947-.836-.2v-.583l1.705-.209h.022l.253.2V-.627l.88.088V0H40.964V-.539l.891-.1Zm3.41,0-.792-.2V-6.05l1.573-.2h.033l.231.2v.462l-.011.264a3.985,3.985,0,0,1,1.045-.638,3.08,3.08,0,0,1,1.243-.286,1.862,1.862,0,0,1,1.072.264,1.408,1.408,0,0,1,.534.809,5.6,5.6,0,0,1,.154,1.468v3.08l.77.077V0H48.51V-.539l.682-.088V-3.718A4.6,4.6,0,0,0,49.1-4.735a.926.926,0,0,0-.33-.55,1.16,1.16,0,0,0-.7-.181,2.114,2.114,0,0,0-.847.2,4.036,4.036,0,0,0-.8.462V-.638l.748.1V0h-2.6V-.539l.693-.1ZM54.483,2.97a3.619,3.619,0,0,1-2.041-.446A1.419,1.419,0,0,1,51.81,1.3a1.461,1.461,0,0,1,.3-.891,2.019,2.019,0,0,1,.72-.616.981.981,0,0,1-.506-.924,1.34,1.34,0,0,1,.231-.748,1.531,1.531,0,0,1,.6-.539,1.864,1.864,0,0,1-.841-.693A1.922,1.922,0,0,1,52.03-4.18a1.791,1.791,0,0,1,.357-1.111,2.294,2.294,0,0,1,.946-.726,3.128,3.128,0,0,1,1.249-.253,2.879,2.879,0,0,1,1.738.462,1.723,1.723,0,0,1,.506-.319,1.743,1.743,0,0,1,.726-.154h.374v.968h-1.21a1.7,1.7,0,0,1,.264.946,2.066,2.066,0,0,1-.324,1.15,2.147,2.147,0,0,1-.9.776,3,3,0,0,1-1.3.275,3.316,3.316,0,0,1-.847-.1,1.42,1.42,0,0,0-.253.341.774.774,0,0,0-.1.363.57.57,0,0,0,.264.544,2.106,2.106,0,0,0,.946.149H55.7a2.543,2.543,0,0,1,1.584.407A1.385,1.385,0,0,1,57.805.693a1.721,1.721,0,0,1-.451,1.15,3.052,3.052,0,0,1-1.215.825A4.459,4.459,0,0,1,54.483,2.97Zm.077-5.742q1.254,0,1.254-1.485A1.544,1.544,0,0,0,55.49-5.34a1.272,1.272,0,0,0-.973-.347,1.33,1.33,0,0,0-.957.336,1.425,1.425,0,0,0-.352,1.073,1.677,1.677,0,0,0,.335,1.1A1.242,1.242,0,0,0,54.56-2.772Zm.022,5.1A3.2,3.2,0,0,0,55.6,2.173a1.851,1.851,0,0,0,.775-.473,1.03,1.03,0,0,0,.3-.731.9.9,0,0,0-.264-.72A1.651,1.651,0,0,0,55.385.022h-1.3a3.42,3.42,0,0,1-.693-.055,1.608,1.608,0,0,0-.451,1.111,1.161,1.161,0,0,0,.374.935A1.959,1.959,0,0,0,54.582,2.332ZM62.909.11a1.333,1.333,0,0,1-.935-.286,1.294,1.294,0,0,1-.308-.979V-5.379h-.792v-.495q.055-.011.308-.077a1.4,1.4,0,0,0,.341-.121.672.672,0,0,0,.275-.4,5.472,5.472,0,0,0,.209-.671q.121-.462.143-.55H62.8l.022,1.584h1.837v.726H62.821V-2a6.769,6.769,0,0,0,.039.88.442.442,0,0,0,.165.33.888.888,0,0,0,.434.077,3.129,3.129,0,0,0,.655-.077,2.957,2.957,0,0,0,.555-.165l.165.495a2.992,2.992,0,0,1-.852.385A3.571,3.571,0,0,1,62.909.11Zm3.135-8.316-.924-.121V-8.8l1.793-.209h.022l.242.165v2.552l-.044.935a3.87,3.87,0,0,1,.968-.605,2.927,2.927,0,0,1,1.243-.286,1.889,1.889,0,0,1,1.078.264,1.4,1.4,0,0,1,.539.809,5.6,5.6,0,0,1,.154,1.468V-.638l.77.1V0H69.256V-.539l.715-.1v-3.08a4.6,4.6,0,0,0-.088-1.017.926.926,0,0,0-.33-.55,1.2,1.2,0,0,0-.726-.181,2.114,2.114,0,0,0-.847.2,3.748,3.748,0,0,0-.792.462V-.638l.759.1V0H65.384V-.539l.66-.088ZM75.35.121a2.451,2.451,0,0,1-2.03-.869,3.6,3.6,0,0,1-.7-2.321,3.717,3.717,0,0,1,.363-1.683A2.675,2.675,0,0,1,74-5.874a2.822,2.822,0,0,1,1.491-.4,2.149,2.149,0,0,1,1.59.567,2.3,2.3,0,0,1,.6,1.622,5.117,5.117,0,0,1-.077,1.023H73.821A3.024,3.024,0,0,0,74.327-1.3,1.6,1.6,0,0,0,75.7-.638,2.9,2.9,0,0,0,76.62-.8a2.292,2.292,0,0,0,.743-.38l.209.484a2.608,2.608,0,0,1-.946.572A3.517,3.517,0,0,1,75.35.121Zm1.122-3.762a3.34,3.34,0,0,0,.033-.473,1.978,1.978,0,0,0-.3-1.127,1.047,1.047,0,0,0-.918-.412,1.249,1.249,0,0,0-1.018.462,2.688,2.688,0,0,0-.435,1.551Zm5.247-4.565-.924-.121V-8.8l1.793-.209h.022l.242.165v2.552l-.044.935a3.87,3.87,0,0,1,.968-.605,2.927,2.927,0,0,1,1.243-.286,1.889,1.889,0,0,1,1.078.264,1.4,1.4,0,0,1,.539.809,5.6,5.6,0,0,1,.154,1.468V-.638l.77.1V0H84.931V-.539l.715-.1v-3.08a4.6,4.6,0,0,0-.088-1.017.926.926,0,0,0-.33-.55,1.2,1.2,0,0,0-.726-.181,2.114,2.114,0,0,0-.847.2,3.748,3.748,0,0,0-.792.462V-.638l.759.1V0H81.059V-.539l.66-.088ZM91.025.121A2.451,2.451,0,0,1,89-.748a3.6,3.6,0,0,1-.7-2.321,3.717,3.717,0,0,1,.363-1.683,2.675,2.675,0,0,1,1.018-1.122,2.822,2.822,0,0,1,1.491-.4,2.149,2.149,0,0,1,1.59.567,2.3,2.3,0,0,1,.6,1.622,5.117,5.117,0,0,1-.077,1.023H89.5A3.024,3.024,0,0,0,90-1.3a1.6,1.6,0,0,0,1.375.666A2.9,2.9,0,0,0,92.3-.8a2.292,2.292,0,0,0,.743-.38l.209.484a2.608,2.608,0,0,1-.946.572A3.517,3.517,0,0,1,91.025.121Zm1.122-3.762a3.34,3.34,0,0,0,.033-.473,1.978,1.978,0,0,0-.3-1.127,1.047,1.047,0,0,0-.918-.412,1.249,1.249,0,0,0-1.018.462,2.688,2.688,0,0,0-.435,1.551Zm2.1,1.991a1.6,1.6,0,0,1,1.034-1.523A6.442,6.442,0,0,1,97.9-3.7V-4a2.417,2.417,0,0,0-.11-.814.767.767,0,0,0-.38-.435,1.716,1.716,0,0,0-.765-.138,2.973,2.973,0,0,0-1.007.16,6.931,6.931,0,0,0-.885.39l-.275-.572a3.092,3.092,0,0,1,.528-.319,5.372,5.372,0,0,1,.891-.352,3.46,3.46,0,0,1,1.012-.154,2.953,2.953,0,0,1,1.238.214,1.278,1.278,0,0,1,.655.688A3.337,3.337,0,0,1,99-4.07V-.539h.649v.484q-.22.055-.556.11A3.7,3.7,0,0,1,98.5.11a.673.673,0,0,1-.418-.093.55.55,0,0,1-.11-.412V-.759a3.843,3.843,0,0,1-.809.605,2.135,2.135,0,0,1-1.083.275,1.926,1.926,0,0,1-1.314-.457A1.652,1.652,0,0,1,94.248-1.65Zm2.31,1.023a1.587,1.587,0,0,0,.66-.176,3.536,3.536,0,0,0,.682-.418V-3.113a3.559,3.559,0,0,0-1.81.368,1.1,1.1,0,0,0-.611.963,1.165,1.165,0,0,0,.292.875A1.087,1.087,0,0,0,96.558-.627Zm4.609-7.579-.891-.121V-8.8l1.771-.209h.022l.242.165V-.627l.935.088V0h-2.97V-.539l.891-.1ZM105.853.11a1.333,1.333,0,0,1-.935-.286,1.294,1.294,0,0,1-.308-.979V-5.379h-.792v-.495q.055-.011.308-.077a1.4,1.4,0,0,0,.341-.121.672.672,0,0,0,.275-.4,5.473,5.473,0,0,0,.209-.671q.121-.462.143-.55h.649l.022,1.584H107.6v.726h-1.837V-2a6.77,6.77,0,0,0,.038.88.442.442,0,0,0,.165.33.888.888,0,0,0,.435.077,3.129,3.129,0,0,0,.654-.077,2.957,2.957,0,0,0,.556-.165l.165.495a2.992,2.992,0,0,1-.853.385A3.571,3.571,0,0,1,105.853.11Zm3.135-8.316-.924-.121V-8.8l1.793-.209h.022l.242.165v2.552l-.044.935a3.87,3.87,0,0,1,.968-.605,2.927,2.927,0,0,1,1.243-.286,1.889,1.889,0,0,1,1.078.264,1.4,1.4,0,0,1,.539.809,5.6,5.6,0,0,1,.154,1.468V-.638l.77.1V0H112.2V-.539l.715-.1v-3.08a4.6,4.6,0,0,0-.088-1.017.926.926,0,0,0-.33-.55,1.2,1.2,0,0,0-.726-.181,2.114,2.114,0,0,0-.847.2,3.748,3.748,0,0,0-.792.462V-.638l.759.1V0h-2.563V-.539l.66-.088ZM118.14-1.65a1.6,1.6,0,0,1,1.034-1.523,6.442,6.442,0,0,1,2.618-.522V-4a2.417,2.417,0,0,0-.11-.814.767.767,0,0,0-.38-.435,1.716,1.716,0,0,0-.765-.138,2.973,2.973,0,0,0-1.007.16,6.931,6.931,0,0,0-.885.39l-.275-.572a3.092,3.092,0,0,1,.528-.319,5.372,5.372,0,0,1,.891-.352,3.46,3.46,0,0,1,1.012-.154,2.953,2.953,0,0,1,1.238.214,1.278,1.278,0,0,1,.655.688,3.337,3.337,0,0,1,.2,1.265V-.539h.649v.484q-.22.055-.556.11A3.7,3.7,0,0,1,122.4.11a.673.673,0,0,1-.418-.093.55.55,0,0,1-.11-.412V-.759a3.843,3.843,0,0,1-.809.605,2.135,2.135,0,0,1-1.083.275,1.926,1.926,0,0,1-1.314-.457A1.652,1.652,0,0,1,118.14-1.65Zm2.31,1.023a1.587,1.587,0,0,0,.66-.176,3.536,3.536,0,0,0,.682-.418V-3.113a3.559,3.559,0,0,0-1.81.368,1.1,1.1,0,0,0-.611.963,1.165,1.165,0,0,0,.292.875A1.087,1.087,0,0,0,120.45-.627Zm4.466-4.631-.792-.2V-6.05l1.573-.2h.033l.231.2v.462l-.011.264A3.985,3.985,0,0,1,127-5.962a3.081,3.081,0,0,1,1.243-.286,1.862,1.862,0,0,1,1.072.264,1.408,1.408,0,0,1,.533.809A5.6,5.6,0,0,1,130-3.707v3.08l.77.077V0h-2.607V-.539l.682-.088V-3.718a4.6,4.6,0,0,0-.088-1.017.926.926,0,0,0-.33-.55,1.16,1.16,0,0,0-.7-.181,2.114,2.114,0,0,0-.847.2,4.037,4.037,0,0,0-.8.462V-.638l.748.1V0h-2.6V-.539l.693-.1ZM133.881.121a2.308,2.308,0,0,1-1.21-.33,2.278,2.278,0,0,1-.874-1.012,3.9,3.9,0,0,1-.324-1.683,3.759,3.759,0,0,1,.385-1.705,2.952,2.952,0,0,1,1.105-1.215,3.166,3.166,0,0,1,1.7-.445,4.036,4.036,0,0,1,1.023.121V-8.206l-1.122-.132v-.473l1.98-.2h.033l.242.176V-.561h.638v.506q-.352.077-.611.121A3.243,3.243,0,0,1,136.3.11a.649.649,0,0,1-.407-.1.535.535,0,0,1-.121-.418V-.759a2.474,2.474,0,0,1-.809.627A2.368,2.368,0,0,1,133.881.121Zm.44-.781a1.729,1.729,0,0,0,.8-.193,1.579,1.579,0,0,0,.561-.445V-5.324a.786.786,0,0,0-.413-.237,2.229,2.229,0,0,0-.687-.1,1.649,1.649,0,0,0-1.369.655,3.263,3.263,0,0,0-.512,2.018,2.825,2.825,0,0,0,.451,1.76A1.418,1.418,0,0,0,134.321-.66Zm5.94-5.445h2.563v.517l-.836.132.913,3.234.319,1.4.319-1.408L144.6-6.105h1.078l1.089,3.872.319,1.419.352-1.408.891-3.223-.836-.143v-.517h2.233v.517l-.583.143L147.433.088H146.4L145.233-3.8l-.286-1.364L144.716-3.8,143.6.088h-1.023l-1.76-5.544-.561-.132ZM152.713.121a2.451,2.451,0,0,1-2.03-.869,3.6,3.6,0,0,1-.7-2.321,3.717,3.717,0,0,1,.363-1.683,2.675,2.675,0,0,1,1.018-1.122,2.822,2.822,0,0,1,1.49-.4,2.149,2.149,0,0,1,1.59.567,2.3,2.3,0,0,1,.6,1.622,5.115,5.115,0,0,1-.077,1.023h-3.784A3.024,3.024,0,0,0,151.69-1.3a1.6,1.6,0,0,0,1.375.666,2.9,2.9,0,0,0,.919-.159,2.292,2.292,0,0,0,.743-.38l.209.484a2.608,2.608,0,0,1-.946.572A3.517,3.517,0,0,1,152.713.121Zm1.122-3.762a3.34,3.34,0,0,0,.033-.473,1.978,1.978,0,0,0-.3-1.127,1.047,1.047,0,0,0-.919-.412,1.249,1.249,0,0,0-1.018.462,2.688,2.688,0,0,0-.434,1.551Zm2.9-4.565-.891-.121V-8.8l1.771-.209h.022l.242.165V-.627l.935.088V0h-2.97V-.539l.891-.1Zm3.608,0-.891-.121V-8.8l1.771-.209h.022l.242.165V-.627l.935.088V0h-2.97V-.539l.891-.1Zm7.986,5.082h-4.444v-.8h4.444ZM169.488-8.8l1.76-.209h.022l.253.165v3.311a2.791,2.791,0,0,1,.786-.528,2.416,2.416,0,0,1,1.018-.209,2.339,2.339,0,0,1,1.2.319,2.228,2.228,0,0,1,.869.99,3.887,3.887,0,0,1,.324,1.694,3.739,3.739,0,0,1-.391,1.716A3.015,3.015,0,0,1,174.218-.33a3.123,3.123,0,0,1-1.683.451,6.017,6.017,0,0,1-1.386-.148,2.14,2.14,0,0,1-.759-.27v-7.92l-.9-.121Zm3.388,3.311a1.61,1.61,0,0,0-.775.193,2.146,2.146,0,0,0-.577.435V-.814q.066.154.38.248a2.482,2.482,0,0,0,.71.093,1.63,1.63,0,0,0,1.364-.682,3.257,3.257,0,0,0,.517-1.991,2.854,2.854,0,0,0-.451-1.76A1.409,1.409,0,0,0,172.876-5.489Zm6.457,5.61a2.451,2.451,0,0,1-2.03-.869,3.6,3.6,0,0,1-.7-2.321,3.717,3.717,0,0,1,.363-1.683,2.675,2.675,0,0,1,1.018-1.122,2.822,2.822,0,0,1,1.49-.4,2.149,2.149,0,0,1,1.59.567,2.3,2.3,0,0,1,.6,1.622,5.115,5.115,0,0,1-.077,1.023H177.8A3.024,3.024,0,0,0,178.31-1.3a1.6,1.6,0,0,0,1.375.666A2.9,2.9,0,0,0,180.6-.8a2.292,2.292,0,0,0,.743-.38l.209.484a2.608,2.608,0,0,1-.946.572A3.517,3.517,0,0,1,179.333.121Zm1.122-3.762a3.34,3.34,0,0,0,.033-.473,1.978,1.978,0,0,0-.3-1.127,1.047,1.047,0,0,0-.919-.412,1.249,1.249,0,0,0-1.018.462,2.688,2.688,0,0,0-.434,1.551Zm3.4-3.564a.67.67,0,0,1-.528-.2.733.733,0,0,1-.176-.506.823.823,0,0,1,.214-.583.764.764,0,0,1,.589-.231.7.7,0,0,1,.55.2.733.733,0,0,1,.176.506.814.814,0,0,1-.214.594.8.8,0,0,1-.6.22Zm-.44,1.947-.836-.2v-.583l1.705-.209h.022l.253.2V-.627l.88.088V0h-2.915V-.539l.891-.1Zm3.41,0-.792-.2V-6.05l1.573-.2h.033l.231.2v.462l-.011.264a3.985,3.985,0,0,1,1.045-.638,3.08,3.08,0,0,1,1.243-.286,1.862,1.862,0,0,1,1.072.264,1.408,1.408,0,0,1,.533.809,5.6,5.6,0,0,1,.154,1.468v3.08l.77.077V0h-2.607V-.539l.682-.088V-3.718a4.6,4.6,0,0,0-.088-1.017.926.926,0,0,0-.33-.55,1.16,1.16,0,0,0-.7-.181,2.114,2.114,0,0,0-.847.2,4.036,4.036,0,0,0-.8.462V-.638l.748.1V0h-2.6V-.539l.693-.1Zm9.218,8.228A3.619,3.619,0,0,1,194,2.524a1.419,1.419,0,0,1-.632-1.226,1.461,1.461,0,0,1,.3-.891,2.019,2.019,0,0,1,.721-.616.981.981,0,0,1-.506-.924,1.34,1.34,0,0,1,.231-.748,1.531,1.531,0,0,1,.6-.539,1.864,1.864,0,0,1-.842-.693,1.922,1.922,0,0,1-.291-1.067,1.791,1.791,0,0,1,.357-1.111,2.294,2.294,0,0,1,.946-.726,3.128,3.128,0,0,1,1.249-.253,2.879,2.879,0,0,1,1.738.462,1.723,1.723,0,0,1,.506-.319,1.744,1.744,0,0,1,.726-.154h.374v.968h-1.21a1.7,1.7,0,0,1,.264.946,2.066,2.066,0,0,1-.325,1.15,2.147,2.147,0,0,1-.9.776,3,3,0,0,1-1.3.275,3.316,3.316,0,0,1-.847-.1,1.42,1.42,0,0,0-.253.341.774.774,0,0,0-.1.363.57.57,0,0,0,.264.544,2.106,2.106,0,0,0,.946.149h1.243a2.543,2.543,0,0,1,1.584.407,1.385,1.385,0,0,1,.517,1.155,1.721,1.721,0,0,1-.451,1.15,3.052,3.052,0,0,1-1.215.825A4.459,4.459,0,0,1,196.042,2.97Zm.077-5.742q1.254,0,1.254-1.485a1.544,1.544,0,0,0-.325-1.083,1.272,1.272,0,0,0-.973-.347,1.33,1.33,0,0,0-.957.336,1.425,1.425,0,0,0-.352,1.073,1.677,1.677,0,0,0,.335,1.1A1.242,1.242,0,0,0,196.119-2.772Zm.022,5.1a3.2,3.2,0,0,0,1.017-.159,1.851,1.851,0,0,0,.776-.473,1.03,1.03,0,0,0,.3-.731.9.9,0,0,0-.264-.72,1.651,1.651,0,0,0-1.023-.226h-1.3a3.42,3.42,0,0,1-.693-.055,1.608,1.608,0,0,0-.451,1.111,1.161,1.161,0,0,0,.374.935A1.959,1.959,0,0,0,196.141,2.332ZM.5,12.931A3.454,3.454,0,0,1,.9,11.215,2.824,2.824,0,0,1,3.4,9.73a2.5,2.5,0,0,1,2.085.88,3.606,3.606,0,0,1,.7,2.31,3.477,3.477,0,0,1-.407,1.727,2.792,2.792,0,0,1-1.072,1.1,2.862,2.862,0,0,1-1.425.374,2.5,2.5,0,0,1-2.085-.88A3.606,3.606,0,0,1,.5,12.931Zm2.849,2.563a1.309,1.309,0,0,0,1.166-.627,3.444,3.444,0,0,0,.407-1.859,4.207,4.207,0,0,0-.374-1.936,1.259,1.259,0,0,0-1.2-.715,1.322,1.322,0,0,0-1.171.627,3.407,3.407,0,0,0-.413,1.859,4.1,4.1,0,0,0,.385,1.936A1.273,1.273,0,0,0,3.344,15.494Zm4.664-4.873H6.974v-.506l1.034-.209V9.389a2.32,2.32,0,0,1,.358-1.254A2.669,2.669,0,0,1,9.3,7.227a2.4,2.4,0,0,1,1.227-.335,1.917,1.917,0,0,1,.649.1v1.1a1.071,1.071,0,0,0-.391-.17,2.359,2.359,0,0,0-.643-.082.953.953,0,0,0-.753.269,1.417,1.417,0,0,0-.236.929v.869H10.67v.715H9.152v4.752l1.221.088V16h-3.3v-.539l.935-.1Zm6.017,3.729a1.6,1.6,0,0,1,1.034-1.524,6.442,6.442,0,0,1,2.618-.523V12a2.417,2.417,0,0,0-.11-.814.767.767,0,0,0-.379-.435,1.716,1.716,0,0,0-.764-.137,2.973,2.973,0,0,0-1.007.16,6.931,6.931,0,0,0-.885.39l-.275-.572a3.092,3.092,0,0,1,.528-.319,5.372,5.372,0,0,1,.891-.352,3.46,3.46,0,0,1,1.012-.154,2.953,2.953,0,0,1,1.237.214,1.278,1.278,0,0,1,.654.688,3.337,3.337,0,0,1,.2,1.265v3.531h.649v.484q-.22.055-.556.11a3.7,3.7,0,0,1-.588.055.673.673,0,0,1-.418-.094.55.55,0,0,1-.11-.413v-.363a3.843,3.843,0,0,1-.809.6,2.135,2.135,0,0,1-1.083.275,1.926,1.926,0,0,1-1.314-.457A1.652,1.652,0,0,1,14.025,14.35Zm2.31,1.023a1.587,1.587,0,0,0,.66-.176,3.536,3.536,0,0,0,.682-.418V12.887a3.559,3.559,0,0,0-1.809.368,1.1,1.1,0,0,0-.611.963,1.165,1.165,0,0,0,.292.874A1.087,1.087,0,0,0,16.335,15.373Zm4.609-7.579-.891-.121V7.2l1.771-.209h.022l.242.165v8.217l.935.088V16h-2.97v-.539l.891-.1Zm3.608,0-.891-.121V7.2l1.771-.209h.022l.242.165v8.217l.935.088V16h-2.97v-.539l.891-.1ZM32.6,7.761h1.21l2.673,7.59.682.11V16h-2.9v-.539l.913-.11-.517-1.628H31.449l-.517,1.628.946.11V16H29.271v-.539l.682-.11Zm.693,1.76-.275-.968-.264.99-1.111,3.531h2.805Zm4.158,5.94.671-.1v-4.62l-.792-.2V9.95l1.573-.2.2.143.066.44-.011.352a3.828,3.828,0,0,1,1.051-.643A3.023,3.023,0,0,1,41.4,9.752a2,2,0,0,1,.957.2,1.261,1.261,0,0,1,.55.616,3.713,3.713,0,0,1,.985-.556,3.138,3.138,0,0,1,1.183-.259,1.9,1.9,0,0,1,1.067.259,1.4,1.4,0,0,1,.544.8,5.36,5.36,0,0,1,.16,1.458v3.091l.792.1V16H45.023v-.539l.682-.1V12.3a4.419,4.419,0,0,0-.094-1.017.947.947,0,0,0-.352-.566,1.254,1.254,0,0,0-.742-.187,2.113,2.113,0,0,0-.77.16,2.815,2.815,0,0,0-.693.38,5.756,5.756,0,0,1,.1,1.221v3.069l.781.1V16H41.272v-.539l.726-.1v-3.08a4.879,4.879,0,0,0-.083-1.023.924.924,0,0,0-.313-.544,1.131,1.131,0,0,0-.7-.182,2.077,2.077,0,0,0-.842.2,3.528,3.528,0,0,0-.775.462v4.169l.737.1V16H37.455Zm13.607.66a2.451,2.451,0,0,1-2.029-.869,3.6,3.6,0,0,1-.7-2.321,3.717,3.717,0,0,1,.363-1.683,2.675,2.675,0,0,1,1.018-1.122,2.822,2.822,0,0,1,1.491-.4,2.149,2.149,0,0,1,1.59.567,2.3,2.3,0,0,1,.6,1.623,5.116,5.116,0,0,1-.077,1.023H49.533a3.024,3.024,0,0,0,.506,1.755,1.6,1.6,0,0,0,1.375.665,2.9,2.9,0,0,0,.918-.159,2.292,2.292,0,0,0,.743-.38l.209.484a2.608,2.608,0,0,1-.946.572A3.517,3.517,0,0,1,51.062,16.121Zm1.122-3.762a3.341,3.341,0,0,0,.033-.473,1.978,1.978,0,0,0-.3-1.127A1.047,1.047,0,0,0,51,10.346a1.249,1.249,0,0,0-1.017.462,2.688,2.688,0,0,0-.435,1.551Zm2.123,3.1.825-.066V10.742l-.792-.2V9.95l1.518-.2h.022l.242.2v.2l-.033.858h.033a2.874,2.874,0,0,1,.4-.484,3.053,3.053,0,0,1,.737-.544,2,2,0,0,1,.979-.248,1.022,1.022,0,0,1,.363.055v1.232a.855.855,0,0,0-.247-.1,1.359,1.359,0,0,0-.38-.05,2.845,2.845,0,0,0-1.694.561v3.96l1.4.088V16H54.307ZM60.566,8.8a.67.67,0,0,1-.528-.2.733.733,0,0,1-.176-.506.823.823,0,0,1,.215-.583.764.764,0,0,1,.588-.231.7.7,0,0,1,.55.2.733.733,0,0,1,.176.506.814.814,0,0,1-.215.594.8.8,0,0,1-.6.22Zm-.44,1.947-.836-.2V9.961l1.705-.209h.022l.253.2v5.423l.88.088V16H59.235v-.539l.891-.1Zm2.618,2.244a3.731,3.731,0,0,1,.358-1.65,2.786,2.786,0,0,1,1.056-1.172,3.113,3.113,0,0,1,1.677-.435,3.291,3.291,0,0,1,.814.088q.341.088.814.242l-.044,1.694H66.7l-.242-1.122q-.066-.308-.836-.308a1.417,1.417,0,0,0-1.215.621,3,3,0,0,0-.445,1.766,3.289,3.289,0,0,0,.5,1.974,1.55,1.55,0,0,0,1.3.676,2.651,2.651,0,0,0,.875-.143,3.115,3.115,0,0,0,.709-.341l.209.44a2.663,2.663,0,0,1-.874.556,2.949,2.949,0,0,1-1.172.248,2.721,2.721,0,0,1-1.523-.407,2.518,2.518,0,0,1-.935-1.116A3.949,3.949,0,0,1,62.744,12.986Zm5.72,1.364A1.6,1.6,0,0,1,69.5,12.826a6.442,6.442,0,0,1,2.618-.523V12a2.417,2.417,0,0,0-.11-.814.767.767,0,0,0-.38-.435,1.716,1.716,0,0,0-.765-.137,2.973,2.973,0,0,0-1.007.16,6.931,6.931,0,0,0-.885.39l-.275-.572a3.092,3.092,0,0,1,.528-.319,5.372,5.372,0,0,1,.891-.352,3.46,3.46,0,0,1,1.012-.154,2.953,2.953,0,0,1,1.238.214,1.278,1.278,0,0,1,.655.688,3.337,3.337,0,0,1,.2,1.265v3.531h.649v.484q-.22.055-.556.11a3.7,3.7,0,0,1-.589.055.673.673,0,0,1-.418-.094.55.55,0,0,1-.11-.413v-.363a3.843,3.843,0,0,1-.809.6,2.135,2.135,0,0,1-1.083.275,1.926,1.926,0,0,1-1.314-.457A1.652,1.652,0,0,1,68.464,14.35Zm2.31,1.023a1.587,1.587,0,0,0,.66-.176,3.536,3.536,0,0,0,.682-.418V12.887a3.559,3.559,0,0,0-1.81.368,1.1,1.1,0,0,0-.611.963,1.165,1.165,0,0,0,.292.874A1.087,1.087,0,0,0,70.774,15.373Zm4.466-4.631-.792-.2V9.95l1.573-.2h.033l.231.2v.462l-.011.264a3.985,3.985,0,0,1,1.045-.638,3.081,3.081,0,0,1,1.243-.286,1.862,1.862,0,0,1,1.073.264,1.408,1.408,0,0,1,.534.809,5.6,5.6,0,0,1,.154,1.468v3.08l.77.077V16H78.485v-.539l.682-.088V12.282a4.6,4.6,0,0,0-.088-1.017.926.926,0,0,0-.33-.55,1.16,1.16,0,0,0-.7-.182,2.114,2.114,0,0,0-.847.2,4.037,4.037,0,0,0-.8.462v4.169l.748.1V16h-2.6v-.539l.693-.1Zm7.612,4.378a.948.948,0,0,0,.467.3,2.158,2.158,0,0,0,.754.132A1.451,1.451,0,0,0,85,15.307a.818.818,0,0,0,.3-.671.773.773,0,0,0-.187-.517,1.664,1.664,0,0,0-.522-.39q-.336-.17-.963-.413a3.051,3.051,0,0,1-1.238-.764,1.713,1.713,0,0,1-.39-1.172,1.313,1.313,0,0,1,.291-.847,1.906,1.906,0,0,1,.8-.567,3.055,3.055,0,0,1,1.138-.2,4.5,4.5,0,0,1,.886.077,5.39,5.39,0,0,1,.61.154q.231.077.308.1v1.364H85.36l-.22-.814a.576.576,0,0,0-.352-.226,2.046,2.046,0,0,0-.638-.093,1.325,1.325,0,0,0-.8.22.7.7,0,0,0-.3.594.888.888,0,0,0,.16.544,1.223,1.223,0,0,0,.4.347q.242.132.66.308l.22.088a7.842,7.842,0,0,1,1,.462,2.024,2.024,0,0,1,.644.578,1.453,1.453,0,0,1,.258.874,1.551,1.551,0,0,1-.632,1.3,2.787,2.787,0,0,1-1.732.484,4.607,4.607,0,0,1-1.128-.149,7.251,7.251,0,0,1-.962-.3V14.262h.715Z" transform="translate(-8083.937 13896.139)" fill="#565c65"/>
      </g>
      <path id="Path_3047" data-name="Path 3047" d="M0,0H195.913" transform="translate(48.057 60.734)" fill="none" stroke="#dfe1e2" stroke-linecap="round" stroke-width="1"/>
    </g>
  </g>
</svg>
