<svg width="180" height="140" viewBox="0 0 180 140" fill="none" xmlns="http://www.w3.org/2000/svg">
<g id="Frame 1410086645">
<rect id="Rectangle 34624297" x="10" y="24" width="157" height="103" rx="22" fill="#FFE5DF"/>
<g id="Group 1000004305">
<rect id="Rectangle 34624163" x="36.2344" y="43.5881" width="105.471" height="63.4118" rx="8" fill="#19184A"/>
<rect id="Rectangle 34624147" x="33" y="41" width="111.903" height="63.4118" rx="8" fill="white"/>
<rect id="Rectangle 34624148" x="40.7656" y="59.1177" width="33" height="37.5294" rx="4" fill="#19184A"/>
<path id="Rectangle 34624149" d="M40.7656 92.4118C40.7656 86.8889 45.2428 82.4118 50.7656 82.4118H63.7656C69.2885 82.4118 73.7656 86.8889 73.7656 92.4118V96.6471H40.7656V92.4118Z" fill="#558BFF"/>
<rect id="Rectangle 34624150" x="40.4609" y="50.3242" width="80.1972" height="1.86505" fill="#9DD3FF"/>
<rect id="Rectangle 34624151" x="81.4922" y="59.0293" width="55.9516" height="1.86505" fill="#9DD3FF"/>
<rect id="Rectangle 34624153" x="125.629" y="50.3242" width="11.812" height="1.86505" fill="#9DD3FF"/>
<rect id="Rectangle 34624155" x="125.629" y="76.4365" width="11.812" height="1.86505" fill="#9DD3FF"/>
<rect id="Rectangle 34624152" x="81.4922" y="67.7317" width="55.9516" height="1.86505" fill="#9DD3FF"/>
<rect id="Rectangle 34624156" x="81.4922" y="85.1389" width="55.9516" height="1.86505" fill="#9DD3FF"/>
<rect id="Rectangle 34624157" x="82.7344" y="95.0876" width="8.08189" height="1.86505" fill="#9DD3FF"/>
<rect id="Rectangle 34624158" x="92.0586" y="95.0876" width="7.46021" height="1.86505" fill="#9DD3FF"/>
<rect id="Rectangle 34624159" x="100.766" y="95.0876" width="8.08189" height="1.86505" fill="#9DD3FF"/>
<rect id="Rectangle 34624160" x="110.09" y="95.0876" width="8.08189" height="1.86505" fill="#9DD3FF"/>
<rect id="Rectangle 34624161" x="120.035" y="95.0876" width="7.46021" height="1.86505" fill="#9DD3FF"/>
<rect id="Rectangle 34624162" x="129.359" y="95.0876" width="8.08189" height="1.86505" fill="#9DD3FF"/>
<circle id="Ellipse 67" cx="57.246" cy="71.4635" r="8.08189" fill="white"/>
<rect id="Rectangle 34624154" x="81.4922" y="76.4365" width="34.1926" height="1.86505" fill="#9DD3FF"/>
</g>
<g id="Group 1000005353">
<g id="Group 10">
<rect id="Rectangle 2554" x="143" y="16" width="32" height="32" rx="16" fill="#FB6E4F"/>
</g>
<path id="Vector 117" d="M152.414 25.4136L165.591 38.59" stroke="white" stroke-width="2"/>
<path id="Vector 118" d="M165.586 25.4136L152.409 38.59" stroke="white" stroke-width="2"/>
</g>
</g>
</svg>
