<svg width="40" height="40" viewBox="0 0 40 40" fill="none" xmlns="http://www.w3.org/2000/svg">
<g clip-path="url(#clip0_1138_20935)">
<circle cx="19.9999" cy="19.9999" r="16.6667" fill="#5283EC"/>
<path d="M20.4492 23.4016H17.959C17.9655 22.8157 18.0111 22.3111 18.0957 21.8879C18.1868 21.4583 18.3398 21.0709 18.5547 20.7258C18.776 20.3808 19.069 20.039 19.4336 19.7004C19.7396 19.427 20.0065 19.1666 20.2344 18.9192C20.4622 18.6718 20.6413 18.4179 20.7715 18.1575C20.9017 17.8905 20.9668 17.5943 20.9668 17.2688C20.9668 16.8912 20.9082 16.5787 20.791 16.3313C20.6803 16.0774 20.5111 15.8853 20.2832 15.7551C20.0618 15.6249 19.7819 15.5598 19.4434 15.5598C19.1634 15.5598 18.903 15.6217 18.6621 15.7454C18.4212 15.8625 18.2227 16.0448 18.0664 16.2922C17.9167 16.5396 17.8385 16.8652 17.832 17.2688H15C15.0195 16.3769 15.2246 15.6412 15.6152 15.0618C16.0124 14.4758 16.543 14.0429 17.207 13.7629C17.8711 13.4765 18.6165 13.3333 19.4434 13.3333C20.3548 13.3333 21.1361 13.483 21.7871 13.7825C22.4381 14.0754 22.9362 14.5084 23.2812 15.0813C23.6263 15.6477 23.7988 16.3378 23.7988 17.1516C23.7988 17.718 23.6882 18.2226 23.4668 18.6653C23.2454 19.1015 22.9557 19.5084 22.5977 19.886C22.2396 20.2636 21.8457 20.6542 21.416 21.0579C21.0449 21.3899 20.791 21.7382 20.6543 22.1028C20.5241 22.4674 20.4557 22.9003 20.4492 23.4016ZM17.666 26.4192C17.666 26.0025 17.8092 25.6575 18.0957 25.384C18.3822 25.1041 18.7663 24.9641 19.248 24.9641C19.7233 24.9641 20.1042 25.1041 20.3906 25.384C20.6836 25.6575 20.8301 26.0025 20.8301 26.4192C20.8301 26.8228 20.6836 27.1646 20.3906 27.4446C20.1042 27.7245 19.7233 27.8645 19.248 27.8645C18.7663 27.8645 18.3822 27.7245 18.0957 27.4446C17.8092 27.1646 17.666 26.8228 17.666 26.4192Z" fill="white"/>
</g>
<defs>
<clipPath id="clip0_1138_20935">
<rect width="40" height="40" fill="white"/>
</clipPath>
</defs>
</svg>
