<svg width="12" height="12" viewBox="0 0 12 12" fill="none" xmlns="http://www.w3.org/2000/svg">
<path d="M5.02262 5.62678L4.75018 5.86516C3.27453 7.15633 1.88348 8.54111 0.585657 10.0109L0.584956 10.0117C0.531743 10.0717 0.492353 10.1732 0.501229 10.2976L0.501243 10.2978C0.528036 10.6753 0.548117 11.0459 0.561459 11.4098L0.561669 11.4156H0.561636C0.56179 11.4217 0.564286 11.4275 0.568607 11.4318C0.572929 11.4361 0.578746 11.4386 0.584856 11.4388L0.589314 11.4389L0.589314 11.4389C0.953951 11.4514 1.32581 11.4724 1.70223 11.4989L1.70262 11.499C1.82619 11.5078 1.92827 11.4687 1.99001 11.4143C2.05743 11.3547 2.12471 11.2949 2.19182 11.235C2.21598 11.0544 2.23869 10.8721 2.25994 10.6881L2.25995 10.688C2.33184 10.0665 2.90378 9.68626 3.49871 9.79489L3.49955 9.79504C3.65349 9.82342 3.7575 9.77629 3.81585 9.71904C3.87332 9.66265 3.92001 9.56397 3.89304 9.41473L3.88508 9.37063V9.35904C3.8079 8.77917 4.1923 8.2383 4.80262 8.17808M5.02262 5.62678L4.85172 8.67566M5.02262 5.62678L4.88121 5.29354C4.56873 4.5572 4.5221 3.7351 4.74931 2.96814C4.97651 2.20118 5.46341 1.53713 6.12655 1.08981C6.78968 0.642485 7.58776 0.439742 8.38398 0.516329C9.18021 0.592916 9.92501 0.944064 10.4907 1.50959M5.02262 5.62678L5.40998 8.11392M4.80262 8.17808L4.85172 8.67566M4.80262 8.17808C4.80245 8.1781 4.80228 8.17811 4.80212 8.17813L4.85172 8.67566M4.80262 8.17808C4.98764 8.15963 5.17168 8.14029 5.35473 8.12005M4.85172 8.67566C5.05703 8.65519 5.26117 8.63363 5.46414 8.61098C5.54807 8.60219 5.62595 8.56321 5.68328 8.50129M5.35473 8.12005C5.34186 8.13402 5.32898 8.14797 5.3161 8.16191L5.42528 8.26283L5.42795 8.26529L5.68328 8.50129M5.35473 8.12005C5.37272 8.11807 5.3907 8.11607 5.40867 8.11406L5.40998 8.11392M5.35473 8.12005C5.61872 7.83372 5.87905 7.54386 6.13573 7.25049L6.37408 6.97807L6.7073 7.11943C7.44368 7.43183 8.26579 7.47837 9.03272 7.25108C9.79965 7.02378 10.4636 6.53681 10.9109 5.87363C11.3581 5.21045 11.5608 4.41235 11.4841 3.61614C11.4075 2.81995 11.0563 2.07523 10.4907 1.50959M5.68328 8.50129L5.4279 8.26482L5.42522 8.26235L5.3164 8.16158C5.34066 8.13539 5.37333 8.1186 5.40867 8.11409C5.40911 8.11403 5.40955 8.11397 5.40998 8.11392M5.68328 8.50129L5.40998 8.11392M5.40998 8.11392C5.41068 8.11383 5.41138 8.11377 5.41208 8.11369L5.41207 8.11368L5.40998 8.11392ZM10.4907 1.50959L10.8431 1.1571L10.4906 1.50951C10.4907 1.50953 10.4907 1.50956 10.4907 1.50959Z" stroke="#9AA3B2"/>
<circle cx="9" cy="3" r="0.5" stroke="#9AA3B2"/>
</svg>
