<svg width="504" height="250" viewBox="0 0 504 250" fill="none" xmlns="http://www.w3.org/2000/svg">
<path d="M491.67 0H12.3303C5.52045 0 0 4.14551 0 9.25926V240.741C0 245.854 5.52045 250 12.3303 250H491.67C498.48 250 504 245.854 504 240.741V9.25926C504 4.14551 498.48 0 491.67 0Z" fill="#BAE0FF"/>
<path d="M0 193H504V242C504 246.418 500.418 250 496 250H8C3.58172 250 0 246.418 0 242V193Z" fill="url(#paint0_linear_207_1111)"/>
<circle cx="318.745" cy="176.255" r="26.0791" fill="#E7F4FF"/>
<g clip-path="url(#clip0_207_1111)">
<path d="M330.534 166.147C330.282 166.148 330.039 166.054 329.854 165.883C326.88 163.172 323.064 161.679 319.108 161.679C315.152 161.679 311.336 163.172 308.362 165.885C308.161 166.045 307.907 166.123 307.651 166.102C307.394 166.082 307.155 165.965 306.982 165.775C306.809 165.585 306.715 165.336 306.718 165.079C306.721 164.822 306.822 164.576 307 164.39C310.348 161.338 314.648 159.658 319.108 159.658C323.568 159.658 327.868 161.338 331.216 164.39C331.366 164.528 331.472 164.707 331.519 164.906C331.565 165.104 331.551 165.312 331.477 165.502C331.403 165.692 331.274 165.856 331.105 165.971C330.937 166.086 330.738 166.147 330.534 166.147Z" fill="#558BFF"/>
<path d="M332.246 172.751C332.08 172.752 331.916 172.711 331.77 172.633C331.623 172.555 331.498 172.442 331.406 172.304C328.601 168.127 324.003 165.633 319.108 165.633C314.213 165.633 309.616 168.127 306.81 172.304C306.736 172.414 306.641 172.509 306.531 172.583C306.42 172.656 306.296 172.707 306.166 172.733C306.036 172.758 305.902 172.758 305.772 172.732C305.642 172.706 305.518 172.654 305.408 172.58C305.297 172.506 305.203 172.411 305.129 172.301C305.056 172.19 305.005 172.066 304.979 171.936C304.953 171.806 304.954 171.672 304.98 171.542C305.006 171.412 305.057 171.288 305.131 171.178C308.313 166.442 313.538 163.613 319.108 163.613C324.678 163.613 329.904 166.442 333.085 171.179C333.187 171.331 333.245 171.508 333.254 171.691C333.263 171.874 333.223 172.055 333.136 172.217C333.05 172.378 332.922 172.513 332.765 172.607C332.608 172.702 332.429 172.751 332.246 172.751Z" fill="#558BFF"/>
<path d="M315.916 191.997C315.783 191.997 315.65 191.971 315.527 191.919C315.404 191.868 315.292 191.793 315.198 191.698C314.977 191.475 309.799 186.189 309.799 181.1C309.799 175.818 313.974 171.521 319.108 171.521C324.242 171.521 328.417 175.818 328.417 181.1C328.417 181.368 328.311 181.625 328.121 181.815C327.932 182.004 327.675 182.111 327.407 182.111C327.139 182.111 326.882 182.004 326.692 181.815C326.503 181.625 326.396 181.368 326.396 181.1C326.396 176.933 323.128 173.543 319.108 173.543C315.089 173.543 311.82 176.933 311.82 181.1C311.82 185.368 316.586 190.226 316.634 190.275C316.775 190.417 316.87 190.597 316.908 190.793C316.947 190.988 316.926 191.191 316.849 191.375C316.772 191.559 316.643 191.717 316.477 191.827C316.311 191.938 316.116 191.997 315.916 191.997Z" fill="#558BFF"/>
<path d="M322.3 191.996C319.869 191.996 314.234 187.372 313.688 182.222C313.496 180.402 314.075 178.54 315.237 177.241C316.247 176.112 317.612 175.485 319.08 175.477H319.108C320.539 175.477 321.892 176.039 322.921 177.062C323.453 177.591 323.875 178.22 324.161 178.914C324.447 179.607 324.592 180.351 324.588 181.101V181.76C324.588 183.384 325.852 184.704 327.407 184.704C328.961 184.704 330.227 183.384 330.227 181.76V181.53C330.227 175.237 325.668 170.003 319.849 169.614C316.815 169.408 313.904 170.457 311.658 172.556C309.327 174.736 307.99 177.851 307.99 181.101C307.987 183.764 308.885 186.349 310.54 188.435C310.622 188.539 310.684 188.658 310.721 188.786C310.758 188.913 310.769 189.047 310.754 189.179C310.739 189.311 310.699 189.438 310.634 189.555C310.57 189.671 310.484 189.773 310.38 189.856C310.276 189.939 310.157 190 310.029 190.037C309.902 190.074 309.768 190.085 309.636 190.071C309.504 190.056 309.377 190.015 309.261 189.951C309.144 189.887 309.042 189.8 308.959 189.696C307.019 187.251 305.965 184.221 305.968 181.1C305.968 177.292 307.539 173.639 310.275 171.079C312.934 168.592 316.381 167.355 319.981 167.596C326.858 168.056 332.247 174.175 332.247 181.528V181.759C332.247 184.497 330.074 186.724 327.405 186.724C324.736 186.724 322.565 184.497 322.565 181.759V181.1C322.565 180.105 322.185 179.181 321.495 178.494C321.183 178.178 320.811 177.928 320.401 177.757C319.991 177.586 319.552 177.497 319.108 177.497H319.089C317.95 177.502 317.184 178.094 316.742 178.588C315.954 179.468 315.563 180.748 315.696 182.009C316.142 186.211 320.97 189.977 322.299 189.977C322.56 189.986 322.808 190.096 322.989 190.285C323.171 190.473 323.273 190.724 323.273 190.986C323.273 191.248 323.172 191.499 322.99 191.688C322.809 191.876 322.561 191.987 322.3 191.996Z" fill="#558BFF"/>
<path d="M326.051 190.019C322.434 190.019 318.019 185.6 318.019 180.44C318.019 180.172 318.125 179.915 318.315 179.726C318.504 179.536 318.761 179.43 319.029 179.43C319.297 179.43 319.554 179.536 319.744 179.726C319.933 179.915 320.04 180.172 320.04 180.44C320.04 184.439 323.401 187.998 326.051 187.998C326.319 187.998 326.576 188.104 326.765 188.294C326.955 188.483 327.061 188.74 327.061 189.008C327.061 189.277 326.955 189.534 326.765 189.723C326.576 189.913 326.319 190.019 326.051 190.019Z" fill="#558BFF"/>
</g>
<path d="M180.546 87.9272C180.546 95.947 174.045 102.448 166.025 102.448C158.005 102.448 151.504 95.947 151.504 87.9272C151.504 79.9075 158.005 73.4062 166.025 73.4062C174.045 73.4062 180.546 79.9075 180.546 87.9272Z" fill="#E7F4FF"/>
<path d="M180.546 104.741C180.546 112.761 174.045 119.262 166.025 119.262C158.005 119.262 151.504 112.761 151.504 104.741C151.504 96.7213 158.005 90.22 166.025 90.22C174.045 90.22 180.546 96.7213 180.546 104.741Z" fill="#E7F4FF"/>
<path d="M197.36 87.9272C197.36 95.947 190.858 102.448 182.839 102.448C174.819 102.448 168.318 95.947 168.318 87.9272C168.318 79.9075 174.819 73.4062 182.839 73.4062C190.858 73.4062 197.36 79.9075 197.36 87.9272Z" fill="#E7F4FF"/>
<path d="M197.36 104.741C197.36 112.761 190.858 119.262 182.839 119.262C174.819 119.262 168.318 112.761 168.318 104.741C168.318 96.7213 174.819 90.22 182.839 90.22C190.858 90.22 197.36 96.7213 197.36 104.741Z" fill="#E7F4FF"/>
<line x1="186.542" y1="83.6527" x2="163.015" y2="108.998" stroke="#558BFF"/>
<line x1="162.117" y1="82.7422" x2="162.117" y2="106.269" stroke="#558BFF"/>
<circle cx="162.379" cy="84.279" r="3.01338" fill="#558BFF"/>
<circle cx="174.432" cy="84.279" r="3.01338" fill="#558BFF"/>
<circle cx="186.486" cy="84.279" r="3.01338" fill="#558BFF"/>
<circle cx="162.379" cy="96.3317" r="3.01338" fill="#558BFF"/>
<circle cx="162.379" cy="108.386" r="3.01338" fill="#558BFF"/>
<circle cx="174.432" cy="96.3317" r="3.01338" fill="#558BFF"/>
<circle cx="174.432" cy="108.386" r="3.01338" fill="#558BFF"/>
<circle cx="186.486" cy="96.3317" r="3.01338" fill="#558BFF"/>
<circle cx="186.486" cy="108.386" r="3.01338" fill="#558BFF"/>
<path d="M267.635 142.758H256.726V106.689C256.726 102.94 255.987 99.2276 254.552 95.7637C253.118 92.2999 251.015 89.1526 248.363 86.5015C245.712 83.8504 242.565 81.7474 239.101 80.3126C235.637 78.8779 231.925 78.1394 228.176 78.1394C224.426 78.1394 220.714 78.8779 217.25 80.3126C213.786 81.7474 210.639 83.8504 207.988 86.5015C205.337 89.1526 203.234 92.2999 201.799 95.7637C200.364 99.2276 199.626 102.94 199.626 106.689V142.758H188.717V106.689C188.717 84.9325 206.419 67.2305 228.176 67.2305C249.932 67.2305 267.635 84.9325 267.635 106.689V142.758Z" fill="white"/>
<path d="M280.101 125.639H176.251C173.915 125.639 172.021 127.533 172.021 129.869V197.343C172.021 199.68 173.915 201.574 176.251 201.574H280.101C282.438 201.574 284.332 199.68 284.332 197.343V129.869C284.332 127.533 282.438 125.639 280.101 125.639Z" fill="#5283EC"/>
<path d="M284.33 197.344V156.002C250.115 184.948 200.79 195.817 172.829 199.816C173.219 200.359 173.733 200.802 174.327 201.107C174.922 201.413 175.58 201.573 176.249 201.575H280.101C280.657 201.575 281.207 201.465 281.72 201.253C282.233 201.04 282.699 200.728 283.092 200.336C283.485 199.943 283.796 199.476 284.008 198.963C284.221 198.45 284.33 197.9 284.33 197.344Z" fill="#5F8FF5"/>
<path d="M237.457 152.171C237.46 150.586 237.056 149.026 236.285 147.641C235.514 146.255 234.4 145.09 233.051 144.257C231.702 143.424 230.162 142.951 228.578 142.882C226.994 142.813 225.419 143.151 224.002 143.864C222.586 144.576 221.376 145.64 220.487 146.953C219.599 148.267 219.061 149.785 218.926 151.365C218.791 152.945 219.063 154.533 219.716 155.978C220.369 157.423 221.382 158.676 222.657 159.619L219.701 180.606H236.648L233.693 159.619C234.859 158.759 235.808 157.637 236.462 156.344C237.116 155.05 237.456 153.621 237.457 152.171Z" fill="#19184A"/>
<path d="M175.56 133.65V148.179C175.946 142.009 178.913 128.584 197.487 128.584H180.633C179.289 128.586 178.001 129.12 177.05 130.069C176.099 131.019 175.563 132.306 175.56 133.65Z" fill="#5F8FF5"/>
<path d="M219.701 180.607C219.701 180.607 232.278 177.052 233.693 159.619L236.648 180.607H219.701Z" fill="white" fill-opacity="0.17"/>
<circle cx="151.579" cy="176.255" r="26.0791" fill="#E7F4FF"/>
<path fill-rule="evenodd" clip-rule="evenodd" d="M151.579 191.597C160.053 191.597 166.922 184.728 166.922 176.254C166.922 167.78 160.053 160.911 151.579 160.911C143.105 160.911 136.236 167.78 136.236 176.254C136.236 184.728 143.105 191.597 151.579 191.597ZM151.579 192.85C160.745 192.85 168.175 185.42 168.175 176.254C168.175 167.088 160.745 159.658 151.579 159.658C142.414 159.658 134.983 167.088 134.983 176.254C134.983 185.42 142.414 192.85 151.579 192.85Z" fill="#5283EC"/>
<path fill-rule="evenodd" clip-rule="evenodd" d="M154.396 185.045C154.556 185.39 154.406 185.799 154.061 185.96C152.466 186.7 150.886 186.836 149.592 186.242C148.279 185.639 147.423 184.361 147.142 182.627L148.502 182.407C148.729 183.808 149.371 184.624 150.167 184.99C150.981 185.364 152.122 185.341 153.481 184.71C153.826 184.55 154.236 184.7 154.396 185.045Z" fill="#5283EC"/>
<path fill-rule="evenodd" clip-rule="evenodd" d="M152.519 178.133V175.314H153.772V179.385H150.327V178.133H152.519Z" fill="#5283EC"/>
<path d="M160.347 172.184C160.347 172.876 159.786 173.437 159.094 173.437C158.403 173.437 157.842 172.876 157.842 172.184C157.842 171.492 158.403 170.932 159.094 170.932C159.786 170.932 160.347 171.492 160.347 172.184Z" fill="#5283EC"/>
<path d="M145.317 172.184C145.317 172.876 144.756 173.437 144.064 173.437C143.372 173.437 142.812 172.876 142.812 172.184C142.812 171.492 143.372 170.932 144.064 170.932C144.756 170.932 145.317 171.492 145.317 172.184Z" fill="#5283EC"/>
<path d="M343.157 96.7972C349.917 76.9636 339.319 55.405 319.486 48.6448C299.652 41.8846 278.093 52.4828 271.333 72.3165C264.573 92.1502 275.171 113.709 295.005 120.469C314.839 127.229 336.397 116.631 343.157 96.7972Z" fill="#EBBA63"/>
<path d="M344.098 157.428C343.827 158.465 344.537 159.622 345.551 159.825L351.777 161.028C352.081 161.094 352.364 161.229 352.607 161.423C352.85 161.616 353.045 161.862 353.178 162.143L356.791 169.492C357.005 169.918 357.068 170.404 356.97 170.871L354.901 180.045C354.81 180.493 354.886 180.958 355.115 181.354C355.345 181.749 355.711 182.046 356.145 182.19L362.918 184.128C363.333 184.258 363.716 184.474 364.041 184.762C364.366 185.05 364.627 185.403 364.806 185.799C366.321 189.052 369.478 197.39 363.637 200.262C363.223 200.465 362.816 200.652 362.422 200.827C360.961 201.472 359.447 201.989 357.896 202.372C357.075 202.571 356.243 202.728 355.405 202.842C355.103 202.882 354.805 202.923 354.532 202.936C354.442 202.946 354.349 202.953 354.262 202.958C354.083 202.971 353.912 202.983 353.752 202.996C353.668 203.003 353.59 203.005 353.509 203.006C353.429 203.007 353.354 203.014 353.28 203.012C353.135 203.017 352.997 203.017 352.86 203.025C352.633 203.023 352.432 203.022 352.245 203.009C352.108 203.004 351.979 202.997 351.863 202.984L351.822 202.983L351.808 202.989C351.596 202.97 351.391 202.896 351.215 202.774C351.039 202.653 350.898 202.488 350.804 202.295L309.277 117.822L327.086 109.067L335.597 126.379L345.953 147.485C346.258 148.09 346.336 148.783 346.175 149.44L344.098 157.428Z" fill="#EBBA63"/>
<path d="M318.832 112.155L362.423 200.829C360.963 201.474 359.448 201.991 357.898 202.373C357.076 202.573 356.244 202.73 355.406 202.843C355.104 202.883 354.807 202.925 354.534 202.938C354.443 202.948 354.35 202.955 354.263 202.96C354.084 202.973 353.913 202.985 353.753 202.997C353.669 203.005 353.591 203.007 353.511 203.008C353.43 203.009 353.355 203.016 353.281 203.014C353.137 203.019 352.998 203.019 352.861 203.026C352.634 203.025 352.433 203.024 352.246 203.011C352.106 203.008 351.981 203.001 351.864 202.985L351.823 202.984L351.81 202.991C351.597 202.972 351.392 202.897 351.217 202.776C351.041 202.654 350.899 202.489 350.805 202.297L308.894 117.041L318.832 112.155Z" fill="#FFE69B"/>
<path d="M317.047 119.28L357.901 202.384C357.079 202.584 356.248 202.741 355.41 202.854L314.854 120.357L317.047 119.28Z" fill="#EBBA63"/>
<path d="M339.729 98.4847C346.489 78.651 335.891 57.0925 316.057 50.3323C296.223 43.5721 274.665 54.1703 267.904 74.004C261.144 93.8376 271.742 115.396 291.576 122.156C311.41 128.917 332.968 118.318 339.729 98.4847Z" fill="#FFE69B"/>
<path d="M304.594 66.3211C305.554 68.2745 305.814 70.4988 305.33 72.621C304.845 74.7432 303.645 76.6342 301.932 77.9769C300.218 79.3196 298.095 80.0322 295.919 79.9953C293.742 79.9584 291.645 79.1742 289.978 77.7743C288.311 76.3743 287.176 74.4437 286.763 72.3063C286.351 70.1689 286.686 67.9547 287.712 66.035C288.739 64.1153 290.394 62.6069 292.401 61.7629C294.407 60.9188 296.643 60.7904 298.733 61.3991C299.998 61.7674 301.173 62.3953 302.182 63.2427C303.191 64.0902 304.012 65.1386 304.594 66.3211Z" fill="#EBBA63"/>
<path d="M304.592 66.3193C305.063 67.7971 305.04 69.3877 304.529 70.8517C304.017 72.3157 303.044 73.574 301.755 74.4371C300.467 75.3002 298.933 75.7214 297.384 75.6374C295.835 75.5535 294.356 74.9688 293.168 73.9714C291.981 72.974 291.149 71.6179 290.799 70.1071C290.449 68.5963 290.599 67.0127 291.226 65.5944C291.853 64.1761 292.925 63 294.278 62.2431C295.632 61.4862 297.195 61.1893 298.731 61.3973C299.997 61.7655 301.171 62.3934 302.18 63.2409C303.189 64.0883 304.011 65.1367 304.592 66.3193Z" fill="#BAE0FF"/>
<path d="M322.333 98.0681L301.87 108.128C300.73 108.688 300.26 110.067 300.82 111.206C301.381 112.346 302.759 112.816 303.899 112.256L324.362 102.196C325.502 101.635 325.972 100.257 325.412 99.1173C324.851 97.9775 323.473 97.5077 322.333 98.0681Z" fill="#EBBA63"/>
<defs>
<linearGradient id="paint0_linear_207_1111" x1="252" y1="193" x2="252" y2="250" gradientUnits="userSpaceOnUse">
<stop stop-color="white" stop-opacity="0.28"/>
<stop offset="1" stop-color="#BAE0FF" stop-opacity="0"/>
</linearGradient>
<clipPath id="clip0_207_1111">
<rect width="32.3381" height="32.3381" fill="white" transform="translate(302.939 159.658)"/>
</clipPath>
</defs>
</svg>
