<svg width="24" height="24" viewBox="0 0 24 24" fill="none" xmlns="http://www.w3.org/2000/svg">
<g id="Frame 1410086610">
<path id="Vector 890" d="M6 5L14.8377 2.05409C16.3934 1.53552 18 2.69347 18 4.33333V4.33333" stroke="#0D121C"/>
<g id="Rectangle 34624293">
<rect x="4.5" y="4.5" width="15" height="17" rx="2.5" fill="#D9D9D9"/>
<rect x="4.5" y="4.5" width="15" height="17" rx="2.5" fill="white"/>
<rect x="4.5" y="4.5" width="15" height="17" rx="2.5" stroke="#0D121C"/>
</g>
<circle id="Ellipse 2390" cx="12" cy="11" r="3.5" stroke="#0D121C"/>
<path id="Ellipse 2391" d="M13.5 11C13.5 12.0438 13.2874 12.964 12.967 13.6048C12.6316 14.2755 12.2609 14.5 12 14.5C11.7391 14.5 11.3684 14.2755 11.033 13.6048C10.7126 12.964 10.5 12.0438 10.5 11C10.5 9.95622 10.7126 9.03598 11.033 8.39518C11.3684 7.72447 11.7391 7.5 12 7.5C12.2609 7.5 12.6316 7.72447 12.967 8.39518C13.2874 9.03598 13.5 9.95622 13.5 11Z" stroke="#0D121C"/>
<line id="Line 576" x1="9" y1="11.5" x2="15" y2="11.5" stroke="#0D121C"/>
<line id="Line 578" x1="9" y1="17.5" x2="15" y2="17.5" stroke="#0D121C"/>
</g>
</svg>
