<svg width="180" height="140" viewBox="0 0 180 140" fill="none" xmlns="http://www.w3.org/2000/svg">
<g id="Frame 1410086644">
<rect id="Rectangle 34624297" x="10" y="24" width="157" height="103" rx="22" fill="#FFE5DF"/>
<g id="Group 1000004309">
<rect id="Rectangle 34624163" x="36.2383" y="44.5894" width="105.526" height="63.445" rx="8" fill="#19184A"/>
<rect id="Rectangle 34624147" x="33" y="42" width="111.962" height="63.445" rx="8" fill="white"/>
<g id="Group 1000005326">
<path id="Vector" d="M132.439 47.8259C132.892 47.9633 133.138 48.3211 133.358 48.7003C133.674 49.2469 133.861 49.8433 133.997 50.4567C134.134 51.0901 134.21 51.735 134.225 52.3827C134.225 52.3992 134.225 52.4161 134.225 52.4372H130.518C130.515 52.4235 130.513 52.4095 130.512 52.3954C130.545 51.3502 130.692 50.3258 131.073 49.3451C131.233 48.9344 131.428 48.5437 131.724 48.2098C131.881 48.0309 132.065 47.8912 132.3 47.8259H132.439Z" fill="#FF8760"/>
<path id="Vector_2" d="M132.297 57.5367C131.845 57.3997 131.598 57.0416 131.379 56.6627C131.062 56.1165 130.875 55.5197 130.739 54.9063C130.623 54.3712 130.551 53.8276 130.523 53.2808C130.523 53.2616 130.523 53.2424 130.523 53.2183H134.216C134.207 53.3591 134.2 53.4988 134.187 53.6378C134.139 54.2366 134.033 54.8293 133.87 55.4076C133.723 55.9166 133.533 56.4079 133.241 56.8539C133.085 57.0907 132.909 57.3091 132.654 57.448C132.584 57.4818 132.512 57.5114 132.438 57.5367H132.297Z" fill="#FF8760"/>
<path id="Vector_3" d="M133.879 48.0718C135.911 48.7201 137.169 50.648 137.207 52.4374H135.001C134.996 52.3422 134.992 52.2455 134.987 52.1484C134.941 51.1405 134.782 50.1525 134.436 49.2021C134.3 48.8229 134.124 48.4596 133.909 48.119C133.901 48.1067 133.893 48.0944 133.879 48.0718Z" fill="#FED095"/>
<path id="Vector_4" d="M133.891 57.2869C133.987 57.1134 134.087 56.9453 134.174 56.7702C134.445 56.226 134.625 55.6495 134.754 55.0568C134.882 54.461 134.96 53.8553 134.986 53.2463C134.987 53.2367 134.988 53.2271 134.99 53.2175H137.182C137.06 54.8499 135.835 56.6666 133.891 57.2869Z" fill="#FED095"/>
<path id="Vector_5" d="M130.859 57.2961C130.026 57.0248 129.283 56.5314 128.709 55.869C128.047 55.1083 127.662 54.2239 127.543 53.2175H129.745C129.755 53.3642 129.763 53.5104 129.776 53.6563C129.865 54.6926 130.066 55.7005 130.505 56.6501C130.6 56.8543 130.72 57.0466 130.829 57.2443C130.835 57.2577 130.843 57.2685 130.859 57.2961Z" fill="#FED095"/>
<path id="Vector_6" d="M130.845 48.0782C130.632 48.4186 130.455 48.7801 130.316 49.1567C130.113 49.7103 129.965 50.2829 129.876 50.8659C129.797 51.3733 129.75 51.8852 129.738 52.3985C129.738 52.4108 129.735 52.4231 129.733 52.4369H127.52C127.572 51.49 127.865 50.6329 128.415 49.8653C129.01 49.0226 129.863 48.3956 130.845 48.0782Z" fill="#FED095"/>
</g>
<rect id="Rectangle 34624148" x="40.7695" y="58.1846" width="20.0694" height="22.6589" rx="4" fill="#19184A"/>
<path id="Rectangle 34624149" d="M40.7695 80.8437C40.7695 76.1955 44.5376 72.4275 49.1857 72.4275H52.4227C57.0708 72.4275 60.8389 76.1955 60.8389 80.8437H40.7695Z" fill="#558BFF"/>
<rect id="Rectangle 34624150" x="40.4648" y="51.3296" width="80.2393" height="1.86603" fill="#9DD3FF"/>
<rect id="Rectangle 34624151" x="67.3125" y="74.3698" width="25.2485" height="1.9422" fill="#19184A"/>
<rect id="Rectangle 34624166" x="67.3125" y="58.1846" width="25.2485" height="1.9422" fill="#19184A"/>
<rect id="Rectangle 34624152" x="67.3125" y="78.9018" width="69.919" height="1.9422" fill="#9DD3FF"/>
<rect id="Rectangle 34624167" x="67.3125" y="62.7165" width="69.919" height="1.9422" fill="#9DD3FF"/>
<circle id="Ellipse 67" cx="51.1284" cy="65.9531" r="5.17919" fill="white"/>
<g id="Mask group">
<path id="Rectangle 34624166_2" d="M33 86.67H145V97.4446C145 101.863 141.418 105.445 137 105.445H41C36.5817 105.445 33 101.863 33 97.4446V86.67Z" fill="#558BFF"/>
<g id="P&#60;AAA&#60;&#60;&#60;&#60;&#60;&#60;&#60;&#60;&#60;&#60;&#60;&#60;&#60;&#60;&#60;&#60;&#60;&#60;&#60;&#60;&#60;&#60;&#60; P&#60;AAA&#60;&#60;&#60;&#60;&#60;&#60;&#60;&#60;&#60;&#60;&#60;&#60;&#60;&#60;&#60;&#60;&#60;&#60;&#60;&#60;&#60;&#60;&#60;">
<path d="M41.2188 95.7334V92.0842H42.6754C43.4164 92.0842 43.9171 92.5723 43.9171 93.3032V93.3082C43.9171 94.0365 43.4164 94.5271 42.6754 94.5271H41.8712V95.7334H41.2188ZM42.5161 92.6178H41.8712V94.0011H42.5161C42.9839 94.0011 43.257 93.7482 43.257 93.3107V93.3057C43.257 92.8682 42.9839 92.6178 42.5161 92.6178Z" fill="white"/>
<path d="M44.5569 94.603V93.9202L47.2173 92.9036V93.4802L45.0374 94.254L47.2173 95.0253V95.6196L44.5569 94.603Z" fill="white"/>
<path d="M47.7661 95.7334L49.0609 92.0842H49.7968L51.0916 95.7334H50.4088L50.1028 94.7902H48.7523L48.4489 95.7334H47.7661ZM49.4073 92.762L48.9167 94.2869H49.9409L49.4503 92.762H49.4073Z" fill="white"/>
<path d="M51.4482 95.7334L52.7429 92.0842H53.4789L54.7737 95.7334H54.0909L53.7849 94.7902H52.4344L52.131 95.7334H51.4482ZM53.0894 92.762L52.5988 94.2869H53.623L53.1324 92.762H53.0894Z" fill="white"/>
<path d="M55.1302 95.7334L56.425 92.0842H57.1609L58.4557 95.7334H57.7729L57.4669 94.7902H56.1165L55.813 95.7334H55.1302ZM56.7715 92.762L56.2809 94.2869H57.3051L56.8145 92.762H56.7715Z" fill="white"/>
<path d="M58.8654 94.603V93.9202L61.5258 92.9036V93.4802L59.3459 94.254L61.5258 95.0253V95.6196L58.8654 94.603Z" fill="white"/>
<path d="M62.2643 94.603V93.9202L64.9247 92.9036V93.4802L62.7447 94.254L64.9247 95.0253V95.6196L62.2643 94.603Z" fill="white"/>
<path d="M65.6631 94.603V93.9202L68.3235 92.9036V93.4802L66.1436 94.254L68.3235 95.0253V95.6196L65.6631 94.603Z" fill="white"/>
<path d="M69.0619 94.603V93.9202L71.7223 92.9036V93.4802L69.5424 94.254L71.7223 95.0253V95.6196L69.0619 94.603Z" fill="white"/>
<path d="M72.4608 94.603V93.9202L75.1212 92.9036V93.4802L72.9413 94.254L75.1212 95.0253V95.6196L72.4608 94.603Z" fill="white"/>
<path d="M75.8596 94.603V93.9202L78.52 92.9036V93.4802L76.3401 94.254L78.52 95.0253V95.6196L75.8596 94.603Z" fill="white"/>
<path d="M79.2585 94.603V93.9202L81.9189 92.9036V93.4802L79.739 94.254L81.9189 95.0253V95.6196L79.2585 94.603Z" fill="white"/>
<path d="M82.6573 94.603V93.9202L85.3177 92.9036V93.4802L83.1378 94.254L85.3177 95.0253V95.6196L82.6573 94.603Z" fill="white"/>
<path d="M86.0562 94.603V93.9202L88.7166 92.9036V93.4802L86.5366 94.254L88.7166 95.0253V95.6196L86.0562 94.603Z" fill="white"/>
<path d="M89.455 94.603V93.9202L92.1154 92.9036V93.4802L89.9355 94.254L92.1154 95.0253V95.6196L89.455 94.603Z" fill="white"/>
<path d="M92.8538 94.603V93.9202L95.5142 92.9036V93.4802L93.3343 94.254L95.5142 95.0253V95.6196L92.8538 94.603Z" fill="white"/>
<path d="M96.2527 94.603V93.9202L98.9131 92.9036V93.4802L96.7332 94.254L98.9131 95.0253V95.6196L96.2527 94.603Z" fill="white"/>
<path d="M99.6515 94.603V93.9202L102.312 92.9036V93.4802L100.132 94.254L102.312 95.0253V95.6196L99.6515 94.603Z" fill="white"/>
<path d="M103.05 94.603V93.9202L105.711 92.9036V93.4802L103.531 94.254L105.711 95.0253V95.6196L103.05 94.603Z" fill="white"/>
<path d="M106.449 94.603V93.9202L109.11 92.9036V93.4802L106.93 94.254L109.11 95.0253V95.6196L106.449 94.603Z" fill="white"/>
<path d="M109.848 94.603V93.9202L112.508 92.9036V93.4802L110.329 94.254L112.508 95.0253V95.6196L109.848 94.603Z" fill="white"/>
<path d="M113.247 94.603V93.9202L115.907 92.9036V93.4802L113.727 94.254L115.907 95.0253V95.6196L113.247 94.603Z" fill="white"/>
<path d="M116.646 94.603V93.9202L119.306 92.9036V93.4802L117.126 94.254L119.306 95.0253V95.6196L116.646 94.603Z" fill="white"/>
<path d="M120.045 94.603V93.9202L122.705 92.9036V93.4802L120.525 94.254L122.705 95.0253V95.6196L120.045 94.603Z" fill="white"/>
<path d="M123.443 94.603V93.9202L126.104 92.9036V93.4802L123.924 94.254L126.104 95.0253V95.6196L123.443 94.603Z" fill="white"/>
<path d="M126.842 94.603V93.9202L129.503 92.9036V93.4802L127.323 94.254L129.503 95.0253V95.6196L126.842 94.603Z" fill="white"/>
<path d="M130.241 94.603V93.9202L132.902 92.9036V93.4802L130.722 94.254L132.902 95.0253V95.6196L130.241 94.603Z" fill="white"/>
<path d="M133.64 94.603V93.9202L136.3 92.9036V93.4802L134.12 94.254L136.3 95.0253V95.6196L133.64 94.603Z" fill="white"/>
<path d="M41.2188 100.913V97.2634H42.6754C43.4164 97.2634 43.9171 97.7515 43.9171 98.4823V98.4874C43.9171 99.2157 43.4164 99.7063 42.6754 99.7063H41.8712V100.913H41.2188ZM42.5161 97.797H41.8712V99.1803H42.5161C42.9839 99.1803 43.257 98.9274 43.257 98.4899V98.4849C43.257 98.0474 42.9839 97.797 42.5161 97.797Z" fill="white"/>
<path d="M44.5569 99.7822V99.0994L47.2173 98.0828V98.6594L45.0374 99.4332L47.2173 100.205V100.799L44.5569 99.7822Z" fill="white"/>
<path d="M47.7661 100.913L49.0609 97.2634H49.7968L51.0916 100.913H50.4088L50.1028 99.9693H48.7523L48.4489 100.913H47.7661ZM49.4073 97.9412L48.9167 99.4661H49.9409L49.4503 97.9412H49.4073Z" fill="white"/>
<path d="M51.4482 100.913L52.7429 97.2634H53.4789L54.7737 100.913H54.0909L53.7849 99.9693H52.4344L52.131 100.913H51.4482ZM53.0894 97.9412L52.5988 99.4661H53.623L53.1324 97.9412H53.0894Z" fill="white"/>
<path d="M55.1302 100.913L56.425 97.2634H57.1609L58.4557 100.913H57.7729L57.4669 99.9693H56.1165L55.813 100.913H55.1302ZM56.7715 97.9412L56.2809 99.4661H57.3051L56.8145 97.9412H56.7715Z" fill="white"/>
<path d="M58.8654 99.7822V99.0994L61.5258 98.0828V98.6594L59.3459 99.4332L61.5258 100.205V100.799L58.8654 99.7822Z" fill="white"/>
<path d="M62.2643 99.7822V99.0994L64.9247 98.0828V98.6594L62.7447 99.4332L64.9247 100.205V100.799L62.2643 99.7822Z" fill="white"/>
<path d="M65.6631 99.7822V99.0994L68.3235 98.0828V98.6594L66.1436 99.4332L68.3235 100.205V100.799L65.6631 99.7822Z" fill="white"/>
<path d="M69.0619 99.7822V99.0994L71.7223 98.0828V98.6594L69.5424 99.4332L71.7223 100.205V100.799L69.0619 99.7822Z" fill="white"/>
<path d="M72.4608 99.7822V99.0994L75.1212 98.0828V98.6594L72.9413 99.4332L75.1212 100.205V100.799L72.4608 99.7822Z" fill="white"/>
<path d="M75.8596 99.7822V99.0994L78.52 98.0828V98.6594L76.3401 99.4332L78.52 100.205V100.799L75.8596 99.7822Z" fill="white"/>
<path d="M79.2585 99.7822V99.0994L81.9189 98.0828V98.6594L79.739 99.4332L81.9189 100.205V100.799L79.2585 99.7822Z" fill="white"/>
<path d="M82.6573 99.7822V99.0994L85.3177 98.0828V98.6594L83.1378 99.4332L85.3177 100.205V100.799L82.6573 99.7822Z" fill="white"/>
<path d="M86.0562 99.7822V99.0994L88.7166 98.0828V98.6594L86.5366 99.4332L88.7166 100.205V100.799L86.0562 99.7822Z" fill="white"/>
<path d="M89.455 99.7822V99.0994L92.1154 98.0828V98.6594L89.9355 99.4332L92.1154 100.205V100.799L89.455 99.7822Z" fill="white"/>
<path d="M92.8538 99.7822V99.0994L95.5142 98.0828V98.6594L93.3343 99.4332L95.5142 100.205V100.799L92.8538 99.7822Z" fill="white"/>
<path d="M96.2527 99.7822V99.0994L98.9131 98.0828V98.6594L96.7332 99.4332L98.9131 100.205V100.799L96.2527 99.7822Z" fill="white"/>
<path d="M99.6515 99.7822V99.0994L102.312 98.0828V98.6594L100.132 99.4332L102.312 100.205V100.799L99.6515 99.7822Z" fill="white"/>
<path d="M103.05 99.7822V99.0994L105.711 98.0828V98.6594L103.531 99.4332L105.711 100.205V100.799L103.05 99.7822Z" fill="white"/>
<path d="M106.449 99.7822V99.0994L109.11 98.0828V98.6594L106.93 99.4332L109.11 100.205V100.799L106.449 99.7822Z" fill="white"/>
<path d="M109.848 99.7822V99.0994L112.508 98.0828V98.6594L110.329 99.4332L112.508 100.205V100.799L109.848 99.7822Z" fill="white"/>
<path d="M113.247 99.7822V99.0994L115.907 98.0828V98.6594L113.727 99.4332L115.907 100.205V100.799L113.247 99.7822Z" fill="white"/>
<path d="M116.646 99.7822V99.0994L119.306 98.0828V98.6594L117.126 99.4332L119.306 100.205V100.799L116.646 99.7822Z" fill="white"/>
<path d="M120.045 99.7822V99.0994L122.705 98.0828V98.6594L120.525 99.4332L122.705 100.205V100.799L120.045 99.7822Z" fill="white"/>
<path d="M123.443 99.7822V99.0994L126.104 98.0828V98.6594L123.924 99.4332L126.104 100.205V100.799L123.443 99.7822Z" fill="white"/>
<path d="M126.842 99.7822V99.0994L129.503 98.0828V98.6594L127.323 99.4332L129.503 100.205V100.799L126.842 99.7822Z" fill="white"/>
<path d="M130.241 99.7822V99.0994L132.902 98.0828V98.6594L130.722 99.4332L132.902 100.205V100.799L130.241 99.7822Z" fill="white"/>
<path d="M133.64 99.7822V99.0994L136.3 98.0828V98.6594L134.12 99.4332L136.3 100.205V100.799L133.64 99.7822Z" fill="white"/>
</g>
</g>
</g>
<g id="Group 1000005353">
<g id="Group 10">
<rect id="Rectangle 2554" x="143" y="16" width="32" height="32" rx="16" fill="#FB6E4F"/>
</g>
<path id="Vector 117" d="M152.414 25.4136L165.591 38.59" stroke="white" stroke-width="2"/>
<path id="Vector 118" d="M165.586 25.4136L152.409 38.59" stroke="white" stroke-width="2"/>
</g>
</g>
</svg>
