<svg width="252" height="252" viewBox="0 0 252 252" fill="none" xmlns="http://www.w3.org/2000/svg">
<g id="QR Code" filter="url(#filter0_d_761_16545)">
<g clip-path="url(#clip0_761_16545)">
<path id="Vector" d="M236 15H16V235H236V15Z" fill="white"/>
<g id="Vector_2">
<path d="M36.3879 28.75H29.75V35.3879H36.3879V28.75Z" fill="black"/>
<path d="M43.0259 28.75H36.3879V35.3879H43.0259V28.75Z" fill="black"/>
<path d="M49.6638 28.75H43.0259V35.3879H49.6638V28.75Z" fill="black"/>
<path d="M56.3017 28.75H49.6638V35.3879H56.3017V28.75Z" fill="black"/>
<path d="M62.9397 28.75H56.3017V35.3879H62.9397V28.75Z" fill="black"/>
<path d="M69.5776 28.75H62.9397V35.3879H69.5776V28.75Z" fill="black"/>
<path d="M76.2155 28.75H69.5776V35.3879H76.2155V28.75Z" fill="black"/>
<path d="M89.4914 28.75H82.8535V35.3879H89.4914V28.75Z" fill="black"/>
<path d="M102.767 28.75H96.1293V35.3879H102.767V28.75Z" fill="black"/>
<path d="M135.957 28.75H129.319V35.3879H135.957V28.75Z" fill="black"/>
<path d="M142.595 28.75H135.957V35.3879H142.595V28.75Z" fill="black"/>
<path d="M155.871 28.75H149.233V35.3879H155.871V28.75Z" fill="black"/>
<path d="M169.147 28.75H162.509V35.3879H169.147V28.75Z" fill="black"/>
<path d="M182.422 28.75H175.784V35.3879H182.422V28.75Z" fill="black"/>
<path d="M189.06 28.75H182.422V35.3879H189.06V28.75Z" fill="black"/>
<path d="M195.698 28.75H189.06V35.3879H195.698V28.75Z" fill="black"/>
<path d="M202.336 28.75H195.698V35.3879H202.336V28.75Z" fill="black"/>
<path d="M208.974 28.75H202.336V35.3879H208.974V28.75Z" fill="black"/>
<path d="M215.612 28.75H208.974V35.3879H215.612V28.75Z" fill="black"/>
<path d="M222.25 28.75H215.612V35.3879H222.25V28.75Z" fill="black"/>
<path d="M36.3879 35.3879H29.75V42.0259H36.3879V35.3879Z" fill="black"/>
<path d="M76.2155 35.3879H69.5776V42.0259H76.2155V35.3879Z" fill="black"/>
<path d="M96.1293 35.3879H89.4914V42.0259H96.1293V35.3879Z" fill="black"/>
<path d="M102.767 35.3879H96.1293V42.0259H102.767V35.3879Z" fill="black"/>
<path d="M109.405 35.3879H102.767V42.0259H109.405V35.3879Z" fill="black"/>
<path d="M116.043 35.3879H109.405V42.0259H116.043V35.3879Z" fill="black"/>
<path d="M129.319 35.3879H122.681V42.0259H129.319V35.3879Z" fill="black"/>
<path d="M135.957 35.3879H129.319V42.0259H135.957V35.3879Z" fill="black"/>
<path d="M182.422 35.3879H175.784V42.0259H182.422V35.3879Z" fill="black"/>
<path d="M222.25 35.3879H215.612V42.0259H222.25V35.3879Z" fill="black"/>
<path d="M36.3879 42.0259H29.75V48.6638H36.3879V42.0259Z" fill="black"/>
<path d="M49.6638 42.0259H43.0259V48.6638H49.6638V42.0259Z" fill="black"/>
<path d="M56.3017 42.0259H49.6638V48.6638H56.3017V42.0259Z" fill="black"/>
<path d="M62.9397 42.0259H56.3017V48.6638H62.9397V42.0259Z" fill="black"/>
<path d="M76.2155 42.0259H69.5776V48.6638H76.2155V42.0259Z" fill="black"/>
<path d="M102.767 42.0259H96.1293V48.6638H102.767V42.0259Z" fill="black"/>
<path d="M109.405 42.0259H102.767V48.6638H109.405V42.0259Z" fill="black"/>
<path d="M116.043 42.0259H109.405V48.6638H116.043V42.0259Z" fill="black"/>
<path d="M122.681 42.0259H116.043V48.6638H122.681V42.0259Z" fill="black"/>
<path d="M135.957 42.0259H129.319V48.6638H135.957V42.0259Z" fill="black"/>
<path d="M142.595 42.0259H135.957V48.6638H142.595V42.0259Z" fill="black"/>
<path d="M162.509 42.0259H155.871V48.6638H162.509V42.0259Z" fill="black"/>
<path d="M169.147 42.0259H162.509V48.6638H169.147V42.0259Z" fill="black"/>
<path d="M182.422 42.0259H175.784V48.6638H182.422V42.0259Z" fill="black"/>
<path d="M195.698 42.0259H189.06V48.6638H195.698V42.0259Z" fill="black"/>
<path d="M202.336 42.0259H195.698V48.6638H202.336V42.0259Z" fill="black"/>
<path d="M208.974 42.0259H202.336V48.6638H208.974V42.0259Z" fill="black"/>
<path d="M222.25 42.0259H215.612V48.6638H222.25V42.0259Z" fill="black"/>
<path d="M36.3879 48.6638H29.75V55.3017H36.3879V48.6638Z" fill="black"/>
<path d="M49.6638 48.6638H43.0259V55.3017H49.6638V48.6638Z" fill="black"/>
<path d="M56.3017 48.6638H49.6638V55.3017H56.3017V48.6638Z" fill="black"/>
<path d="M62.9397 48.6638H56.3017V55.3017H62.9397V48.6638Z" fill="black"/>
<path d="M76.2155 48.6638H69.5776V55.3017H76.2155V48.6638Z" fill="black"/>
<path d="M89.4914 48.6638H82.8535V55.3017H89.4914V48.6638Z" fill="black"/>
<path d="M96.1293 48.6638H89.4914V55.3017H96.1293V48.6638Z" fill="black"/>
<path d="M102.767 48.6638H96.1293V55.3017H102.767V48.6638Z" fill="black"/>
<path d="M109.405 48.6638H102.767V55.3017H109.405V48.6638Z" fill="black"/>
<path d="M122.681 48.6638H116.043V55.3017H122.681V48.6638Z" fill="black"/>
<path d="M142.595 48.6638H135.957V55.3017H142.595V48.6638Z" fill="black"/>
<path d="M162.509 48.6638H155.871V55.3017H162.509V48.6638Z" fill="black"/>
<path d="M182.422 48.6638H175.784V55.3017H182.422V48.6638Z" fill="black"/>
<path d="M195.698 48.6638H189.06V55.3017H195.698V48.6638Z" fill="black"/>
<path d="M202.336 48.6638H195.698V55.3017H202.336V48.6638Z" fill="black"/>
<path d="M208.974 48.6638H202.336V55.3017H208.974V48.6638Z" fill="black"/>
<path d="M222.25 48.6638H215.612V55.3017H222.25V48.6638Z" fill="black"/>
<path d="M36.3879 55.3017H29.75V61.9397H36.3879V55.3017Z" fill="black"/>
<path d="M49.6638 55.3017H43.0259V61.9397H49.6638V55.3017Z" fill="black"/>
<path d="M56.3017 55.3017H49.6638V61.9397H56.3017V55.3017Z" fill="black"/>
<path d="M62.9397 55.3017H56.3017V61.9397H62.9397V55.3017Z" fill="black"/>
<path d="M76.2155 55.3017H69.5776V61.9397H76.2155V55.3017Z" fill="black"/>
<path d="M122.681 55.3017H116.043V61.9397H122.681V55.3017Z" fill="black"/>
<path d="M129.319 55.3017H122.681V61.9397H129.319V55.3017Z" fill="black"/>
<path d="M135.957 55.3017H129.319V61.9397H135.957V55.3017Z" fill="black"/>
<path d="M149.233 55.3017H142.595V61.9397H149.233V55.3017Z" fill="black"/>
<path d="M182.422 55.3017H175.784V61.9397H182.422V55.3017Z" fill="black"/>
<path d="M195.698 55.3017H189.06V61.9397H195.698V55.3017Z" fill="black"/>
<path d="M202.336 55.3017H195.698V61.9397H202.336V55.3017Z" fill="black"/>
<path d="M208.974 55.3017H202.336V61.9397H208.974V55.3017Z" fill="black"/>
<path d="M222.25 55.3017H215.612V61.9397H222.25V55.3017Z" fill="black"/>
<path d="M36.3879 61.9397H29.75V68.5776H36.3879V61.9397Z" fill="black"/>
<path d="M76.2155 61.9397H69.5776V68.5776H76.2155V61.9397Z" fill="black"/>
<path d="M89.4914 61.9397H82.8535V68.5776H89.4914V61.9397Z" fill="black"/>
<path d="M96.1293 61.9397H89.4914V68.5776H96.1293V61.9397Z" fill="black"/>
<path d="M102.767 61.9397H96.1293V68.5776H102.767V61.9397Z" fill="black"/>
<path d="M109.405 61.9397H102.767V68.5776H109.405V61.9397Z" fill="black"/>
<path d="M116.043 61.9397H109.405V68.5776H116.043V61.9397Z" fill="black"/>
<path d="M122.681 61.9397H116.043V68.5776H122.681V61.9397Z" fill="black"/>
<path d="M135.957 61.9397H129.319V68.5776H135.957V61.9397Z" fill="black"/>
<path d="M142.595 61.9397H135.957V68.5776H142.595V61.9397Z" fill="black"/>
<path d="M182.422 61.9397H175.784V68.5776H182.422V61.9397Z" fill="black"/>
<path d="M222.25 61.9397H215.612V68.5776H222.25V61.9397Z" fill="black"/>
<path d="M36.3879 68.5776H29.75V75.2155H36.3879V68.5776Z" fill="black"/>
<path d="M43.0259 68.5776H36.3879V75.2155H43.0259V68.5776Z" fill="black"/>
<path d="M49.6638 68.5776H43.0259V75.2155H49.6638V68.5776Z" fill="black"/>
<path d="M56.3017 68.5776H49.6638V75.2155H56.3017V68.5776Z" fill="black"/>
<path d="M62.9397 68.5776H56.3017V75.2155H62.9397V68.5776Z" fill="black"/>
<path d="M69.5776 68.5776H62.9397V75.2155H69.5776V68.5776Z" fill="black"/>
<path d="M76.2155 68.5776H69.5776V75.2155H76.2155V68.5776Z" fill="black"/>
<path d="M89.4914 68.5776H82.8535V75.2155H89.4914V68.5776Z" fill="black"/>
<path d="M102.767 68.5776H96.1293V75.2155H102.767V68.5776Z" fill="black"/>
<path d="M116.043 68.5776H109.405V75.2155H116.043V68.5776Z" fill="black"/>
<path d="M129.319 68.5776H122.681V75.2155H129.319V68.5776Z" fill="black"/>
<path d="M142.595 68.5776H135.957V75.2155H142.595V68.5776Z" fill="black"/>
<path d="M155.871 68.5776H149.233V75.2155H155.871V68.5776Z" fill="black"/>
<path d="M169.147 68.5776H162.509V75.2155H169.147V68.5776Z" fill="black"/>
<path d="M182.422 68.5776H175.784V75.2155H182.422V68.5776Z" fill="black"/>
<path d="M189.06 68.5776H182.422V75.2155H189.06V68.5776Z" fill="black"/>
<path d="M195.698 68.5776H189.06V75.2155H195.698V68.5776Z" fill="black"/>
<path d="M202.336 68.5776H195.698V75.2155H202.336V68.5776Z" fill="black"/>
<path d="M208.974 68.5776H202.336V75.2155H208.974V68.5776Z" fill="black"/>
<path d="M215.612 68.5776H208.974V75.2155H215.612V68.5776Z" fill="black"/>
<path d="M222.25 68.5776H215.612V75.2155H222.25V68.5776Z" fill="black"/>
<path d="M96.1293 75.2155H89.4914V81.8535H96.1293V75.2155Z" fill="black"/>
<path d="M129.319 75.2155H122.681V81.8535H129.319V75.2155Z" fill="black"/>
<path d="M149.233 75.2155H142.595V81.8535H149.233V75.2155Z" fill="black"/>
<path d="M155.871 75.2155H149.233V81.8535H155.871V75.2155Z" fill="black"/>
<path d="M162.509 75.2155H155.871V81.8535H162.509V75.2155Z" fill="black"/>
<path d="M169.147 75.2155H162.509V81.8535H169.147V75.2155Z" fill="black"/>
<path d="M69.5776 81.8535H62.9397V88.4914H69.5776V81.8535Z" fill="black"/>
<path d="M76.2155 81.8535H69.5776V88.4914H76.2155V81.8535Z" fill="black"/>
<path d="M89.4914 81.8535H82.8535V88.4914H89.4914V81.8535Z" fill="black"/>
<path d="M96.1293 81.8535H89.4914V88.4914H96.1293V81.8535Z" fill="black"/>
<path d="M109.405 81.8535H102.767V88.4914H109.405V81.8535Z" fill="black"/>
<path d="M116.043 81.8535H109.405V88.4914H116.043V81.8535Z" fill="black"/>
<path d="M129.319 81.8535H122.681V88.4914H129.319V81.8535Z" fill="black"/>
<path d="M135.957 81.8535H129.319V88.4914H135.957V81.8535Z" fill="black"/>
<path d="M142.595 81.8535H135.957V88.4914H142.595V81.8535Z" fill="black"/>
<path d="M149.233 81.8535H142.595V88.4914H149.233V81.8535Z" fill="black"/>
<path d="M175.784 81.8535H169.147V88.4914H175.784V81.8535Z" fill="black"/>
<path d="M189.06 81.8535H182.422V88.4914H189.06V81.8535Z" fill="black"/>
<path d="M202.336 81.8535H195.698V88.4914H202.336V81.8535Z" fill="black"/>
<path d="M222.25 81.8535H215.612V88.4914H222.25V81.8535Z" fill="black"/>
<path d="M36.3879 88.4914H29.75V95.1293H36.3879V88.4914Z" fill="black"/>
<path d="M56.3017 88.4914H49.6638V95.1293H56.3017V88.4914Z" fill="black"/>
<path d="M82.8535 88.4914H76.2155V95.1293H82.8535V88.4914Z" fill="black"/>
<path d="M89.4914 88.4914H82.8535V95.1293H89.4914V88.4914Z" fill="black"/>
<path d="M96.1293 88.4914H89.4914V95.1293H96.1293V88.4914Z" fill="black"/>
<path d="M135.957 88.4914H129.319V95.1293H135.957V88.4914Z" fill="black"/>
<path d="M149.233 88.4914H142.595V95.1293H149.233V88.4914Z" fill="black"/>
<path d="M162.509 88.4914H155.871V95.1293H162.509V88.4914Z" fill="black"/>
<path d="M175.784 88.4914H169.147V95.1293H175.784V88.4914Z" fill="black"/>
<path d="M36.3879 95.1293H29.75V101.767H36.3879V95.1293Z" fill="black"/>
<path d="M56.3017 95.1293H49.6638V101.767H56.3017V95.1293Z" fill="black"/>
<path d="M62.9397 95.1293H56.3017V101.767H62.9397V95.1293Z" fill="black"/>
<path d="M76.2155 95.1293H69.5776V101.767H76.2155V95.1293Z" fill="black"/>
<path d="M82.8535 95.1293H76.2155V101.767H82.8535V95.1293Z" fill="black"/>
<path d="M89.4914 95.1293H82.8535V101.767H89.4914V95.1293Z" fill="black"/>
<path d="M102.767 95.1293H96.1293V101.767H102.767V95.1293Z" fill="black"/>
<path d="M116.043 95.1293H109.405V101.767H116.043V95.1293Z" fill="black"/>
<path d="M135.957 95.1293H129.319V101.767H135.957V95.1293Z" fill="black"/>
<path d="M155.871 95.1293H149.233V101.767H155.871V95.1293Z" fill="black"/>
<path d="M169.147 95.1293H162.509V101.767H169.147V95.1293Z" fill="black"/>
<path d="M182.422 95.1293H175.784V101.767H182.422V95.1293Z" fill="black"/>
<path d="M195.698 95.1293H189.06V101.767H195.698V95.1293Z" fill="black"/>
<path d="M208.974 95.1293H202.336V101.767H208.974V95.1293Z" fill="black"/>
<path d="M222.25 95.1293H215.612V101.767H222.25V95.1293Z" fill="black"/>
<path d="M69.5776 101.767H62.9397V108.405H69.5776V101.767Z" fill="black"/>
<path d="M102.767 101.767H96.1293V108.405H102.767V101.767Z" fill="black"/>
<path d="M122.681 101.767H116.043V108.405H122.681V101.767Z" fill="black"/>
<path d="M129.319 101.767H122.681V108.405H129.319V101.767Z" fill="black"/>
<path d="M142.595 101.767H135.957V108.405H142.595V101.767Z" fill="black"/>
<path d="M155.871 101.767H149.233V108.405H155.871V101.767Z" fill="black"/>
<path d="M162.509 101.767H155.871V108.405H162.509V101.767Z" fill="black"/>
<path d="M169.147 101.767H162.509V108.405H169.147V101.767Z" fill="black"/>
<path d="M175.784 101.767H169.147V108.405H175.784V101.767Z" fill="black"/>
<path d="M189.06 101.767H182.422V108.405H189.06V101.767Z" fill="black"/>
<path d="M195.698 101.767H189.06V108.405H195.698V101.767Z" fill="black"/>
<path d="M49.6638 108.405H43.0259V115.043H49.6638V108.405Z" fill="black"/>
<path d="M76.2155 108.405H69.5776V115.043H76.2155V108.405Z" fill="black"/>
<path d="M89.4914 108.405H82.8535V115.043H89.4914V108.405Z" fill="black"/>
<path d="M96.1293 108.405H89.4914V115.043H96.1293V108.405Z" fill="black"/>
<path d="M102.767 108.405H96.1293V115.043H102.767V108.405Z" fill="black"/>
<path d="M109.405 108.405H102.767V115.043H109.405V108.405Z" fill="black"/>
<path d="M116.043 108.405H109.405V115.043H116.043V108.405Z" fill="black"/>
<path d="M129.319 108.405H122.681V115.043H129.319V108.405Z" fill="black"/>
<path d="M135.957 108.405H129.319V115.043H135.957V108.405Z" fill="black"/>
<path d="M155.871 108.405H149.233V115.043H155.871V108.405Z" fill="black"/>
<path d="M162.509 108.405H155.871V115.043H162.509V108.405Z" fill="black"/>
<path d="M182.422 108.405H175.784V115.043H182.422V108.405Z" fill="black"/>
<path d="M195.698 108.405H189.06V115.043H195.698V108.405Z" fill="black"/>
<path d="M208.974 108.405H202.336V115.043H208.974V108.405Z" fill="black"/>
<path d="M222.25 108.405H215.612V115.043H222.25V108.405Z" fill="black"/>
<path d="M36.3879 115.043H29.75V121.681H36.3879V115.043Z" fill="black"/>
<path d="M43.0259 115.043H36.3879V121.681H43.0259V115.043Z" fill="black"/>
<path d="M49.6638 115.043H43.0259V121.681H49.6638V115.043Z" fill="black"/>
<path d="M56.3017 115.043H49.6638V121.681H56.3017V115.043Z" fill="black"/>
<path d="M62.9397 115.043H56.3017V121.681H62.9397V115.043Z" fill="black"/>
<path d="M69.5776 115.043H62.9397V121.681H69.5776V115.043Z" fill="black"/>
<path d="M135.957 115.043H129.319V121.681H135.957V115.043Z" fill="black"/>
<path d="M142.595 115.043H135.957V121.681H142.595V115.043Z" fill="black"/>
<path d="M155.871 115.043H149.233V121.681H155.871V115.043Z" fill="black"/>
<path d="M162.509 115.043H155.871V121.681H162.509V115.043Z" fill="black"/>
<path d="M175.784 115.043H169.147V121.681H175.784V115.043Z" fill="black"/>
<path d="M182.422 115.043H175.784V121.681H182.422V115.043Z" fill="black"/>
<path d="M189.06 115.043H182.422V121.681H189.06V115.043Z" fill="black"/>
<path d="M215.612 115.043H208.974V121.681H215.612V115.043Z" fill="black"/>
<path d="M222.25 115.043H215.612V121.681H222.25V115.043Z" fill="black"/>
<path d="M43.0259 121.681H36.3879V128.319H43.0259V121.681Z" fill="black"/>
<path d="M56.3017 121.681H49.6638V128.319H56.3017V121.681Z" fill="black"/>
<path d="M62.9397 121.681H56.3017V128.319H62.9397V121.681Z" fill="black"/>
<path d="M69.5776 121.681H62.9397V128.319H69.5776V121.681Z" fill="black"/>
<path d="M76.2155 121.681H69.5776V128.319H76.2155V121.681Z" fill="black"/>
<path d="M82.8535 121.681H76.2155V128.319H82.8535V121.681Z" fill="black"/>
<path d="M96.1293 121.681H89.4914V128.319H96.1293V121.681Z" fill="black"/>
<path d="M109.405 121.681H102.767V128.319H109.405V121.681Z" fill="black"/>
<path d="M135.957 121.681H129.319V128.319H135.957V121.681Z" fill="black"/>
<path d="M142.595 121.681H135.957V128.319H142.595V121.681Z" fill="black"/>
<path d="M169.147 121.681H162.509V128.319H169.147V121.681Z" fill="black"/>
<path d="M182.422 121.681H175.784V128.319H182.422V121.681Z" fill="black"/>
<path d="M195.698 121.681H189.06V128.319H195.698V121.681Z" fill="black"/>
<path d="M202.336 121.681H195.698V128.319H202.336V121.681Z" fill="black"/>
<path d="M222.25 121.681H215.612V128.319H222.25V121.681Z" fill="black"/>
<path d="M43.0259 128.319H36.3879V134.957H43.0259V128.319Z" fill="black"/>
<path d="M56.3017 128.319H49.6638V134.957H56.3017V128.319Z" fill="black"/>
<path d="M89.4914 128.319H82.8535V134.957H89.4914V128.319Z" fill="black"/>
<path d="M96.1293 128.319H89.4914V134.957H96.1293V128.319Z" fill="black"/>
<path d="M109.405 128.319H102.767V134.957H109.405V128.319Z" fill="black"/>
<path d="M122.681 128.319H116.043V134.957H122.681V128.319Z" fill="black"/>
<path d="M129.319 128.319H122.681V134.957H129.319V128.319Z" fill="black"/>
<path d="M142.595 128.319H135.957V134.957H142.595V128.319Z" fill="black"/>
<path d="M149.233 128.319H142.595V134.957H149.233V128.319Z" fill="black"/>
<path d="M162.509 128.319H155.871V134.957H162.509V128.319Z" fill="black"/>
<path d="M175.784 128.319H169.147V134.957H175.784V128.319Z" fill="black"/>
<path d="M182.422 128.319H175.784V134.957H182.422V128.319Z" fill="black"/>
<path d="M195.698 128.319H189.06V134.957H195.698V128.319Z" fill="black"/>
<path d="M202.336 128.319H195.698V134.957H202.336V128.319Z" fill="black"/>
<path d="M215.612 128.319H208.974V134.957H215.612V128.319Z" fill="black"/>
<path d="M36.3879 134.957H29.75V141.595H36.3879V134.957Z" fill="black"/>
<path d="M49.6638 134.957H43.0259V141.595H49.6638V134.957Z" fill="black"/>
<path d="M62.9397 134.957H56.3017V141.595H62.9397V134.957Z" fill="black"/>
<path d="M76.2155 134.957H69.5776V141.595H76.2155V134.957Z" fill="black"/>
<path d="M102.767 134.957H96.1293V141.595H102.767V134.957Z" fill="black"/>
<path d="M116.043 134.957H109.405V141.595H116.043V134.957Z" fill="black"/>
<path d="M129.319 134.957H122.681V141.595H129.319V134.957Z" fill="black"/>
<path d="M135.957 134.957H129.319V141.595H135.957V134.957Z" fill="black"/>
<path d="M142.595 134.957H135.957V141.595H142.595V134.957Z" fill="black"/>
<path d="M162.509 134.957H155.871V141.595H162.509V134.957Z" fill="black"/>
<path d="M169.147 134.957H162.509V141.595H169.147V134.957Z" fill="black"/>
<path d="M175.784 134.957H169.147V141.595H175.784V134.957Z" fill="black"/>
<path d="M189.06 134.957H182.422V141.595H189.06V134.957Z" fill="black"/>
<path d="M202.336 134.957H195.698V141.595H202.336V134.957Z" fill="black"/>
<path d="M43.0259 141.595H36.3879V148.233H43.0259V141.595Z" fill="black"/>
<path d="M49.6638 141.595H43.0259V148.233H49.6638V141.595Z" fill="black"/>
<path d="M82.8535 141.595H76.2155V148.233H82.8535V141.595Z" fill="black"/>
<path d="M102.767 141.595H96.1293V148.233H102.767V141.595Z" fill="black"/>
<path d="M116.043 141.595H109.405V148.233H116.043V141.595Z" fill="black"/>
<path d="M122.681 141.595H116.043V148.233H122.681V141.595Z" fill="black"/>
<path d="M135.957 141.595H129.319V148.233H135.957V141.595Z" fill="black"/>
<path d="M142.595 141.595H135.957V148.233H142.595V141.595Z" fill="black"/>
<path d="M155.871 141.595H149.233V148.233H155.871V141.595Z" fill="black"/>
<path d="M162.509 141.595H155.871V148.233H162.509V141.595Z" fill="black"/>
<path d="M182.422 141.595H175.784V148.233H182.422V141.595Z" fill="black"/>
<path d="M36.3879 148.233H29.75V154.871H36.3879V148.233Z" fill="black"/>
<path d="M43.0259 148.233H36.3879V154.871H43.0259V148.233Z" fill="black"/>
<path d="M49.6638 148.233H43.0259V154.871H49.6638V148.233Z" fill="black"/>
<path d="M56.3017 148.233H49.6638V154.871H56.3017V148.233Z" fill="black"/>
<path d="M62.9397 148.233H56.3017V154.871H62.9397V148.233Z" fill="black"/>
<path d="M76.2155 148.233H69.5776V154.871H76.2155V148.233Z" fill="black"/>
<path d="M82.8535 148.233H76.2155V154.871H82.8535V148.233Z" fill="black"/>
<path d="M89.4914 148.233H82.8535V154.871H89.4914V148.233Z" fill="black"/>
<path d="M122.681 148.233H116.043V154.871H122.681V148.233Z" fill="black"/>
<path d="M135.957 148.233H129.319V154.871H135.957V148.233Z" fill="black"/>
<path d="M149.233 148.233H142.595V154.871H149.233V148.233Z" fill="black"/>
<path d="M155.871 148.233H149.233V154.871H155.871V148.233Z" fill="black"/>
<path d="M162.509 148.233H155.871V154.871H162.509V148.233Z" fill="black"/>
<path d="M169.147 148.233H162.509V154.871H169.147V148.233Z" fill="black"/>
<path d="M189.06 148.233H182.422V154.871H189.06V148.233Z" fill="black"/>
<path d="M195.698 148.233H189.06V154.871H195.698V148.233Z" fill="black"/>
<path d="M36.3879 154.871H29.75V161.509H36.3879V154.871Z" fill="black"/>
<path d="M69.5776 154.871H62.9397V161.509H69.5776V154.871Z" fill="black"/>
<path d="M89.4914 154.871H82.8535V161.509H89.4914V154.871Z" fill="black"/>
<path d="M102.767 154.871H96.1293V161.509H102.767V154.871Z" fill="black"/>
<path d="M109.405 154.871H102.767V161.509H109.405V154.871Z" fill="black"/>
<path d="M122.681 154.871H116.043V161.509H122.681V154.871Z" fill="black"/>
<path d="M162.509 154.871H155.871V161.509H162.509V154.871Z" fill="black"/>
<path d="M202.336 154.871H195.698V161.509H202.336V154.871Z" fill="black"/>
<path d="M208.974 154.871H202.336V161.509H208.974V154.871Z" fill="black"/>
<path d="M215.612 154.871H208.974V161.509H215.612V154.871Z" fill="black"/>
<path d="M49.6638 161.509H43.0259V168.147H49.6638V161.509Z" fill="black"/>
<path d="M76.2155 161.509H69.5776V168.147H76.2155V161.509Z" fill="black"/>
<path d="M96.1293 161.509H89.4914V168.147H96.1293V161.509Z" fill="black"/>
<path d="M102.767 161.509H96.1293V168.147H102.767V161.509Z" fill="black"/>
<path d="M122.681 161.509H116.043V168.147H122.681V161.509Z" fill="black"/>
<path d="M135.957 161.509H129.319V168.147H135.957V161.509Z" fill="black"/>
<path d="M142.595 161.509H135.957V168.147H142.595V161.509Z" fill="black"/>
<path d="M149.233 161.509H142.595V168.147H149.233V161.509Z" fill="black"/>
<path d="M169.147 161.509H162.509V168.147H169.147V161.509Z" fill="black"/>
<path d="M175.784 161.509H169.147V168.147H175.784V161.509Z" fill="black"/>
<path d="M182.422 161.509H175.784V168.147H182.422V161.509Z" fill="black"/>
<path d="M189.06 161.509H182.422V168.147H189.06V161.509Z" fill="black"/>
<path d="M195.698 161.509H189.06V168.147H195.698V161.509Z" fill="black"/>
<path d="M215.612 161.509H208.974V168.147H215.612V161.509Z" fill="black"/>
<path d="M222.25 161.509H215.612V168.147H222.25V161.509Z" fill="black"/>
<path d="M89.4914 168.147H82.8535V174.784H89.4914V168.147Z" fill="black"/>
<path d="M116.043 168.147H109.405V174.784H116.043V168.147Z" fill="black"/>
<path d="M129.319 168.147H122.681V174.784H129.319V168.147Z" fill="black"/>
<path d="M135.957 168.147H129.319V174.784H135.957V168.147Z" fill="black"/>
<path d="M142.595 168.147H135.957V174.784H142.595V168.147Z" fill="black"/>
<path d="M149.233 168.147H142.595V174.784H149.233V168.147Z" fill="black"/>
<path d="M155.871 168.147H149.233V174.784H155.871V168.147Z" fill="black"/>
<path d="M169.147 168.147H162.509V174.784H169.147V168.147Z" fill="black"/>
<path d="M195.698 168.147H189.06V174.784H195.698V168.147Z" fill="black"/>
<path d="M208.974 168.147H202.336V174.784H208.974V168.147Z" fill="black"/>
<path d="M215.612 168.147H208.974V174.784H215.612V168.147Z" fill="black"/>
<path d="M36.3879 174.784H29.75V181.422H36.3879V174.784Z" fill="black"/>
<path d="M43.0259 174.784H36.3879V181.422H43.0259V174.784Z" fill="black"/>
<path d="M49.6638 174.784H43.0259V181.422H49.6638V174.784Z" fill="black"/>
<path d="M56.3017 174.784H49.6638V181.422H56.3017V174.784Z" fill="black"/>
<path d="M62.9397 174.784H56.3017V181.422H62.9397V174.784Z" fill="black"/>
<path d="M69.5776 174.784H62.9397V181.422H69.5776V174.784Z" fill="black"/>
<path d="M76.2155 174.784H69.5776V181.422H76.2155V174.784Z" fill="black"/>
<path d="M96.1293 174.784H89.4914V181.422H96.1293V174.784Z" fill="black"/>
<path d="M109.405 174.784H102.767V181.422H109.405V174.784Z" fill="black"/>
<path d="M116.043 174.784H109.405V181.422H116.043V174.784Z" fill="black"/>
<path d="M129.319 174.784H122.681V181.422H129.319V174.784Z" fill="black"/>
<path d="M149.233 174.784H142.595V181.422H149.233V174.784Z" fill="black"/>
<path d="M169.147 174.784H162.509V181.422H169.147V174.784Z" fill="black"/>
<path d="M182.422 174.784H175.784V181.422H182.422V174.784Z" fill="black"/>
<path d="M195.698 174.784H189.06V181.422H195.698V174.784Z" fill="black"/>
<path d="M202.336 174.784H195.698V181.422H202.336V174.784Z" fill="black"/>
<path d="M222.25 174.784H215.612V181.422H222.25V174.784Z" fill="black"/>
<path d="M36.3879 181.422H29.75V188.06H36.3879V181.422Z" fill="black"/>
<path d="M76.2155 181.422H69.5776V188.06H76.2155V181.422Z" fill="black"/>
<path d="M89.4914 181.422H82.8535V188.06H89.4914V181.422Z" fill="black"/>
<path d="M102.767 181.422H96.1293V188.06H102.767V181.422Z" fill="black"/>
<path d="M109.405 181.422H102.767V188.06H109.405V181.422Z" fill="black"/>
<path d="M122.681 181.422H116.043V188.06H122.681V181.422Z" fill="black"/>
<path d="M149.233 181.422H142.595V188.06H149.233V181.422Z" fill="black"/>
<path d="M155.871 181.422H149.233V188.06H155.871V181.422Z" fill="black"/>
<path d="M162.509 181.422H155.871V188.06H162.509V181.422Z" fill="black"/>
<path d="M169.147 181.422H162.509V188.06H169.147V181.422Z" fill="black"/>
<path d="M195.698 181.422H189.06V188.06H195.698V181.422Z" fill="black"/>
<path d="M202.336 181.422H195.698V188.06H202.336V181.422Z" fill="black"/>
<path d="M215.612 181.422H208.974V188.06H215.612V181.422Z" fill="black"/>
<path d="M36.3879 188.06H29.75V194.698H36.3879V188.06Z" fill="black"/>
<path d="M49.6638 188.06H43.0259V194.698H49.6638V188.06Z" fill="black"/>
<path d="M56.3017 188.06H49.6638V194.698H56.3017V188.06Z" fill="black"/>
<path d="M62.9397 188.06H56.3017V194.698H62.9397V188.06Z" fill="black"/>
<path d="M76.2155 188.06H69.5776V194.698H76.2155V188.06Z" fill="black"/>
<path d="M102.767 188.06H96.1293V194.698H102.767V188.06Z" fill="black"/>
<path d="M109.405 188.06H102.767V194.698H109.405V188.06Z" fill="black"/>
<path d="M129.319 188.06H122.681V194.698H129.319V188.06Z" fill="black"/>
<path d="M135.957 188.06H129.319V194.698H135.957V188.06Z" fill="black"/>
<path d="M155.871 188.06H149.233V194.698H155.871V188.06Z" fill="black"/>
<path d="M162.509 188.06H155.871V194.698H162.509V188.06Z" fill="black"/>
<path d="M169.147 188.06H162.509V194.698H169.147V188.06Z" fill="black"/>
<path d="M175.784 188.06H169.147V194.698H175.784V188.06Z" fill="black"/>
<path d="M182.422 188.06H175.784V194.698H182.422V188.06Z" fill="black"/>
<path d="M189.06 188.06H182.422V194.698H189.06V188.06Z" fill="black"/>
<path d="M195.698 188.06H189.06V194.698H195.698V188.06Z" fill="black"/>
<path d="M202.336 188.06H195.698V194.698H202.336V188.06Z" fill="black"/>
<path d="M208.974 188.06H202.336V194.698H208.974V188.06Z" fill="black"/>
<path d="M215.612 188.06H208.974V194.698H215.612V188.06Z" fill="black"/>
<path d="M222.25 188.06H215.612V194.698H222.25V188.06Z" fill="black"/>
<path d="M36.3879 194.698H29.75V201.336H36.3879V194.698Z" fill="black"/>
<path d="M49.6638 194.698H43.0259V201.336H49.6638V194.698Z" fill="black"/>
<path d="M56.3017 194.698H49.6638V201.336H56.3017V194.698Z" fill="black"/>
<path d="M62.9397 194.698H56.3017V201.336H62.9397V194.698Z" fill="black"/>
<path d="M76.2155 194.698H69.5776V201.336H76.2155V194.698Z" fill="black"/>
<path d="M96.1293 194.698H89.4914V201.336H96.1293V194.698Z" fill="black"/>
<path d="M102.767 194.698H96.1293V201.336H102.767V194.698Z" fill="black"/>
<path d="M109.405 194.698H102.767V201.336H109.405V194.698Z" fill="black"/>
<path d="M116.043 194.698H109.405V201.336H116.043V194.698Z" fill="black"/>
<path d="M135.957 194.698H129.319V201.336H135.957V194.698Z" fill="black"/>
<path d="M142.595 194.698H135.957V201.336H142.595V194.698Z" fill="black"/>
<path d="M155.871 194.698H149.233V201.336H155.871V194.698Z" fill="black"/>
<path d="M195.698 194.698H189.06V201.336H195.698V194.698Z" fill="black"/>
<path d="M202.336 194.698H195.698V201.336H202.336V194.698Z" fill="black"/>
<path d="M36.3879 201.336H29.75V207.974H36.3879V201.336Z" fill="black"/>
<path d="M49.6638 201.336H43.0259V207.974H49.6638V201.336Z" fill="black"/>
<path d="M56.3017 201.336H49.6638V207.974H56.3017V201.336Z" fill="black"/>
<path d="M62.9397 201.336H56.3017V207.974H62.9397V201.336Z" fill="black"/>
<path d="M76.2155 201.336H69.5776V207.974H76.2155V201.336Z" fill="black"/>
<path d="M102.767 201.336H96.1293V207.974H102.767V201.336Z" fill="black"/>
<path d="M109.405 201.336H102.767V207.974H109.405V201.336Z" fill="black"/>
<path d="M122.681 201.336H116.043V207.974H122.681V201.336Z" fill="black"/>
<path d="M129.319 201.336H122.681V207.974H129.319V201.336Z" fill="black"/>
<path d="M169.147 201.336H162.509V207.974H169.147V201.336Z" fill="black"/>
<path d="M175.784 201.336H169.147V207.974H175.784V201.336Z" fill="black"/>
<path d="M189.06 201.336H182.422V207.974H189.06V201.336Z" fill="black"/>
<path d="M36.3879 207.974H29.75V214.612H36.3879V207.974Z" fill="black"/>
<path d="M76.2155 207.974H69.5776V214.612H76.2155V207.974Z" fill="black"/>
<path d="M102.767 207.974H96.1293V214.612H102.767V207.974Z" fill="black"/>
<path d="M109.405 207.974H102.767V214.612H109.405V207.974Z" fill="black"/>
<path d="M116.043 207.974H109.405V214.612H116.043V207.974Z" fill="black"/>
<path d="M129.319 207.974H122.681V214.612H129.319V207.974Z" fill="black"/>
<path d="M135.957 207.974H129.319V214.612H135.957V207.974Z" fill="black"/>
<path d="M142.595 207.974H135.957V214.612H142.595V207.974Z" fill="black"/>
<path d="M155.871 207.974H149.233V214.612H155.871V207.974Z" fill="black"/>
<path d="M162.509 207.974H155.871V214.612H162.509V207.974Z" fill="black"/>
<path d="M175.784 207.974H169.147V214.612H175.784V207.974Z" fill="black"/>
<path d="M182.422 207.974H175.784V214.612H182.422V207.974Z" fill="black"/>
<path d="M189.06 207.974H182.422V214.612H189.06V207.974Z" fill="black"/>
<path d="M195.698 207.974H189.06V214.612H195.698V207.974Z" fill="black"/>
<path d="M215.612 207.974H208.974V214.612H215.612V207.974Z" fill="black"/>
<path d="M222.25 207.974H215.612V214.612H222.25V207.974Z" fill="black"/>
<path d="M36.3879 214.612H29.75V221.25H36.3879V214.612Z" fill="black"/>
<path d="M43.0259 214.612H36.3879V221.25H43.0259V214.612Z" fill="black"/>
<path d="M49.6638 214.612H43.0259V221.25H49.6638V214.612Z" fill="black"/>
<path d="M56.3017 214.612H49.6638V221.25H56.3017V214.612Z" fill="black"/>
<path d="M62.9397 214.612H56.3017V221.25H62.9397V214.612Z" fill="black"/>
<path d="M69.5776 214.612H62.9397V221.25H69.5776V214.612Z" fill="black"/>
<path d="M76.2155 214.612H69.5776V221.25H76.2155V214.612Z" fill="black"/>
<path d="M96.1293 214.612H89.4914V221.25H96.1293V214.612Z" fill="black"/>
<path d="M116.043 214.612H109.405V221.25H116.043V214.612Z" fill="black"/>
<path d="M129.319 214.612H122.681V221.25H129.319V214.612Z" fill="black"/>
<path d="M149.233 214.612H142.595V221.25H149.233V214.612Z" fill="black"/>
<path d="M155.871 214.612H149.233V221.25H155.871V214.612Z" fill="black"/>
<path d="M162.509 214.612H155.871V221.25H162.509V214.612Z" fill="black"/>
<path d="M175.784 214.612H169.147V221.25H175.784V214.612Z" fill="black"/>
<path d="M202.336 214.612H195.698V221.25H202.336V214.612Z" fill="black"/>
<path d="M208.974 214.612H202.336V221.25H208.974V214.612Z" fill="black"/>
</g>
</g>
</g>
<defs>
<filter id="filter0_d_761_16545" x="0" y="0" width="252" height="252" filterUnits="userSpaceOnUse" color-interpolation-filters="sRGB">
<feFlood flood-opacity="0" result="BackgroundImageFix"/>
<feColorMatrix in="SourceAlpha" type="matrix" values="0 0 0 0 0 0 0 0 0 0 0 0 0 0 0 0 0 0 127 0" result="hardAlpha"/>
<feOffset dy="1"/>
<feGaussianBlur stdDeviation="8"/>
<feComposite in2="hardAlpha" operator="out"/>
<feColorMatrix type="matrix" values="0 0 0 0 0 0 0 0 0 0 0 0 0 0 0 0 0 0 0.25 0"/>
<feBlend mode="normal" in2="BackgroundImageFix" result="effect1_dropShadow_761_16545"/>
<feBlend mode="normal" in="SourceGraphic" in2="effect1_dropShadow_761_16545" result="shape"/>
</filter>
<clipPath id="clip0_761_16545">
<rect x="16" y="15" width="220" height="220" rx="16" fill="white"/>
</clipPath>
</defs>
</svg>
