<svg width="56" height="48" viewBox="0 0 56 48" fill="none" xmlns="http://www.w3.org/2000/svg">
<g id="Frame 1410086640">
<g id="Group 1000005428">
<rect id="Rectangle 34624324" y="3" width="56" height="42" rx="6" fill="#CEE7FF"/>
<rect id="Rectangle 34624325" y="11" width="56" height="17" fill="#3269F0"/>
<g id="xxxx">
<path d="M13.832 20.016L11.016 16H13.496L15.048 18.336H15.144L16.6 16H19.16L16.296 20.016L19.16 24.16H16.68L15.112 21.776H15.016L13.48 24.16H11L13.832 20.016Z" fill="white"/>
<path d="M22.4101 20.016L19.5941 16H22.0741L23.6261 18.336H23.7221L25.1781 16H27.7381L24.8741 20.016L27.7381 24.16H25.2581L23.6901 21.776H23.5941L22.0581 24.16H19.5781L22.4101 20.016Z" fill="white"/>
<path d="M30.9883 20.016L28.1723 16H30.6523L32.2043 18.336H32.3003L33.7563 16H36.3162L33.4522 20.016L36.3162 24.16H33.8363L32.2682 21.776H32.1723L30.6362 24.16H28.1562L30.9883 20.016Z" fill="white"/>
<path d="M39.5664 20.016L36.7504 16H39.2304L40.7824 18.336H40.8784L42.3344 16H44.8944L42.0304 20.016L44.8944 24.16H42.4144L40.8464 21.776H40.7504L39.2144 24.16H36.7344L39.5664 20.016Z" fill="white"/>
</g>
</g>
</g>
</svg>
