<svg width="320" height="207" viewBox="0 0 320 207" fill="none" xmlns="http://www.w3.org/2000/svg">
<g filter="url(#filter0_b_143_1144)">
<path d="M158.281 79.0115L108.655 107.369C106.738 108.465 105.544 110.544 105.602 112.752C107.21 173.668 149.349 190.374 157.804 193.117C158.773 193.431 159.774 193.431 160.742 193.117C169.197 190.374 211.337 173.668 212.944 112.752C213.003 110.544 211.808 108.465 209.891 107.369L160.265 79.0115C159.651 78.6601 158.896 78.6601 158.281 79.0115Z" fill="#558BFF"/>
<path d="M108.807 107.635L158.433 79.2771C158.954 78.9795 159.593 78.9795 160.114 79.2771L209.739 107.635C211.561 108.675 212.694 110.651 212.639 112.744C211.837 143.125 200.931 162.457 189.192 174.536C177.445 186.622 164.847 191.464 160.648 192.826C159.74 193.12 158.806 193.12 157.899 192.826C153.699 191.464 141.101 186.622 129.355 174.536C117.615 162.457 106.71 143.125 105.908 112.744C105.853 110.651 106.986 108.675 108.807 107.635Z" stroke="#558BFF" stroke-width="0.611895"/>
</g>
<path d="M185.555 123.785C187.707 125.937 187.707 129.426 185.555 131.578L158.696 158.437C157.662 159.471 156.261 160.052 154.799 160.052C153.337 160.052 151.936 159.471 150.902 158.437L135.554 143.089C133.402 140.937 133.402 137.448 135.554 135.296C137.706 133.144 141.195 133.144 143.348 135.296L154.626 146.574C154.722 146.67 154.877 146.67 154.972 146.574L177.762 123.785C179.914 121.633 183.403 121.633 185.555 123.785Z" fill="white" fill-opacity="0.9" stroke="url(#paint0_linear_143_1144)" stroke-width="0.489516" stroke-linecap="round" stroke-linejoin="round"/>
<path d="M64.1591 111.617L59.758 108.952C59.758 108.952 52.4229 126.274 50.7928 131.795L55.8459 133.317L64.1591 111.617Z" fill="#FFE69B"/>
<path d="M92.1826 202.003L94.0791 196.716C94.0791 196.716 80.3736 188.837 76.033 187.157L75.0466 193.162L92.1826 202.003Z" fill="#FFE69B"/>
<path d="M7.14921 53.2592L0.00118326 57.9448L8.02092 77.6244L16.0407 73.3136L7.14921 53.2592Z" fill="#009245"/>
<path d="M109.374 56.7409C109.374 56.7409 101.077 56.9171 96.238 62.5568L99.5565 70.6638C99.5565 70.6638 108.821 66.2578 112.277 66.2578L109.374 56.7409Z" fill="#009245"/>
<path d="M5.9567 182.048L0 186.733L6.68313 206.413L13.3663 202.102L5.9567 182.048Z" fill="#009245"/>
<path d="M303.459 147.506L298.477 147.652C298.477 147.652 299.514 169.59 300.461 176.131L305.523 174.432L303.459 147.506Z" fill="#009245"/>
<path d="M230.055 177.648C230.055 177.648 223.047 182.958 220.477 189.661L225.675 192.817C225.675 192.817 232.468 184.19 235.543 181.945L230.055 177.648Z" fill="#FFE69B"/>
<path d="M155.926 174.984L162.426 179.13L174.225 160.541L167.656 155.36L155.926 174.984Z" fill="#009245"/>
<path d="M239.904 92.4353C239.904 92.4353 245.462 104.891 253.34 108.772L257.965 98.7907C257.965 98.7907 248.234 87.4552 245.98 82.2205L239.904 92.4353Z" fill="#009245"/>
<path d="M194.98 17.7295C194.98 17.7295 199.096 26.8281 205.184 29.4875L208.962 21.7305C208.962 21.7305 201.622 13.4076 199.898 9.40391L194.98 17.7295Z" fill="#558BFF"/>
<path d="M293.017 0L289.723 8.83717C289.723 8.83717 298.157 22.9299 308.738 20.4469L310.033 13.3076C310.172 13.2065 302.023 14.152 293.017 0Z" fill="#FFE69B"/>
<path d="M304.854 65.3337C304.854 65.3337 312.356 69.2706 319.412 64.5291L319.448 56.5217C319.448 56.5217 312.553 60.7368 307.261 57.4375L304.854 65.3337Z" fill="#93278F"/>
<defs>
<filter id="filter0_b_143_1144" x="93.2939" y="66.4403" width="131.959" height="139.22" filterUnits="userSpaceOnUse" color-interpolation-filters="sRGB">
<feFlood flood-opacity="0" result="BackgroundImageFix"/>
<feGaussianBlur in="BackgroundImageFix" stdDeviation="6.15382"/>
<feComposite in2="SourceAlpha" operator="in" result="effect1_backgroundBlur_143_1144"/>
<feBlend mode="normal" in="SourceGraphic" in2="effect1_backgroundBlur_143_1144" result="shape"/>
</filter>
<linearGradient id="paint0_linear_143_1144" x1="135.223" y1="127.399" x2="169.56" y2="138.845" gradientUnits="userSpaceOnUse">
<stop stop-color="white"/>
<stop offset="1" stop-color="white" stop-opacity="0"/>
</linearGradient>
</defs>
</svg>
